<mxfile host="app.diagrams.net" agent="Mozilla/5.0 (Windows NT 10.0; Win64; x64) AppleWebKit/537.36 (KHTML, like Gecko) Chrome/128.0.0.0 YaBrowser/24.10.0.0 Safari/537.36" version="25.0.3">
  <diagram name="DF" id="BleSmaJVXqo2yb7Co1eL">
    <mxGraphModel dx="2221" dy="2335" grid="0" gridSize="10" guides="0" tooltips="0" connect="1" arrows="1" fold="1" page="0" pageScale="1" pageWidth="827" pageHeight="1169" math="0" shadow="0">
      <root>
        <mxCell id="0" />
        <mxCell id="1" parent="0" />
        <mxCell id="cKbgiC5qh_IXnBO1eU4K-99" value="" style="rounded=0;whiteSpace=wrap;html=1;fillColor=#dae8fc;strokeColor=#6c8ebf;" parent="1" vertex="1">
          <mxGeometry x="969" y="-246" width="2490" height="1450" as="geometry" />
        </mxCell>
        <mxCell id="kQWFD41fJFxlXKQhT5sF-2" value="" style="group" parent="1" vertex="1" connectable="0">
          <mxGeometry x="1303" y="49" width="151" height="36" as="geometry" />
        </mxCell>
        <mxCell id="cKbgiC5qh_IXnBO1eU4K-91" value="&lt;p style=&quot;margin: 0px 0px 0px 13px; text-indent: -13px; font-variant-numeric: normal; font-variant-east-asian: normal; font-variant-alternates: normal; font-kerning: auto; font-optical-sizing: auto; font-feature-settings: normal; font-variation-settings: normal; font-variant-position: normal; font-stretch: normal; font-size: 14px; line-height: normal; color: rgb(14, 14, 14); text-align: start;&quot; class=&quot;p1&quot;&gt;&lt;br&gt;&lt;/p&gt;" style="rounded=1;whiteSpace=wrap;html=1;fillColor=#FF77BF;strokeColor=none;arcSize=33;" parent="kQWFD41fJFxlXKQhT5sF-2" vertex="1">
          <mxGeometry y="5" width="151" height="31" as="geometry" />
        </mxCell>
        <mxCell id="cKbgiC5qh_IXnBO1eU4K-92" value="&lt;font style=&quot;font-size: 18px;&quot;&gt;&lt;i&gt;Django/Python&lt;/i&gt;&lt;/font&gt;" style="text;html=1;align=center;verticalAlign=middle;whiteSpace=wrap;rounded=1;shadow=0;fontSize=23;fontStyle=1" parent="kQWFD41fJFxlXKQhT5sF-2" vertex="1">
          <mxGeometry x="30" width="89" height="36" as="geometry" />
        </mxCell>
        <mxCell id="kQWFD41fJFxlXKQhT5sF-1" value="" style="group" parent="1" vertex="1" connectable="0">
          <mxGeometry x="1691" y="-203" width="155" height="49" as="geometry" />
        </mxCell>
        <mxCell id="cKbgiC5qh_IXnBO1eU4K-166" value="&lt;p style=&quot;margin: 0px 0px 0px 13px; text-indent: -13px; font-variant-numeric: normal; font-variant-east-asian: normal; font-variant-alternates: normal; font-kerning: auto; font-optical-sizing: auto; font-feature-settings: normal; font-variation-settings: normal; font-variant-position: normal; font-stretch: normal; font-size: 14px; line-height: normal; color: rgb(14, 14, 14); text-align: start;&quot; class=&quot;p1&quot;&gt;&lt;br&gt;&lt;/p&gt;" style="rounded=1;whiteSpace=wrap;html=1;fillColor=#FF77BF;strokeColor=none;arcSize=33;" parent="kQWFD41fJFxlXKQhT5sF-1" vertex="1">
          <mxGeometry y="13" width="155" height="34" as="geometry" />
        </mxCell>
        <mxCell id="cKbgiC5qh_IXnBO1eU4K-165" value="&lt;font style=&quot;font-size: 18px;&quot;&gt;&lt;i&gt;React/HTML/CSS&lt;/i&gt;&lt;/font&gt;" style="text;html=1;align=center;verticalAlign=middle;whiteSpace=wrap;rounded=1;shadow=0;fontSize=23;fontStyle=1" parent="kQWFD41fJFxlXKQhT5sF-1" vertex="1">
          <mxGeometry x="29" width="89" height="49" as="geometry" />
        </mxCell>
        <mxCell id="cKbgiC5qh_IXnBO1eU4K-98" value="" style="rounded=0;whiteSpace=wrap;html=1;fillColor=#e1d5e7;strokeColor=#9673a6;movable=1;resizable=1;rotatable=1;deletable=1;editable=1;locked=0;connectable=1;" parent="1" vertex="1">
          <mxGeometry x="969" y="-649" width="2490" height="400" as="geometry" />
        </mxCell>
        <mxCell id="ISwjRsLXD4yoOcMXPSiY-8" value="" style="group" parent="1" vertex="1" connectable="0">
          <mxGeometry x="2770" y="-580" width="535" height="220" as="geometry" />
        </mxCell>
        <mxCell id="Tz6aEU4ManMyac2rpAqn-102" value="" style="rounded=1;whiteSpace=wrap;html=1;arcSize=5;fillColor=#fff2cc;strokeColor=#d6b656;" parent="ISwjRsLXD4yoOcMXPSiY-8" vertex="1">
          <mxGeometry x="17" width="518" height="220" as="geometry" />
        </mxCell>
        <mxCell id="Tz6aEU4ManMyac2rpAqn-103" value="TurboPay" style="text;html=1;align=center;verticalAlign=middle;whiteSpace=wrap;rounded=1;shadow=0;fontSize=23;fontStyle=1" parent="ISwjRsLXD4yoOcMXPSiY-8" vertex="1">
          <mxGeometry width="177" height="49" as="geometry" />
        </mxCell>
        <mxCell id="ISwjRsLXD4yoOcMXPSiY-9" value="" style="group" parent="1" vertex="1" connectable="0">
          <mxGeometry x="2820" y="-520" width="518" height="224" as="geometry" />
        </mxCell>
        <mxCell id="Tz6aEU4ManMyac2rpAqn-100" value="" style="rounded=1;whiteSpace=wrap;html=1;arcSize=5;fillColor=#fff2cc;strokeColor=#d6b656;" parent="ISwjRsLXD4yoOcMXPSiY-9" vertex="1">
          <mxGeometry width="518" height="224" as="geometry" />
        </mxCell>
        <mxCell id="Tz6aEU4ManMyac2rpAqn-101" value="FastMoney" style="text;html=1;align=center;verticalAlign=middle;whiteSpace=wrap;rounded=1;shadow=0;fontSize=23;fontStyle=1" parent="ISwjRsLXD4yoOcMXPSiY-9" vertex="1">
          <mxGeometry x="2" width="141" height="49" as="geometry" />
        </mxCell>
        <mxCell id="ISwjRsLXD4yoOcMXPSiY-10" value="" style="group" parent="1" vertex="1" connectable="0">
          <mxGeometry x="2850" y="-460" width="514" height="244" as="geometry" />
        </mxCell>
        <mxCell id="Tz6aEU4ManMyac2rpAqn-104" value="" style="rounded=1;whiteSpace=wrap;html=1;arcSize=5;fillColor=#fff2cc;strokeColor=#d6b656;" parent="ISwjRsLXD4yoOcMXPSiY-10" vertex="1">
          <mxGeometry width="514" height="244" as="geometry" />
        </mxCell>
        <mxCell id="Tz6aEU4ManMyac2rpAqn-105" value="Яндекс.Pay" style="text;html=1;align=center;verticalAlign=middle;whiteSpace=wrap;rounded=1;shadow=0;fontSize=23;fontStyle=1" parent="ISwjRsLXD4yoOcMXPSiY-10" vertex="1">
          <mxGeometry width="150" height="49" as="geometry" />
        </mxCell>
        <mxCell id="D1CTnjmkYU0Mq4A9S6dc-23" value="" style="rounded=1;whiteSpace=wrap;html=1;arcSize=0;" parent="1" vertex="1">
          <mxGeometry x="944" y="1217" width="1128" height="343" as="geometry" />
        </mxCell>
        <mxCell id="cKbgiC5qh_IXnBO1eU4K-95" value="Администратор" style="shape=umlActor;verticalLabelPosition=bottom;verticalAlign=top;html=1;outlineConnect=0;rounded=1;" parent="1" vertex="1">
          <mxGeometry x="1000" y="380" width="65" height="141" as="geometry" />
        </mxCell>
        <mxCell id="cKbgiC5qh_IXnBO1eU4K-100" value="WAN" style="text;html=1;align=center;verticalAlign=middle;whiteSpace=wrap;rounded=1;shadow=0;fontSize=23;fontStyle=1" parent="1" vertex="1">
          <mxGeometry x="960" y="-600" width="85" height="49" as="geometry" />
        </mxCell>
        <mxCell id="cKbgiC5qh_IXnBO1eU4K-101" value="LAN" style="text;html=1;align=center;verticalAlign=middle;whiteSpace=wrap;rounded=1;shadow=0;fontSize=23;fontStyle=1" parent="1" vertex="1">
          <mxGeometry x="960" y="-200" width="85" height="49" as="geometry" />
        </mxCell>
        <mxCell id="cKbgiC5qh_IXnBO1eU4K-114" value="&lt;font style=&quot;font-size: 12px;&quot;&gt;[Транзакция.ID]&lt;/font&gt;" style="text;html=1;align=center;verticalAlign=middle;whiteSpace=wrap;rounded=1;fontSize=13;labelBackgroundColor=none;fontColor=#B8B8B8;" parent="1" vertex="1">
          <mxGeometry x="3069" y="-189" width="79" height="19" as="geometry" />
        </mxCell>
        <mxCell id="cKbgiC5qh_IXnBO1eU4K-120" value="&lt;font style=&quot;font-size: 12px;&quot;&gt;[Транзакция.Статус]&lt;/font&gt;" style="text;html=1;align=center;verticalAlign=middle;whiteSpace=wrap;rounded=1;fontSize=13;labelBackgroundColor=none;fontColor=#B8B8B8;" parent="1" vertex="1">
          <mxGeometry x="3064" y="-170" width="131" height="19" as="geometry" />
        </mxCell>
        <mxCell id="cKbgiC5qh_IXnBO1eU4K-121" value="&lt;font style=&quot;font-size: 12px;&quot;&gt;[Пользователь.ID]&lt;/font&gt;" style="text;html=1;align=center;verticalAlign=middle;whiteSpace=wrap;rounded=1;fontSize=13;labelBackgroundColor=none;fontColor=#007575;" parent="1" vertex="1">
          <mxGeometry x="2838" y="-106" width="116" height="17" as="geometry" />
        </mxCell>
        <mxCell id="cKbgiC5qh_IXnBO1eU4K-122" value="&lt;font style=&quot;font-size: 12px;&quot;&gt;[Заказ.ID]&lt;/font&gt;" style="text;html=1;align=center;verticalAlign=middle;whiteSpace=wrap;rounded=1;fontSize=13;labelBackgroundColor=none;fontColor=#007575;" parent="1" vertex="1">
          <mxGeometry x="2886" y="-150" width="65" height="20" as="geometry" />
        </mxCell>
        <mxCell id="cKbgiC5qh_IXnBO1eU4K-123" value="&lt;font style=&quot;font-size: 12px;&quot;&gt;[Заказ.Сумма]&lt;/font&gt;" style="text;html=1;align=center;verticalAlign=middle;whiteSpace=wrap;rounded=1;fontSize=13;labelBackgroundColor=none;fontColor=#007575;" parent="1" vertex="1">
          <mxGeometry x="2862" y="-127" width="97" height="21" as="geometry" />
        </mxCell>
        <mxCell id="cKbgiC5qh_IXnBO1eU4K-124" value="&lt;font style=&quot;font-size: 12px;&quot;&gt;[Транзакция.ID]&lt;/font&gt;" style="text;html=1;align=center;verticalAlign=middle;whiteSpace=wrap;rounded=1;fontSize=13;labelBackgroundColor=none;fontColor=#B8B8B8;" parent="1" vertex="1">
          <mxGeometry x="3157" y="-99" width="79" height="19" as="geometry" />
        </mxCell>
        <mxCell id="cKbgiC5qh_IXnBO1eU4K-127" value="&lt;font style=&quot;font-size: 12px;&quot;&gt;[Транзакция.ID]&lt;/font&gt;" style="text;html=1;align=center;verticalAlign=middle;whiteSpace=wrap;rounded=1;fontSize=13;labelBackgroundColor=none;fontColor=#B8B8B8;" parent="1" vertex="1">
          <mxGeometry x="3225" y="-159" width="88" height="21" as="geometry" />
        </mxCell>
        <mxCell id="cKbgiC5qh_IXnBO1eU4K-128" value="&lt;font style=&quot;font-size: 12px;&quot;&gt;[Транзакция.Статус]&lt;/font&gt;" style="text;html=1;align=center;verticalAlign=middle;whiteSpace=wrap;rounded=1;fontSize=13;labelBackgroundColor=none;fontColor=#B8B8B8;" parent="1" vertex="1">
          <mxGeometry x="3308" y="-10" width="122" height="20" as="geometry" />
        </mxCell>
        <mxCell id="cKbgiC5qh_IXnBO1eU4K-138" value="2" style="ellipse;whiteSpace=wrap;html=1;aspect=fixed;rounded=1;fillColor=#FF77BF;" parent="1" vertex="1">
          <mxGeometry x="3110" y="-230" width="23" height="23" as="geometry" />
        </mxCell>
        <mxCell id="cKbgiC5qh_IXnBO1eU4K-143" value="5" style="ellipse;whiteSpace=wrap;html=1;aspect=fixed;rounded=1;fillColor=#FF77BF;" parent="1" vertex="1">
          <mxGeometry x="3350" y="-230" width="23" height="23" as="geometry" />
        </mxCell>
        <mxCell id="cKbgiC5qh_IXnBO1eU4K-146" value="" style="strokeWidth=2;html=1;shape=mxgraph.flowchart.database;whiteSpace=wrap;rounded=1;movable=1;resizable=1;rotatable=1;deletable=1;editable=1;locked=0;connectable=1;" parent="1" vertex="1">
          <mxGeometry x="3130" y="-400" width="220" height="171" as="geometry" />
        </mxCell>
        <mxCell id="cKbgiC5qh_IXnBO1eU4K-152" value="&lt;p style=&quot;margin: 0px 0px 0px 13px; text-indent: -13px; font-variant-numeric: normal; font-variant-east-asian: normal; font-variant-alternates: normal; font-kerning: auto; font-optical-sizing: auto; font-feature-settings: normal; font-variation-settings: normal; font-variant-position: normal; font-stretch: normal; font-size: 14px; line-height: normal; text-align: start;&quot; class=&quot;p1&quot;&gt;&lt;span style=&quot;font-size: 12px; text-align: center; text-indent: 0px;&quot;&gt;[Транзакция.Статус]&lt;/span&gt;&lt;br&gt;&lt;/p&gt;" style="rounded=1;whiteSpace=wrap;html=1;fillColor=#B8B8B8;strokeColor=#FFD966;" parent="1" vertex="1">
          <mxGeometry x="3180" y="-310" width="119" height="21" as="geometry" />
        </mxCell>
        <mxCell id="cKbgiC5qh_IXnBO1eU4K-153" value="&lt;p style=&quot;margin: 0px 0px 0px 13px; text-indent: -13px; font-variant-numeric: normal; font-variant-east-asian: normal; font-variant-alternates: normal; font-kerning: auto; font-optical-sizing: auto; font-feature-settings: normal; font-variation-settings: normal; font-variant-position: normal; font-stretch: normal; font-size: 14px; line-height: normal; text-align: start;&quot; class=&quot;p1&quot;&gt;&lt;span style=&quot;font-size: 12px; text-align: center; text-indent: 0px;&quot;&gt;[Транзакция.ID]&lt;/span&gt;&lt;br&gt;&lt;/p&gt;" style="rounded=1;whiteSpace=wrap;html=1;fillColor=#B8B8B8;strokeColor=#FFD966;" parent="1" vertex="1">
          <mxGeometry x="3180" y="-280" width="119" height="21" as="geometry" />
        </mxCell>
        <mxCell id="cKbgiC5qh_IXnBO1eU4K-157" value="Специалист поддержки" style="shape=umlActor;verticalLabelPosition=bottom;verticalAlign=top;html=1;outlineConnect=0;rounded=1;" parent="1" vertex="1">
          <mxGeometry x="1000" y="610" width="65" height="141" as="geometry" />
        </mxCell>
        <mxCell id="cKbgiC5qh_IXnBO1eU4K-162" value="&lt;div&gt;Изменить статус заявки&lt;/div&gt;&lt;div&gt;на поддержку&lt;/div&gt;" style="text;html=1;align=center;verticalAlign=middle;whiteSpace=wrap;rounded=1;fontSize=13;" parent="1" vertex="1">
          <mxGeometry x="1050" y="670" width="168" height="30" as="geometry" />
        </mxCell>
        <mxCell id="cKbgiC5qh_IXnBO1eU4K-163" value="" style="rounded=1;whiteSpace=wrap;html=1;arcSize=3;fillColor=#f5f5f5;strokeColor=#1C57CD;strokeWidth=3;align=center;verticalAlign=middle;fontFamily=Helvetica;fontSize=12;fontColor=#333333;resizable=1;" parent="1" vertex="1">
          <mxGeometry x="1092" y="-153" width="1749" height="200" as="geometry" />
        </mxCell>
        <mxCell id="cKbgiC5qh_IXnBO1eU4K-164" value="Портал электронной площадки" style="text;html=1;align=center;verticalAlign=middle;whiteSpace=wrap;rounded=1;shadow=0;fontSize=23;fontStyle=1" parent="1" vertex="1">
          <mxGeometry x="1737" y="-158" width="380" height="49" as="geometry" />
        </mxCell>
        <mxCell id="D1CTnjmkYU0Mq4A9S6dc-4" value="&lt;p style=&quot;margin: 0px 0px 0px 13px; text-indent: -13px; font-variant-numeric: normal; font-variant-east-asian: normal; font-variant-alternates: normal; font-kerning: auto; font-optical-sizing: auto; font-feature-settings: normal; font-variation-settings: normal; font-variant-position: normal; font-stretch: normal; font-size: 14px; line-height: normal; color: rgb(14, 14, 14); text-align: start;&quot; class=&quot;p1&quot;&gt;&lt;font face=&quot;Times New Roman&quot;&gt;Объект данных&lt;/font&gt;&lt;/p&gt;" style="rounded=1;whiteSpace=wrap;html=1;fillColor=#b1ddf0;strokeColor=#10739e;" parent="1" vertex="1">
          <mxGeometry x="1332" y="1271" width="101" height="21" as="geometry" />
        </mxCell>
        <mxCell id="D1CTnjmkYU0Mq4A9S6dc-11" value="&lt;font style=&quot;font-size: 14px;&quot;&gt;СУБД&lt;/font&gt;" style="strokeWidth=2;html=1;shape=mxgraph.flowchart.database;whiteSpace=wrap;rounded=1;movable=1;resizable=1;rotatable=1;deletable=1;editable=1;locked=0;connectable=1;" parent="1" vertex="1">
          <mxGeometry x="1361" y="1437" width="137" height="87" as="geometry" />
        </mxCell>
        <mxCell id="D1CTnjmkYU0Mq4A9S6dc-14" value="Пользователь (Роль)" style="shape=umlActor;verticalLabelPosition=bottom;verticalAlign=top;html=1;outlineConnect=0;rounded=1;" parent="1" vertex="1">
          <mxGeometry x="1963" y="1261" width="65" height="141" as="geometry" />
        </mxCell>
        <mxCell id="D1CTnjmkYU0Mq4A9S6dc-16" value="&lt;p style=&quot;margin: 0px 0px 0px 13px; text-indent: -13px; font-variant-numeric: normal; font-variant-east-asian: normal; font-variant-alternates: normal; font-kerning: auto; font-optical-sizing: auto; font-feature-settings: normal; font-variation-settings: normal; font-variant-position: normal; font-stretch: normal; line-height: normal; text-align: start;&quot; class=&quot;p1&quot;&gt;&lt;span style=&quot;text-align: center; text-indent: 0px;&quot;&gt;&lt;font style=&quot;font-size: 14px;&quot; face=&quot;Times New Roman&quot;&gt;Объект даных внешних сервисов&lt;/font&gt;&lt;/span&gt;&lt;br&gt;&lt;/p&gt;" style="rounded=1;whiteSpace=wrap;html=1;fillColor=#B8B8B8;strokeColor=#FFD966;" parent="1" vertex="1">
          <mxGeometry x="1344" y="1323" width="204" height="21" as="geometry" />
        </mxCell>
        <mxCell id="D1CTnjmkYU0Mq4A9S6dc-17" value="" style="endArrow=classic;html=1;rounded=1;curved=0;strokeWidth=2;" parent="1" edge="1">
          <mxGeometry width="50" height="50" relative="1" as="geometry">
            <mxPoint x="1667" y="1411" as="sourcePoint" />
            <mxPoint x="1877" y="1411" as="targetPoint" />
            <Array as="points">
              <mxPoint x="1667" y="1411" />
            </Array>
          </mxGeometry>
        </mxCell>
        <mxCell id="D1CTnjmkYU0Mq4A9S6dc-18" value="&lt;font style=&quot;font-size: 12px;&quot;&gt;Подтверждение отмены&amp;nbsp;&lt;/font&gt;&lt;div&gt;&lt;font style=&quot;font-size: 12px;&quot;&gt;платежа&lt;/font&gt;&lt;/div&gt;" style="edgeLabel;html=1;align=center;verticalAlign=middle;resizable=0;points=[];rounded=1;" parent="D1CTnjmkYU0Mq4A9S6dc-17" vertex="1" connectable="0">
          <mxGeometry x="0.1936" y="1" relative="1" as="geometry">
            <mxPoint x="-32" y="20" as="offset" />
          </mxGeometry>
        </mxCell>
        <mxCell id="D1CTnjmkYU0Mq4A9S6dc-19" value="&lt;font style=&quot;font-size: 12px;&quot;&gt;[Транзакция.Статус]&lt;/font&gt;" style="text;html=1;align=center;verticalAlign=middle;whiteSpace=wrap;rounded=1;fontSize=13;labelBackgroundColor=none;fontColor=#B8B8B8;" parent="1" vertex="1">
          <mxGeometry x="1682" y="1384" width="160" height="30" as="geometry" />
        </mxCell>
        <mxCell id="D1CTnjmkYU0Mq4A9S6dc-20" value="" style="endArrow=classic;html=1;rounded=1;dashed=1;strokeWidth=2;" parent="1" edge="1">
          <mxGeometry width="50" height="50" relative="1" as="geometry">
            <mxPoint x="1668" y="1515" as="sourcePoint" />
            <mxPoint x="1883" y="1515" as="targetPoint" />
            <Array as="points" />
          </mxGeometry>
        </mxCell>
        <mxCell id="D1CTnjmkYU0Mq4A9S6dc-21" value="&lt;span style=&quot;font-size: 12px;&quot;&gt;Пользовательский поток&lt;/span&gt;" style="edgeLabel;html=1;align=center;verticalAlign=middle;resizable=0;points=[];rounded=1;" parent="1" vertex="1" connectable="0">
          <mxGeometry x="1763.9951851851852" y="1544" as="geometry">
            <mxPoint x="-2" y="-47" as="offset" />
          </mxGeometry>
        </mxCell>
        <mxCell id="Tz6aEU4ManMyac2rpAqn-4" value="Клиент" style="shape=umlActor;verticalLabelPosition=bottom;verticalAlign=top;html=1;outlineConnect=0;rounded=1;" parent="1" vertex="1">
          <mxGeometry x="1953" y="-467" width="65" height="141" as="geometry" />
        </mxCell>
        <mxCell id="Tz6aEU4ManMyac2rpAqn-10" value="" style="endArrow=classic;html=1;rounded=1;dashed=1;entryX=0.727;entryY=0.031;entryDx=0;entryDy=0;entryPerimeter=0;fontSize=12;" parent="1" source="Tz6aEU4ManMyac2rpAqn-4" edge="1">
          <mxGeometry width="50" height="50" relative="1" as="geometry">
            <mxPoint x="1985" y="-420" as="sourcePoint" />
            <mxPoint x="1986.2600000000002" y="-156.48099999999977" as="targetPoint" />
            <Array as="points" />
          </mxGeometry>
        </mxCell>
        <mxCell id="jEkXnfsxQ-_I6rloK0n_-4" value="1" style="ellipse;whiteSpace=wrap;html=1;aspect=fixed;rounded=1;fillColor=#FF77BF;" parent="1" vertex="1">
          <mxGeometry x="1678" y="1261" width="23" height="23" as="geometry" />
        </mxCell>
        <mxCell id="jEkXnfsxQ-_I6rloK0n_-9" value="&lt;span style=&quot;font-size: 18px;&quot;&gt;&lt;i&gt;Номер потока&lt;/i&gt;&lt;/span&gt;" style="text;html=1;align=center;verticalAlign=middle;whiteSpace=wrap;rounded=1;shadow=0;fontSize=23;fontStyle=0" parent="1" vertex="1">
          <mxGeometry x="1689" y="1248" width="161" height="49" as="geometry" />
        </mxCell>
        <mxCell id="d3r_7VUgfL_-Ddzbqp2A-3" value="&lt;h1 style=&quot;margin-top: 0px; font-size: 15px;&quot;&gt;&lt;p class=&quot;p1&quot; style=&quot;margin: 0px 0px 0px 21px; text-indent: -21px; font-variant-numeric: normal; font-variant-east-asian: normal; font-variant-alternates: normal; font-kerning: auto; font-optical-sizing: auto; font-feature-settings: normal; font-variation-settings: normal; font-variant-position: normal; font-stretch: normal; font-size: 15px; line-height: normal; color: rgb(14, 14, 14);&quot;&gt;&lt;span class=&quot;s1&quot; style=&quot;font-weight: 400; font-variant-numeric: normal; font-variant-east-asian: normal; font-variant-alternates: normal; font-kerning: auto; font-optical-sizing: auto; font-feature-settings: normal; font-variation-settings: normal; font-variant-position: normal; font-stretch: normal; line-height: normal; font-family: &amp;quot;Times New Roman&amp;quot;; font-size: 15px;&quot;&gt;1.&amp;nbsp;&lt;/span&gt;&lt;b style=&quot;font-size: 15px;&quot;&gt;Инициировать платёж&lt;/b&gt;&lt;b style=&quot;font-weight: 400; font-size: 15px;&quot;&gt;&amp;nbsp;&lt;/b&gt;&lt;span style=&quot;background-color: initial; color: rgb(51, 51, 51); font-family: &amp;quot;YS Text&amp;quot;, -apple-system, BlinkMacSystemFont, Arial, Helvetica, sans-serif; font-size: 16px; font-weight: 400;&quot;&gt;—&lt;/span&gt;&lt;span style=&quot;background-color: initial; color: rgb(0, 0, 0); font-weight: normal;&quot;&gt;&amp;nbsp;т&lt;/span&gt;&lt;span style=&quot;background-color: initial; font-weight: 400;&quot;&gt;орговая площадка инициирует платёж, отправив необходимые данные (ID пользователя, ID заказа, сумма заказа) в платёжный сервис.&lt;/span&gt;&lt;/p&gt;&lt;p class=&quot;p1&quot; style=&quot;margin: 0px 0px 0px 21px; text-indent: -21px; font-variant-numeric: normal; font-variant-east-asian: normal; font-variant-alternates: normal; font-kerning: auto; font-optical-sizing: auto; font-feature-settings: normal; font-variation-settings: normal; font-variant-position: normal; font-weight: 400; font-stretch: normal; font-size: 15px; line-height: normal; color: rgb(14, 14, 14);&quot;&gt;&lt;span class=&quot;s1&quot; style=&quot;font-variant-numeric: normal; font-variant-east-asian: normal; font-variant-alternates: normal; font-kerning: auto; font-optical-sizing: auto; font-feature-settings: normal; font-variation-settings: normal; font-variant-position: normal; font-stretch: normal; line-height: normal; font-family: &amp;quot;Times New Roman&amp;quot;; font-size: 15px;&quot;&gt;2.&amp;nbsp;&lt;/span&gt;&lt;b style=&quot;font-size: 15px;&quot;&gt;Предоставить статус платежа&amp;nbsp;&lt;/b&gt;&lt;span style=&quot;background-color: initial; color: rgb(51, 51, 51); font-family: &amp;quot;YS Text&amp;quot;, -apple-system, BlinkMacSystemFont, Arial, Helvetica, sans-serif; font-size: 16px;&quot;&gt;— п&lt;/span&gt;&lt;span style=&quot;background-color: initial; color: rgb(0, 0, 0);&quot;&gt;латё&lt;/span&gt;&lt;span style=&quot;background-color: initial; color: rgb(0, 0, 0);&quot;&gt;жный сервис принял запрос на проведение оплаты,&lt;/span&gt;&lt;span style=&quot;background-color: initial;&quot; class=&quot;Apple-converted-space&quot;&gt;&amp;nbsp;&lt;/span&gt;&lt;span style=&quot;background-color: initial;&quot;&gt;подтвердил возможность проведения платежа со счёта клиента, назначил идентификатор для этой транзакции и установил статус.&lt;/span&gt;&lt;/p&gt;&lt;p class=&quot;p1&quot; style=&quot;margin: 0px 0px 0px 21px; text-indent: -21px; font-variant-numeric: normal; font-variant-east-asian: normal; font-variant-alternates: normal; font-kerning: auto; font-optical-sizing: auto; font-feature-settings: normal; font-variation-settings: normal; font-variant-position: normal; font-weight: 400; font-stretch: normal; font-size: 15px; line-height: normal; color: rgb(14, 14, 14);&quot;&gt;&lt;span class=&quot;s1&quot; style=&quot;font-variant-numeric: normal; font-variant-east-asian: normal; font-variant-alternates: normal; font-kerning: auto; font-optical-sizing: auto; font-feature-settings: normal; font-variation-settings: normal; font-variant-position: normal; font-stretch: normal; line-height: normal; font-family: &amp;quot;Times New Roman&amp;quot;; font-size: 15px;&quot;&gt;3.&amp;nbsp;&lt;/span&gt;&lt;b style=&quot;font-size: 15px;&quot;&gt;Подтверждение платежа&amp;nbsp;&lt;/b&gt;&lt;span style=&quot;background-color: initial; color: rgb(51, 51, 51); font-family: &amp;quot;YS Text&amp;quot;, -apple-system, BlinkMacSystemFont, Arial, Helvetica, sans-serif; font-size: 16px;&quot;&gt;— т&lt;/span&gt;&lt;span style=&quot;background-color: initial; color: rgb(0, 0, 0);&quot;&gt;орговая площадка уведомляет платёжный сервис о подтверждении операции, отправляя ID транзакции.&lt;/span&gt;&lt;/p&gt;&lt;p class=&quot;p1&quot; style=&quot;margin: 0px 0px 0px 21px; text-indent: -21px; font-variant-numeric: normal; font-variant-east-asian: normal; font-variant-alternates: normal; font-kerning: auto; font-optical-sizing: auto; font-feature-settings: normal; font-variation-settings: normal; font-variant-position: normal; font-weight: 400; font-stretch: normal; font-size: 15px; line-height: normal; color: rgb(14, 14, 14);&quot;&gt;&lt;span class=&quot;s1&quot; style=&quot;font-variant-numeric: normal; font-variant-east-asian: normal; font-variant-alternates: normal; font-kerning: auto; font-optical-sizing: auto; font-feature-settings: normal; font-variation-settings: normal; font-variant-position: normal; font-stretch: normal; line-height: normal; font-family: &amp;quot;Times New Roman&amp;quot;; font-size: 15px;&quot;&gt;4.&amp;nbsp;&lt;/span&gt;&lt;b style=&quot;font-size: 15px;&quot;&gt;Запросить статус платежа&lt;/b&gt;&amp;nbsp;&lt;span style=&quot;background-color: initial; color: rgb(51, 51, 51); font-family: &amp;quot;YS Text&amp;quot;, -apple-system, BlinkMacSystemFont, Arial, Helvetica, sans-serif; font-size: 16px;&quot;&gt;— т&lt;/span&gt;&lt;span style=&quot;background-color: initial; color: rgb(0, 0, 0);&quot;&gt;орговая площадка отправляет запрос в платёжный сервис для получения текущего статуса обработки транзакции по ID.&lt;/span&gt;&lt;/p&gt;&lt;p class=&quot;p1&quot; style=&quot;margin: 0px 0px 0px 21px; text-indent: -21px; font-variant-numeric: normal; font-variant-east-asian: normal; font-variant-alternates: normal; font-kerning: auto; font-optical-sizing: auto; font-feature-settings: normal; font-variation-settings: normal; font-variant-position: normal; font-weight: 400; font-stretch: normal; font-size: 15px; line-height: normal; color: rgb(14, 14, 14);&quot;&gt;&lt;span class=&quot;s1&quot; style=&quot;font-variant-numeric: normal; font-variant-east-asian: normal; font-variant-alternates: normal; font-kerning: auto; font-optical-sizing: auto; font-feature-settings: normal; font-variation-settings: normal; font-variant-position: normal; font-stretch: normal; line-height: normal; font-family: &amp;quot;Times New Roman&amp;quot;; font-size: 15px;&quot;&gt;5.&amp;nbsp;&lt;/span&gt;&lt;b style=&quot;font-size: 15px;&quot;&gt;Подтверждение отмены платежа (альтернативный сценарий)&amp;nbsp;&lt;/b&gt;&lt;span style=&quot;background-color: initial; color: rgb(51, 51, 51); font-family: &amp;quot;YS Text&amp;quot;, -apple-system, BlinkMacSystemFont, Arial, Helvetica, sans-serif; font-size: 16px;&quot;&gt;— п&lt;/span&gt;&lt;span style=&quot;background-color: initial; color: rgb(0, 0, 0);&quot;&gt;латёжный сервис уведомляет систему об успешной отмене платежа, предоставляя статус отменённой транзакции.&lt;/span&gt;&lt;/p&gt;&lt;/h1&gt;" style="text;html=1;whiteSpace=wrap;overflow=hidden;rounded=0;fontSize=15;" parent="1" vertex="1">
          <mxGeometry x="2113" y="1282" width="329" height="436" as="geometry" />
        </mxCell>
        <mxCell id="ro2GFgqDV0QlA6Vm-lQV-1" value="&lt;font style=&quot;font-size: 20px;&quot;&gt;Описание взаимодействия с внешним платежным сервисом&lt;/font&gt;" style="text;html=1;align=center;verticalAlign=middle;whiteSpace=wrap;rounded=0;" parent="1" vertex="1">
          <mxGeometry x="2109" y="1224" width="310" height="59" as="geometry" />
        </mxCell>
        <mxCell id="ISwjRsLXD4yoOcMXPSiY-1" value="" style="group" parent="1" vertex="1" connectable="0">
          <mxGeometry x="2840" y="-410" width="260" height="39" as="geometry" />
        </mxCell>
        <mxCell id="cKbgiC5qh_IXnBO1eU4K-172" value="" style="rounded=1;whiteSpace=wrap;html=1;fillColor=#ffe6cc;strokeColor=#d79b00;" parent="ISwjRsLXD4yoOcMXPSiY-1" vertex="1">
          <mxGeometry x="10" width="250" height="39" as="geometry" />
        </mxCell>
        <mxCell id="cKbgiC5qh_IXnBO1eU4K-173" value="" style="sketch=0;outlineConnect=0;fontColor=#232F3E;gradientColor=none;fillColor=#232F3D;strokeColor=none;dashed=0;verticalLabelPosition=bottom;verticalAlign=top;align=center;html=1;fontSize=12;fontStyle=0;aspect=fixed;pointerEvents=1;shape=mxgraph.aws4.gear;rounded=1;" parent="ISwjRsLXD4yoOcMXPSiY-1" vertex="1">
          <mxGeometry x="230" y="11" width="17" height="17" as="geometry" />
        </mxCell>
        <mxCell id="cKbgiC5qh_IXnBO1eU4K-174" value="Инициировать платёж" style="text;html=1;align=center;verticalAlign=middle;whiteSpace=wrap;rounded=1;fontSize=13;" parent="ISwjRsLXD4yoOcMXPSiY-1" vertex="1">
          <mxGeometry y="4.5" width="170" height="30" as="geometry" />
        </mxCell>
        <mxCell id="ISwjRsLXD4yoOcMXPSiY-2" value="" style="group" parent="1" vertex="1" connectable="0">
          <mxGeometry x="2840" y="-360" width="260" height="39" as="geometry" />
        </mxCell>
        <mxCell id="cKbgiC5qh_IXnBO1eU4K-129" value="" style="rounded=1;whiteSpace=wrap;html=1;fillColor=#ffe6cc;strokeColor=#d79b00;" parent="ISwjRsLXD4yoOcMXPSiY-2" vertex="1">
          <mxGeometry x="10" width="250" height="39" as="geometry" />
        </mxCell>
        <mxCell id="cKbgiC5qh_IXnBO1eU4K-130" value="" style="sketch=0;outlineConnect=0;fontColor=#232F3E;gradientColor=none;fillColor=#232F3D;strokeColor=none;dashed=0;verticalLabelPosition=bottom;verticalAlign=top;align=center;html=1;fontSize=12;fontStyle=0;aspect=fixed;pointerEvents=1;shape=mxgraph.aws4.gear;rounded=1;" parent="ISwjRsLXD4yoOcMXPSiY-2" vertex="1">
          <mxGeometry x="230" y="11" width="17" height="17" as="geometry" />
        </mxCell>
        <mxCell id="cKbgiC5qh_IXnBO1eU4K-131" value="Подтвердить платёж" style="text;html=1;align=center;verticalAlign=middle;whiteSpace=wrap;rounded=1;fontSize=13;" parent="ISwjRsLXD4yoOcMXPSiY-2" vertex="1">
          <mxGeometry y="4.5" width="170" height="30" as="geometry" />
        </mxCell>
        <mxCell id="ISwjRsLXD4yoOcMXPSiY-3" value="" style="group" parent="1" vertex="1" connectable="0">
          <mxGeometry x="2850" y="-310" width="250" height="39" as="geometry" />
        </mxCell>
        <mxCell id="cKbgiC5qh_IXnBO1eU4K-132" value="" style="rounded=1;whiteSpace=wrap;html=1;fillColor=#ffe6cc;strokeColor=#d79b00;" parent="ISwjRsLXD4yoOcMXPSiY-3" vertex="1">
          <mxGeometry width="250" height="39" as="geometry" />
        </mxCell>
        <mxCell id="cKbgiC5qh_IXnBO1eU4K-133" value="" style="sketch=0;outlineConnect=0;fontColor=#232F3E;gradientColor=none;fillColor=#232F3D;strokeColor=none;dashed=0;verticalLabelPosition=bottom;verticalAlign=top;align=center;html=1;fontSize=12;fontStyle=0;aspect=fixed;pointerEvents=1;shape=mxgraph.aws4.gear;rounded=1;" parent="ISwjRsLXD4yoOcMXPSiY-3" vertex="1">
          <mxGeometry x="220" y="11" width="17" height="17" as="geometry" />
        </mxCell>
        <mxCell id="cKbgiC5qh_IXnBO1eU4K-134" value="Предоставить статус платежа" style="text;html=1;align=center;verticalAlign=middle;whiteSpace=wrap;rounded=1;fontSize=13;" parent="ISwjRsLXD4yoOcMXPSiY-3" vertex="1">
          <mxGeometry y="4.5" width="200" height="30" as="geometry" />
        </mxCell>
        <mxCell id="ISwjRsLXD4yoOcMXPSiY-4" value="" style="group" parent="1" vertex="1" connectable="0">
          <mxGeometry x="2840" y="-260" width="260" height="39" as="geometry" />
        </mxCell>
        <mxCell id="cKbgiC5qh_IXnBO1eU4K-135" value="" style="rounded=1;whiteSpace=wrap;html=1;fillColor=#ffe6cc;strokeColor=#d79b00;" parent="ISwjRsLXD4yoOcMXPSiY-4" vertex="1">
          <mxGeometry x="10" width="250" height="39" as="geometry" />
        </mxCell>
        <mxCell id="cKbgiC5qh_IXnBO1eU4K-136" value="" style="sketch=0;outlineConnect=0;fontColor=#232F3E;gradientColor=none;fillColor=#232F3D;strokeColor=none;dashed=0;verticalLabelPosition=bottom;verticalAlign=top;align=center;html=1;fontSize=12;fontStyle=0;aspect=fixed;pointerEvents=1;shape=mxgraph.aws4.gear;rounded=1;" parent="ISwjRsLXD4yoOcMXPSiY-4" vertex="1">
          <mxGeometry x="230" y="11" width="17" height="17" as="geometry" />
        </mxCell>
        <mxCell id="cKbgiC5qh_IXnBO1eU4K-137" value="Подтвердить отмену платежа" style="text;html=1;align=center;verticalAlign=middle;whiteSpace=wrap;rounded=1;fontSize=13;" parent="ISwjRsLXD4yoOcMXPSiY-4" vertex="1">
          <mxGeometry y="4.5" width="210" height="30" as="geometry" />
        </mxCell>
        <mxCell id="ISwjRsLXD4yoOcMXPSiY-11" value="" style="group" parent="1" vertex="1" connectable="0">
          <mxGeometry x="1339" y="1375" width="270" height="39" as="geometry" />
        </mxCell>
        <mxCell id="D1CTnjmkYU0Mq4A9S6dc-1" value="" style="rounded=1;whiteSpace=wrap;html=1;strokeColor=none;fillColor=#1C57CD;" parent="ISwjRsLXD4yoOcMXPSiY-11" vertex="1">
          <mxGeometry width="270" height="39" as="geometry" />
        </mxCell>
        <mxCell id="D1CTnjmkYU0Mq4A9S6dc-2" value="" style="sketch=0;outlineConnect=0;fontColor=#FFFFFF;gradientColor=none;fillColor=#FFFFFF;strokeColor=none;dashed=0;verticalLabelPosition=bottom;verticalAlign=top;align=center;html=1;fontSize=12;fontStyle=0;aspect=fixed;pointerEvents=1;shape=mxgraph.aws4.gear;rounded=1;" parent="ISwjRsLXD4yoOcMXPSiY-11" vertex="1">
          <mxGeometry x="238" y="12" width="17" height="17" as="geometry" />
        </mxCell>
        <mxCell id="D1CTnjmkYU0Mq4A9S6dc-3" value="&lt;font style=&quot;font-size: 18px;&quot;&gt;Функция&lt;/font&gt;" style="text;html=1;align=center;verticalAlign=middle;whiteSpace=wrap;rounded=1;fontSize=13;fontColor=#FFFFFF;" parent="ISwjRsLXD4yoOcMXPSiY-11" vertex="1">
          <mxGeometry x="22" y="5" width="78" height="30" as="geometry" />
        </mxCell>
        <mxCell id="ISwjRsLXD4yoOcMXPSiY-12" value="" style="group" parent="1" vertex="1" connectable="0">
          <mxGeometry x="1684" y="1309" width="157" height="25" as="geometry" />
        </mxCell>
        <mxCell id="D1CTnjmkYU0Mq4A9S6dc-12" value="&lt;p style=&quot;margin: 0px 0px 0px 13px; text-indent: -13px; font-variant-numeric: normal; font-variant-east-asian: normal; font-variant-alternates: normal; font-kerning: auto; font-optical-sizing: auto; font-feature-settings: normal; font-variation-settings: normal; font-variant-position: normal; font-stretch: normal; font-size: 14px; line-height: normal; color: rgb(14, 14, 14); text-align: start;&quot; class=&quot;p1&quot;&gt;&lt;br&gt;&lt;/p&gt;" style="rounded=1;whiteSpace=wrap;html=1;fillColor=#FF77BF;strokeColor=none;arcSize=33;" parent="ISwjRsLXD4yoOcMXPSiY-12" vertex="1">
          <mxGeometry x="3" y="1" width="151" height="24" as="geometry" />
        </mxCell>
        <mxCell id="D1CTnjmkYU0Mq4A9S6dc-13" value="&lt;span style=&quot;font-size: 18px;&quot;&gt;&lt;i&gt;Стэк/Окружение&lt;/i&gt;&lt;/span&gt;" style="text;html=1;align=center;verticalAlign=middle;whiteSpace=wrap;rounded=1;shadow=0;fontSize=23;fontStyle=1" parent="ISwjRsLXD4yoOcMXPSiY-12" vertex="1">
          <mxGeometry width="157" height="17" as="geometry" />
        </mxCell>
        <mxCell id="ISwjRsLXD4yoOcMXPSiY-13" value="" style="group" parent="1" vertex="1" connectable="0">
          <mxGeometry x="959" y="1394" width="333" height="145" as="geometry" />
        </mxCell>
        <mxCell id="D1CTnjmkYU0Mq4A9S6dc-9" value="" style="rounded=1;whiteSpace=wrap;html=1;arcSize=5;fillColor=#fff2cc;strokeColor=#d6b656;" parent="ISwjRsLXD4yoOcMXPSiY-13" vertex="1">
          <mxGeometry width="333" height="145" as="geometry" />
        </mxCell>
        <mxCell id="D1CTnjmkYU0Mq4A9S6dc-10" value="&lt;span style=&quot;font-weight: normal;&quot;&gt;Внешний/Партнёрский сервис&lt;/span&gt;" style="text;html=1;align=center;verticalAlign=middle;whiteSpace=wrap;rounded=1;shadow=0;fontSize=23;fontStyle=1" parent="ISwjRsLXD4yoOcMXPSiY-13" vertex="1">
          <mxGeometry x="2" y="1" width="331" height="49" as="geometry" />
        </mxCell>
        <mxCell id="ISwjRsLXD4yoOcMXPSiY-14" value="" style="group" parent="1" vertex="1" connectable="0">
          <mxGeometry x="963" y="1229" width="331" height="143" as="geometry" />
        </mxCell>
        <mxCell id="D1CTnjmkYU0Mq4A9S6dc-5" value="" style="rounded=1;whiteSpace=wrap;html=1;arcSize=5;fillColor=#f5f5f5;strokeColor=#1C57CD;strokeWidth=3;" parent="ISwjRsLXD4yoOcMXPSiY-14" vertex="1">
          <mxGeometry width="331" height="143" as="geometry" />
        </mxCell>
        <mxCell id="D1CTnjmkYU0Mq4A9S6dc-6" value="&lt;font style=&quot;font-size: 23px;&quot;&gt;Система/Сервис&lt;/font&gt;" style="text;html=1;align=center;verticalAlign=middle;whiteSpace=wrap;rounded=1;fontSize=13;" parent="ISwjRsLXD4yoOcMXPSiY-14" vertex="1">
          <mxGeometry x="1" y="6" width="206" height="30" as="geometry" />
        </mxCell>
        <mxCell id="fItwUCg7H84Hvmo-fhJK-9" value="" style="group;strokeColor=#FF4124;" vertex="1" connectable="0" parent="1">
          <mxGeometry x="2504" y="-114" width="308" height="120" as="geometry" />
        </mxCell>
        <mxCell id="fItwUCg7H84Hvmo-fhJK-10" value="" style="rounded=1;whiteSpace=wrap;html=1;arcSize=5;fillColor=#f5f5f5;strokeColor=#FF4124;strokeWidth=3;" vertex="1" parent="fItwUCg7H84Hvmo-fhJK-9">
          <mxGeometry width="308" height="120" as="geometry" />
        </mxCell>
        <mxCell id="fItwUCg7H84Hvmo-fhJK-11" value="&lt;span style=&quot;font-size: 23px;&quot;&gt;Микрофронтенд&lt;/span&gt;" style="text;html=1;align=center;verticalAlign=middle;whiteSpace=wrap;rounded=1;fontSize=13;" vertex="1" parent="fItwUCg7H84Hvmo-fhJK-9">
          <mxGeometry x="0.9305135951661629" y="5.034965034965035" width="191.6858006042296" height="25.174825174825173" as="geometry" />
        </mxCell>
        <mxCell id="BZBJQn5B5M7l6MrAMs_o-3" value="" style="group" parent="fItwUCg7H84Hvmo-fhJK-9" vertex="1" connectable="0">
          <mxGeometry x="9.305135951661631" y="34.4055944055944" width="287.52870090634434" height="32.72727272727273" as="geometry" />
        </mxCell>
        <mxCell id="BZBJQn5B5M7l6MrAMs_o-55" value="" style="group" parent="BZBJQn5B5M7l6MrAMs_o-3" vertex="1" connectable="0">
          <mxGeometry width="287.52870090634434" height="32.72727272727273" as="geometry" />
        </mxCell>
        <mxCell id="cKbgiC5qh_IXnBO1eU4K-181" value="" style="rounded=1;whiteSpace=wrap;html=1;fillColor=#1C57CD;strokeColor=none;" parent="BZBJQn5B5M7l6MrAMs_o-55" vertex="1">
          <mxGeometry width="287.52870090634434" height="32.72727272727273" as="geometry" />
        </mxCell>
        <mxCell id="cKbgiC5qh_IXnBO1eU4K-182" value="" style="sketch=0;outlineConnect=0;fontColor=#FFFFFF;gradientColor=none;fillColor=#FFFFFF;strokeColor=none;dashed=0;verticalLabelPosition=bottom;verticalAlign=top;align=center;html=1;fontSize=12;fontStyle=0;aspect=fixed;pointerEvents=1;shape=mxgraph.aws4.gear;rounded=1;" parent="BZBJQn5B5M7l6MrAMs_o-55" vertex="1">
          <mxGeometry x="260.54380664652564" y="9.23076923076923" width="7.830642365410332" height="7.830642365410332" as="geometry" />
        </mxCell>
        <mxCell id="cKbgiC5qh_IXnBO1eU4K-183" value="Разместить заказ" style="text;html=1;align=center;verticalAlign=middle;whiteSpace=wrap;rounded=1;fontSize=13;fontColor=#FFFFFF;" parent="BZBJQn5B5M7l6MrAMs_o-55" vertex="1">
          <mxGeometry x="13.027190332326283" y="2.5174825174825175" width="108.87009063444107" height="25.174825174825173" as="geometry" />
        </mxCell>
        <mxCell id="fItwUCg7H84Hvmo-fhJK-12" value="" style="group" vertex="1" connectable="0" parent="1">
          <mxGeometry x="1434" y="-116" width="336" height="139" as="geometry" />
        </mxCell>
        <mxCell id="fItwUCg7H84Hvmo-fhJK-13" value="" style="rounded=1;whiteSpace=wrap;html=1;arcSize=7;fillColor=#f5f5f5;strokeColor=#FF4124;strokeWidth=3;" vertex="1" parent="fItwUCg7H84Hvmo-fhJK-12">
          <mxGeometry x="5" y="4.44093220338983" width="331" height="134.55906779661018" as="geometry" />
        </mxCell>
        <mxCell id="fItwUCg7H84Hvmo-fhJK-14" value="&lt;span style=&quot;font-size: 23px;&quot;&gt;Микрофронтенд&lt;/span&gt;" style="text;html=1;align=center;verticalAlign=middle;whiteSpace=wrap;rounded=1;fontSize=13;" vertex="1" parent="fItwUCg7H84Hvmo-fhJK-12">
          <mxGeometry x="11" y="15.996170212765957" width="206" height="22.180851063829785" as="geometry" />
        </mxCell>
        <mxCell id="BZBJQn5B5M7l6MrAMs_o-4" value="" style="group" parent="fItwUCg7H84Hvmo-fhJK-12" vertex="1" connectable="0">
          <mxGeometry x="11" y="48.05851063829787" width="309" height="28.835106382978722" as="geometry" />
        </mxCell>
        <mxCell id="BZBJQn5B5M7l6MrAMs_o-56" value="" style="group" parent="BZBJQn5B5M7l6MrAMs_o-4" vertex="1" connectable="0">
          <mxGeometry width="309" height="28.835106382978722" as="geometry" />
        </mxCell>
        <mxCell id="cKbgiC5qh_IXnBO1eU4K-184" value="" style="rounded=1;whiteSpace=wrap;html=1;fillColor=#1C57CD;strokeColor=none;" parent="BZBJQn5B5M7l6MrAMs_o-56" vertex="1">
          <mxGeometry width="309" height="28.835106382978722" as="geometry" />
        </mxCell>
        <mxCell id="cKbgiC5qh_IXnBO1eU4K-185" value="" style="sketch=0;outlineConnect=0;fontColor=#FFFFFF;gradientColor=none;fillColor=#FFFFFF;strokeColor=none;dashed=0;verticalLabelPosition=bottom;verticalAlign=top;align=center;html=1;fontSize=12;fontStyle=0;aspect=fixed;pointerEvents=1;shape=mxgraph.aws4.gear;rounded=1;" parent="BZBJQn5B5M7l6MrAMs_o-56" vertex="1">
          <mxGeometry x="280" y="8.132978723404255" width="10.670212765957446" height="10.670212765957446" as="geometry" />
        </mxCell>
        <mxCell id="cKbgiC5qh_IXnBO1eU4K-186" value="Разместить услугу" style="text;html=1;align=center;verticalAlign=middle;whiteSpace=wrap;rounded=1;fontSize=13;fontColor=#FFFFFF;" parent="BZBJQn5B5M7l6MrAMs_o-56" vertex="1">
          <mxGeometry x="6" y="3.327127659574468" width="132" height="22.180851063829785" as="geometry" />
        </mxCell>
        <mxCell id="fItwUCg7H84Hvmo-fhJK-15" value="" style="group" vertex="1" connectable="0" parent="1">
          <mxGeometry x="1795" y="-111" width="331" height="143" as="geometry" />
        </mxCell>
        <mxCell id="fItwUCg7H84Hvmo-fhJK-16" value="" style="rounded=1;whiteSpace=wrap;html=1;arcSize=5;fillColor=#f5f5f5;strokeColor=#FF4124;strokeWidth=3;" vertex="1" parent="fItwUCg7H84Hvmo-fhJK-15">
          <mxGeometry x="-2" y="-1" width="331" height="143" as="geometry" />
        </mxCell>
        <mxCell id="fItwUCg7H84Hvmo-fhJK-17" value="&lt;span style=&quot;font-size: 23px;&quot;&gt;Микрофронтенд&lt;/span&gt;" style="text;html=1;align=center;verticalAlign=middle;whiteSpace=wrap;rounded=1;fontSize=13;" vertex="1" parent="fItwUCg7H84Hvmo-fhJK-15">
          <mxGeometry x="1" y="6" width="206" height="30" as="geometry" />
        </mxCell>
        <mxCell id="BZBJQn5B5M7l6MrAMs_o-5" value="" style="group" parent="fItwUCg7H84Hvmo-fhJK-15" vertex="1" connectable="0">
          <mxGeometry x="9" y="50" width="309" height="39" as="geometry" />
        </mxCell>
        <mxCell id="BZBJQn5B5M7l6MrAMs_o-57" value="" style="group" parent="BZBJQn5B5M7l6MrAMs_o-5" vertex="1" connectable="0">
          <mxGeometry width="309" height="39" as="geometry" />
        </mxCell>
        <mxCell id="cKbgiC5qh_IXnBO1eU4K-187" value="" style="rounded=1;whiteSpace=wrap;html=1;fillColor=#1C57CD;strokeColor=none;" parent="BZBJQn5B5M7l6MrAMs_o-57" vertex="1">
          <mxGeometry width="309" height="39" as="geometry" />
        </mxCell>
        <mxCell id="cKbgiC5qh_IXnBO1eU4K-188" value="" style="sketch=0;outlineConnect=0;fontColor=#FFFFFF;gradientColor=none;fillColor=#FFFFFF;strokeColor=none;dashed=0;verticalLabelPosition=bottom;verticalAlign=top;align=center;html=1;fontSize=12;fontStyle=0;aspect=fixed;pointerEvents=1;shape=mxgraph.aws4.gear;rounded=1;" parent="BZBJQn5B5M7l6MrAMs_o-57" vertex="1">
          <mxGeometry x="280" y="11" width="17" height="17" as="geometry" />
        </mxCell>
        <mxCell id="cKbgiC5qh_IXnBO1eU4K-189" value="Создать аукцион" style="text;html=1;align=center;verticalAlign=middle;whiteSpace=wrap;rounded=1;fontSize=13;fontColor=#FFFFFF;" parent="BZBJQn5B5M7l6MrAMs_o-57" vertex="1">
          <mxGeometry x="10" y="4.5" width="110" height="30" as="geometry" />
        </mxCell>
        <mxCell id="fItwUCg7H84Hvmo-fhJK-18" value="" style="group" vertex="1" connectable="0" parent="1">
          <mxGeometry x="2152" y="-115" width="331" height="143" as="geometry" />
        </mxCell>
        <mxCell id="fItwUCg7H84Hvmo-fhJK-19" value="" style="rounded=1;whiteSpace=wrap;html=1;arcSize=5;fillColor=#f5f5f5;strokeColor=#FF4124;strokeWidth=3;" vertex="1" parent="fItwUCg7H84Hvmo-fhJK-18">
          <mxGeometry x="-1" y="1" width="331" height="143" as="geometry" />
        </mxCell>
        <mxCell id="fItwUCg7H84Hvmo-fhJK-20" value="&lt;span style=&quot;font-size: 23px;&quot;&gt;Микрофронтенд&lt;/span&gt;" style="text;html=1;align=center;verticalAlign=middle;whiteSpace=wrap;rounded=1;fontSize=13;" vertex="1" parent="fItwUCg7H84Hvmo-fhJK-18">
          <mxGeometry x="1" y="6" width="206" height="30" as="geometry" />
        </mxCell>
        <mxCell id="BZBJQn5B5M7l6MrAMs_o-6" value="" style="group" parent="fItwUCg7H84Hvmo-fhJK-18" vertex="1" connectable="0">
          <mxGeometry x="10" y="51" width="309" height="39" as="geometry" />
        </mxCell>
        <mxCell id="BZBJQn5B5M7l6MrAMs_o-58" value="" style="group" parent="BZBJQn5B5M7l6MrAMs_o-6" vertex="1" connectable="0">
          <mxGeometry width="309" height="39" as="geometry" />
        </mxCell>
        <mxCell id="cKbgiC5qh_IXnBO1eU4K-190" value="" style="rounded=1;whiteSpace=wrap;html=1;fillColor=#1C57CD;strokeColor=none;" parent="BZBJQn5B5M7l6MrAMs_o-58" vertex="1">
          <mxGeometry width="309" height="39" as="geometry" />
        </mxCell>
        <mxCell id="cKbgiC5qh_IXnBO1eU4K-191" value="" style="sketch=0;outlineConnect=0;fontColor=#FFFFFF;gradientColor=none;fillColor=#FFFFFF;strokeColor=none;dashed=0;verticalLabelPosition=bottom;verticalAlign=top;align=center;html=1;fontSize=12;fontStyle=0;aspect=fixed;pointerEvents=1;shape=mxgraph.aws4.gear;rounded=1;" parent="BZBJQn5B5M7l6MrAMs_o-58" vertex="1">
          <mxGeometry x="280" y="11" width="17" height="17" as="geometry" />
        </mxCell>
        <mxCell id="cKbgiC5qh_IXnBO1eU4K-192" value="Подать заявку на аукцион" style="text;html=1;align=center;verticalAlign=middle;whiteSpace=wrap;rounded=1;fontSize=13;fontColor=#FFFFFF;" parent="BZBJQn5B5M7l6MrAMs_o-58" vertex="1">
          <mxGeometry x="10" y="4.5" width="167" height="30" as="geometry" />
        </mxCell>
        <mxCell id="fItwUCg7H84Hvmo-fhJK-1" value="" style="group" vertex="1" connectable="0" parent="1">
          <mxGeometry x="1093" y="-112.0027659574468" width="320" height="139.9627659574468" as="geometry" />
        </mxCell>
        <mxCell id="fItwUCg7H84Hvmo-fhJK-2" value="" style="rounded=1;whiteSpace=wrap;html=1;arcSize=5;fillColor=#f5f5f5;strokeColor=#FF4124;strokeWidth=3;" vertex="1" parent="fItwUCg7H84Hvmo-fhJK-1">
          <mxGeometry x="1" y="-3.127659574468085" width="320.0000000000001" height="139.9627659574468" as="geometry" />
        </mxCell>
        <mxCell id="fItwUCg7H84Hvmo-fhJK-3" value="&lt;font style=&quot;font-size: 23px;&quot;&gt;Микрофронтенд&lt;/font&gt;" style="text;html=1;align=center;verticalAlign=middle;whiteSpace=wrap;rounded=1;fontSize=13;" vertex="1" parent="fItwUCg7H84Hvmo-fhJK-1">
          <mxGeometry x="0.9667673716012086" y="5.87256360660616" width="199.15407854984898" height="29.362818033030795" as="geometry" />
        </mxCell>
        <mxCell id="BZBJQn5B5M7l6MrAMs_o-1" value="" style="group" parent="fItwUCg7H84Hvmo-fhJK-1" vertex="1" connectable="0">
          <mxGeometry x="10.634441087613297" y="44.0442270495462" width="298.73111782477343" height="38.17166344294004" as="geometry" />
        </mxCell>
        <mxCell id="BZBJQn5B5M7l6MrAMs_o-53" value="" style="group" parent="BZBJQn5B5M7l6MrAMs_o-1" vertex="1" connectable="0">
          <mxGeometry width="298.73111782477343" height="38.17166344294004" as="geometry" />
        </mxCell>
        <mxCell id="cKbgiC5qh_IXnBO1eU4K-175" value="" style="rounded=1;whiteSpace=wrap;html=1;fillColor=#1C57CD;strokeColor=none;" parent="BZBJQn5B5M7l6MrAMs_o-53" vertex="1">
          <mxGeometry width="298.73111782477343" height="38.17166344294004" as="geometry" />
        </mxCell>
        <mxCell id="cKbgiC5qh_IXnBO1eU4K-176" value="" style="sketch=0;outlineConnect=0;fontColor=#FFFFFF;gradientColor=none;fillColor=#FFFFFF;strokeColor=none;dashed=0;verticalLabelPosition=bottom;verticalAlign=top;align=center;html=1;fontSize=12;fontStyle=0;aspect=fixed;pointerEvents=1;shape=mxgraph.aws4.gear;rounded=1;" parent="BZBJQn5B5M7l6MrAMs_o-53" vertex="1">
          <mxGeometry x="270.69486404833845" y="10.766366612111293" width="11.846837436523755" height="11.846837436523755" as="geometry" />
        </mxCell>
        <mxCell id="cKbgiC5qh_IXnBO1eU4K-177" value="Зарегистрироваться на площадке" style="text;html=1;align=center;verticalAlign=middle;whiteSpace=wrap;rounded=1;fontSize=13;fontColor=#FFFFFF;" parent="BZBJQn5B5M7l6MrAMs_o-53" vertex="1">
          <mxGeometry x="8.700906344410878" y="4.40442270495462" width="210.7552870090635" height="29.3628180330308" as="geometry" />
        </mxCell>
        <mxCell id="BZBJQn5B5M7l6MrAMs_o-2" value="" style="group" parent="fItwUCg7H84Hvmo-fhJK-1" vertex="1" connectable="0">
          <mxGeometry x="10.847457627118644" y="89.1461170212766" width="297.22033898305085" height="32.840425531914896" as="geometry" />
        </mxCell>
        <mxCell id="BZBJQn5B5M7l6MrAMs_o-54" value="" style="group" parent="BZBJQn5B5M7l6MrAMs_o-2" vertex="1" connectable="0">
          <mxGeometry width="297.22033898305085" height="32.840425531914896" as="geometry" />
        </mxCell>
        <mxCell id="cKbgiC5qh_IXnBO1eU4K-178" value="" style="rounded=1;whiteSpace=wrap;html=1;fillColor=#1C57CD;strokeColor=none;" parent="BZBJQn5B5M7l6MrAMs_o-54" vertex="1">
          <mxGeometry width="297.22033898305085" height="32.840425531914896" as="geometry" />
        </mxCell>
        <mxCell id="cKbgiC5qh_IXnBO1eU4K-179" value="" style="sketch=0;outlineConnect=0;fontColor=#FFFFFF;gradientColor=none;fillColor=#FFFFFF;strokeColor=none;dashed=0;verticalLabelPosition=bottom;verticalAlign=top;align=center;html=1;fontSize=12;fontStyle=0;aspect=fixed;pointerEvents=1;shape=mxgraph.aws4.gear;rounded=1;" parent="BZBJQn5B5M7l6MrAMs_o-54" vertex="1">
          <mxGeometry x="269.32587351214966" y="9.262684124386254" width="11.786924189217105" height="11.786924189217105" as="geometry" />
        </mxCell>
        <mxCell id="cKbgiC5qh_IXnBO1eU4K-180" value="Редактировать профиль" style="text;html=1;align=center;verticalAlign=middle;whiteSpace=wrap;rounded=1;fontSize=13;fontColor=#FFFFFF;" parent="BZBJQn5B5M7l6MrAMs_o-54" vertex="1">
          <mxGeometry x="7.69502495748999" y="3.7892798690671032" width="157.74801162854476" height="25.26186579378069" as="geometry" />
        </mxCell>
        <mxCell id="fItwUCg7H84Hvmo-fhJK-74" value="" style="rounded=1;whiteSpace=wrap;html=1;arcSize=3;movable=1;resizable=1;rotatable=1;deletable=1;editable=1;locked=0;connectable=1;fillColor=#f5f5f5;strokeColor=#1C57CD;strokeWidth=3;fontColor=#333333;" vertex="1" parent="1">
          <mxGeometry x="1287" y="88" width="2147" height="1101" as="geometry" />
        </mxCell>
        <mxCell id="aNh6FEuhw9lsT8rE3H5J-66" value="1" style="ellipse;whiteSpace=wrap;html=1;aspect=fixed;rounded=1;fillColor=#FF77BF;rotation=0;direction=south;" parent="1" vertex="1">
          <mxGeometry x="2943" y="184" width="29.83" height="29.83" as="geometry" />
        </mxCell>
        <mxCell id="cKbgiC5qh_IXnBO1eU4K-139" value="3" style="ellipse;whiteSpace=wrap;html=1;aspect=fixed;rounded=1;fillColor=#ff77bf;" parent="1" vertex="1">
          <mxGeometry x="3193" y="183" width="30" height="30" as="geometry" />
        </mxCell>
        <mxCell id="fItwUCg7H84Hvmo-fhJK-114" value="&lt;font style=&quot;font-size: 18px;&quot;&gt;API Gateway&lt;/font&gt;" style="rounded=1;whiteSpace=wrap;html=1;arcSize=3;movable=1;resizable=1;rotatable=1;deletable=1;editable=1;locked=0;connectable=1;fillColor=#f5f5f5;strokeColor=#FF4124;strokeWidth=3;fontColor=#333333;" vertex="1" parent="1">
          <mxGeometry x="1304" y="146" width="1031" height="44" as="geometry" />
        </mxCell>
        <mxCell id="fItwUCg7H84Hvmo-fhJK-262" value="Система управления торговыми площадками" style="text;html=1;align=center;verticalAlign=middle;whiteSpace=wrap;rounded=1;shadow=0;fontSize=23;fontStyle=1" vertex="1" parent="1">
          <mxGeometry x="1852" y="107" width="549" height="26" as="geometry" />
        </mxCell>
        <mxCell id="fItwUCg7H84Hvmo-fhJK-264" value="" style="group" vertex="1" connectable="0" parent="1">
          <mxGeometry x="1346" y="271" width="305" height="259" as="geometry" />
        </mxCell>
        <mxCell id="fItwUCg7H84Hvmo-fhJK-265" value="" style="rounded=1;whiteSpace=wrap;html=1;arcSize=5;fillColor=#f5f5f5;strokeColor=#FF4124;strokeWidth=3;" vertex="1" parent="fItwUCg7H84Hvmo-fhJK-264">
          <mxGeometry width="305" height="252.4430379746835" as="geometry" />
        </mxCell>
        <mxCell id="fItwUCg7H84Hvmo-fhJK-266" value="&lt;font style=&quot;font-size: 23px;&quot;&gt;Микросервис-админка&lt;/font&gt;" style="text;html=1;align=center;verticalAlign=middle;whiteSpace=wrap;rounded=1;fontSize=13;" vertex="1" parent="fItwUCg7H84Hvmo-fhJK-264">
          <mxGeometry x="10" y="9.253512658227846" width="259.08" height="20.252816455696202" as="geometry" />
        </mxCell>
        <mxCell id="fItwUCg7H84Hvmo-fhJK-267" value="" style="group" vertex="1" connectable="0" parent="fItwUCg7H84Hvmo-fhJK-264">
          <mxGeometry x="14" y="39" width="270" height="39" as="geometry" />
        </mxCell>
        <mxCell id="fItwUCg7H84Hvmo-fhJK-268" value="" style="rounded=1;whiteSpace=wrap;html=1;strokeColor=#FF4124;fillColor=#1C57CD;" vertex="1" parent="fItwUCg7H84Hvmo-fhJK-267">
          <mxGeometry width="270" height="39" as="geometry" />
        </mxCell>
        <mxCell id="fItwUCg7H84Hvmo-fhJK-269" value="" style="sketch=0;outlineConnect=0;fontColor=#FFFFFF;gradientColor=none;fillColor=#FFFFFF;strokeColor=none;dashed=0;verticalLabelPosition=bottom;verticalAlign=top;align=center;html=1;fontSize=12;fontStyle=0;aspect=fixed;pointerEvents=1;shape=mxgraph.aws4.gear;rounded=1;" vertex="1" parent="fItwUCg7H84Hvmo-fhJK-267">
          <mxGeometry x="238" y="12" width="17" height="17" as="geometry" />
        </mxCell>
        <mxCell id="fItwUCg7H84Hvmo-fhJK-270" value="&lt;font style=&quot;font-size: 14px;&quot;&gt;Валидировать заявку&lt;/font&gt;" style="text;html=1;align=center;verticalAlign=middle;whiteSpace=wrap;rounded=1;fontSize=13;fontColor=#FFFFFF;" vertex="1" parent="fItwUCg7H84Hvmo-fhJK-267">
          <mxGeometry x="13" y="4" width="153" height="30" as="geometry" />
        </mxCell>
        <mxCell id="fItwUCg7H84Hvmo-fhJK-271" value="" style="group" vertex="1" connectable="0" parent="fItwUCg7H84Hvmo-fhJK-264">
          <mxGeometry x="15" y="81" width="270" height="39" as="geometry" />
        </mxCell>
        <mxCell id="fItwUCg7H84Hvmo-fhJK-272" value="" style="rounded=1;whiteSpace=wrap;html=1;fillColor=#1C57CD;strokeColor=none;" vertex="1" parent="fItwUCg7H84Hvmo-fhJK-271">
          <mxGeometry width="270" height="39" as="geometry" />
        </mxCell>
        <mxCell id="fItwUCg7H84Hvmo-fhJK-273" value="" style="sketch=0;outlineConnect=0;fontColor=#232F3E;gradientColor=none;fillColor=#FFFFFF;strokeColor=none;dashed=0;verticalLabelPosition=bottom;verticalAlign=top;align=center;html=1;fontSize=12;fontStyle=0;aspect=fixed;pointerEvents=1;shape=mxgraph.aws4.gear;rounded=1;" vertex="1" parent="fItwUCg7H84Hvmo-fhJK-271">
          <mxGeometry x="249.9029126213592" y="11" width="14.854368932038835" height="14.854368932038835" as="geometry" />
        </mxCell>
        <mxCell id="fItwUCg7H84Hvmo-fhJK-274" value="Сгенерировать отчёт по продажам" style="text;html=1;align=center;verticalAlign=middle;whiteSpace=wrap;rounded=1;fontSize=13;fontColor=#FFFFFF;strokeColor=none;" vertex="1" parent="fItwUCg7H84Hvmo-fhJK-271">
          <mxGeometry x="5.242718446601941" y="4.5" width="197.4757281553398" height="30" as="geometry" />
        </mxCell>
        <mxCell id="fItwUCg7H84Hvmo-fhJK-275" value="" style="group" vertex="1" connectable="0" parent="fItwUCg7H84Hvmo-fhJK-264">
          <mxGeometry x="17" y="122" width="267" height="39" as="geometry" />
        </mxCell>
        <mxCell id="fItwUCg7H84Hvmo-fhJK-276" value="" style="rounded=1;whiteSpace=wrap;html=1;fillColor=#1C57CD;strokeColor=none;" vertex="1" parent="fItwUCg7H84Hvmo-fhJK-275">
          <mxGeometry width="267" height="39" as="geometry" />
        </mxCell>
        <mxCell id="fItwUCg7H84Hvmo-fhJK-277" value="" style="sketch=0;outlineConnect=0;fontColor=#232F3E;gradientColor=none;fillColor=#FFFFFF;strokeColor=none;dashed=0;verticalLabelPosition=bottom;verticalAlign=top;align=center;html=1;fontSize=12;fontStyle=0;aspect=fixed;pointerEvents=1;shape=mxgraph.aws4.gear;rounded=1;" vertex="1" parent="fItwUCg7H84Hvmo-fhJK-275">
          <mxGeometry x="247.126213592233" y="11" width="14.689320388349513" height="14.689320388349513" as="geometry" />
        </mxCell>
        <mxCell id="fItwUCg7H84Hvmo-fhJK-278" value="Отобразить статистику заказов" style="text;html=1;align=center;verticalAlign=middle;whiteSpace=wrap;rounded=1;fontSize=13;fontColor=#FFFFFF;strokeColor=none;" vertex="1" parent="fItwUCg7H84Hvmo-fhJK-275">
          <mxGeometry x="5.616504854368932" y="4.5" width="174.54368932038835" height="30" as="geometry" />
        </mxCell>
        <mxCell id="fItwUCg7H84Hvmo-fhJK-279" value="" style="group" vertex="1" connectable="0" parent="fItwUCg7H84Hvmo-fhJK-264">
          <mxGeometry x="18" y="164" width="266" height="39" as="geometry" />
        </mxCell>
        <mxCell id="fItwUCg7H84Hvmo-fhJK-280" value="" style="rounded=1;whiteSpace=wrap;html=1;fillColor=#1C57CD;strokeColor=none;" vertex="1" parent="fItwUCg7H84Hvmo-fhJK-279">
          <mxGeometry width="266" height="39" as="geometry" />
        </mxCell>
        <mxCell id="fItwUCg7H84Hvmo-fhJK-281" value="" style="sketch=0;outlineConnect=0;fontColor=#232F3E;gradientColor=none;fillColor=#FFFFFF;strokeColor=none;dashed=0;verticalLabelPosition=bottom;verticalAlign=top;align=center;html=1;fontSize=12;fontStyle=0;aspect=fixed;pointerEvents=1;shape=mxgraph.aws4.gear;rounded=1;" vertex="1" parent="fItwUCg7H84Hvmo-fhJK-279">
          <mxGeometry x="241.03559870550163" y="11" width="14.63430420711974" height="14.63430420711974" as="geometry" />
        </mxCell>
        <mxCell id="fItwUCg7H84Hvmo-fhJK-282" value="Сгенерировать отчёт активности пользователей" style="text;html=1;align=center;verticalAlign=middle;whiteSpace=wrap;rounded=1;fontSize=13;fontColor=#FFFFFF;strokeColor=none;" vertex="1" parent="fItwUCg7H84Hvmo-fhJK-279">
          <mxGeometry x="4.3042071197411005" y="6" width="185.0809061488673" height="30" as="geometry" />
        </mxCell>
        <mxCell id="fItwUCg7H84Hvmo-fhJK-283" value="" style="group" vertex="1" connectable="0" parent="fItwUCg7H84Hvmo-fhJK-264">
          <mxGeometry x="19" y="206" width="268" height="39" as="geometry" />
        </mxCell>
        <mxCell id="fItwUCg7H84Hvmo-fhJK-284" value="" style="rounded=1;whiteSpace=wrap;html=1;fillColor=#1C57CD;strokeColor=none;" vertex="1" parent="fItwUCg7H84Hvmo-fhJK-283">
          <mxGeometry width="268" height="39" as="geometry" />
        </mxCell>
        <mxCell id="fItwUCg7H84Hvmo-fhJK-285" value="" style="sketch=0;outlineConnect=0;fontColor=#232F3E;gradientColor=none;fillColor=default;strokeColor=none;dashed=0;verticalLabelPosition=bottom;verticalAlign=top;align=center;html=1;fontSize=12;fontStyle=0;aspect=fixed;pointerEvents=1;shape=mxgraph.aws4.gear;rounded=1;" vertex="1" parent="fItwUCg7H84Hvmo-fhJK-283">
          <mxGeometry x="242.84789644012946" y="11" width="14.74433656957929" height="14.74433656957929" as="geometry" />
        </mxCell>
        <mxCell id="fItwUCg7H84Hvmo-fhJK-286" value="Присвоение ролей" style="text;html=1;align=center;verticalAlign=middle;whiteSpace=wrap;rounded=1;fontSize=13;fontColor=#FFFFFF;strokeColor=none;" vertex="1" parent="fItwUCg7H84Hvmo-fhJK-283">
          <mxGeometry x="2.6019417475728157" y="5" width="105.81229773462783" height="30" as="geometry" />
        </mxCell>
        <mxCell id="fItwUCg7H84Hvmo-fhJK-287" value="" style="group" vertex="1" connectable="0" parent="1">
          <mxGeometry x="1307" y="549" width="467" height="303" as="geometry" />
        </mxCell>
        <mxCell id="fItwUCg7H84Hvmo-fhJK-288" value="" style="rounded=1;whiteSpace=wrap;html=1;arcSize=5;fillColor=#f5f5f5;strokeColor=#FF4124;strokeWidth=3;" vertex="1" parent="fItwUCg7H84Hvmo-fhJK-287">
          <mxGeometry width="466.99999999999994" height="299.22429906542055" as="geometry" />
        </mxCell>
        <mxCell id="fItwUCg7H84Hvmo-fhJK-289" value="&lt;font style=&quot;font-size: 23px;&quot;&gt;Микросервис-техподдержка&lt;/font&gt;" style="text;html=1;align=center;verticalAlign=middle;whiteSpace=wrap;rounded=1;fontSize=13;" vertex="1" parent="fItwUCg7H84Hvmo-fhJK-287">
          <mxGeometry x="1.4100974025974027" y="5.356226907194089" width="456.49249999999995" height="15.645450988915453" as="geometry" />
        </mxCell>
        <mxCell id="fItwUCg7H84Hvmo-fhJK-290" value="" style="group" vertex="1" connectable="0" parent="fItwUCg7H84Hvmo-fhJK-287">
          <mxGeometry x="11" y="39" width="272" height="39" as="geometry" />
        </mxCell>
        <mxCell id="fItwUCg7H84Hvmo-fhJK-291" value="" style="rounded=1;whiteSpace=wrap;html=1;fillColor=#1C57CD;strokeColor=none;" vertex="1" parent="fItwUCg7H84Hvmo-fhJK-290">
          <mxGeometry width="272" height="39" as="geometry" />
        </mxCell>
        <mxCell id="fItwUCg7H84Hvmo-fhJK-292" value="" style="sketch=0;outlineConnect=0;fontColor=#232F3E;gradientColor=none;fillColor=#FFFFFF;strokeColor=none;dashed=0;verticalLabelPosition=bottom;verticalAlign=top;align=center;html=1;fontSize=12;fontStyle=0;aspect=fixed;pointerEvents=1;shape=mxgraph.aws4.gear;rounded=1;" vertex="1" parent="fItwUCg7H84Hvmo-fhJK-290">
          <mxGeometry x="246.4724919093851" y="11" width="14.964401294498382" height="14.964401294498382" as="geometry" />
        </mxCell>
        <mxCell id="fItwUCg7H84Hvmo-fhJK-293" value="Создать заявку на техподдержку" style="text;html=1;align=center;verticalAlign=middle;whiteSpace=wrap;rounded=1;fontSize=13;fontColor=#FFFFFF;strokeColor=none;" vertex="1" parent="fItwUCg7H84Hvmo-fhJK-290">
          <mxGeometry y="4.5" width="202.45954692556634" height="30" as="geometry" />
        </mxCell>
        <mxCell id="fItwUCg7H84Hvmo-fhJK-294" value="" style="group" vertex="1" connectable="0" parent="fItwUCg7H84Hvmo-fhJK-287">
          <mxGeometry x="11" y="80" width="269" height="39" as="geometry" />
        </mxCell>
        <mxCell id="fItwUCg7H84Hvmo-fhJK-295" value="" style="rounded=1;whiteSpace=wrap;html=1;fillColor=#1C57CD;strokeColor=none;" vertex="1" parent="fItwUCg7H84Hvmo-fhJK-294">
          <mxGeometry width="269" height="39" as="geometry" />
        </mxCell>
        <mxCell id="fItwUCg7H84Hvmo-fhJK-296" value="" style="sketch=0;outlineConnect=0;fontColor=#232F3E;gradientColor=none;fillColor=#FFFFFF;strokeColor=none;dashed=0;verticalLabelPosition=bottom;verticalAlign=top;align=center;html=1;fontSize=12;fontStyle=0;aspect=fixed;pointerEvents=1;shape=mxgraph.aws4.gear;rounded=1;" vertex="1" parent="fItwUCg7H84Hvmo-fhJK-294">
          <mxGeometry x="243.7540453074434" y="11" width="14.799352750809064" height="14.799352750809064" as="geometry" />
        </mxCell>
        <mxCell id="fItwUCg7H84Hvmo-fhJK-297" value="Регистрация заявки на техподдержку" style="text;html=1;align=center;verticalAlign=middle;whiteSpace=wrap;rounded=1;fontSize=13;fontColor=#FFFFFF;strokeColor=none;" vertex="1" parent="fItwUCg7H84Hvmo-fhJK-294">
          <mxGeometry x="3.4822006472491913" y="4.5" width="216.76699029126218" height="30" as="geometry" />
        </mxCell>
        <mxCell id="fItwUCg7H84Hvmo-fhJK-298" value="" style="group" vertex="1" connectable="0" parent="fItwUCg7H84Hvmo-fhJK-287">
          <mxGeometry x="11" y="121" width="265" height="39" as="geometry" />
        </mxCell>
        <mxCell id="fItwUCg7H84Hvmo-fhJK-299" value="" style="rounded=1;whiteSpace=wrap;html=1;fillColor=#1C57CD;strokeColor=none;" vertex="1" parent="fItwUCg7H84Hvmo-fhJK-298">
          <mxGeometry width="265" height="39" as="geometry" />
        </mxCell>
        <mxCell id="fItwUCg7H84Hvmo-fhJK-300" value="" style="sketch=0;outlineConnect=0;fontColor=#232F3E;gradientColor=none;fillColor=#FFFFFF;strokeColor=none;dashed=0;verticalLabelPosition=bottom;verticalAlign=top;align=center;html=1;fontSize=12;fontStyle=0;aspect=fixed;pointerEvents=1;shape=mxgraph.aws4.gear;rounded=1;" vertex="1" parent="fItwUCg7H84Hvmo-fhJK-298">
          <mxGeometry x="240.12944983818767" y="11" width="14.579288025889966" height="14.579288025889966" as="geometry" />
        </mxCell>
        <mxCell id="fItwUCg7H84Hvmo-fhJK-301" value="Обновление статуса заявки" style="text;html=1;align=center;verticalAlign=middle;whiteSpace=wrap;rounded=1;fontSize=13;fontColor=#FFFFFF;strokeColor=none;" vertex="1" parent="fItwUCg7H84Hvmo-fhJK-298">
          <mxGeometry x="6.860841423948219" y="4" width="150.93851132686083" height="30" as="geometry" />
        </mxCell>
        <mxCell id="fItwUCg7H84Hvmo-fhJK-302" value="" style="group" vertex="1" connectable="0" parent="fItwUCg7H84Hvmo-fhJK-287">
          <mxGeometry x="11" y="162" width="265" height="39" as="geometry" />
        </mxCell>
        <mxCell id="fItwUCg7H84Hvmo-fhJK-303" value="" style="rounded=1;whiteSpace=wrap;html=1;fillColor=#1C57CD;strokeColor=none;" vertex="1" parent="fItwUCg7H84Hvmo-fhJK-302">
          <mxGeometry width="265" height="39" as="geometry" />
        </mxCell>
        <mxCell id="fItwUCg7H84Hvmo-fhJK-304" value="" style="sketch=0;outlineConnect=0;fontColor=#232F3E;gradientColor=none;fillColor=#FFFFFF;strokeColor=none;dashed=0;verticalLabelPosition=bottom;verticalAlign=top;align=center;html=1;fontSize=12;fontStyle=0;aspect=fixed;pointerEvents=1;shape=mxgraph.aws4.gear;rounded=1;" vertex="1" parent="fItwUCg7H84Hvmo-fhJK-302">
          <mxGeometry x="240.1294498381877" y="11" width="14.579288025889968" height="14.579288025889968" as="geometry" />
        </mxCell>
        <mxCell id="fItwUCg7H84Hvmo-fhJK-305" value="Создать заявку на апелляцию&amp;nbsp;" style="text;html=1;align=center;verticalAlign=middle;whiteSpace=wrap;rounded=1;fontSize=13;fontColor=#FFFFFF;strokeColor=none;" vertex="1" parent="fItwUCg7H84Hvmo-fhJK-302">
          <mxGeometry x="3.43042071197411" y="4.5" width="173.23624595469255" height="30" as="geometry" />
        </mxCell>
        <mxCell id="fItwUCg7H84Hvmo-fhJK-306" value="" style="group" vertex="1" connectable="0" parent="fItwUCg7H84Hvmo-fhJK-287">
          <mxGeometry x="10" y="203" width="263" height="39" as="geometry" />
        </mxCell>
        <mxCell id="fItwUCg7H84Hvmo-fhJK-307" value="" style="rounded=1;whiteSpace=wrap;html=1;fillColor=#1C57CD;strokeColor=none;" vertex="1" parent="fItwUCg7H84Hvmo-fhJK-306">
          <mxGeometry width="263" height="39" as="geometry" />
        </mxCell>
        <mxCell id="fItwUCg7H84Hvmo-fhJK-308" value="" style="sketch=0;outlineConnect=0;fontColor=#232F3E;gradientColor=none;fillColor=#FFFFFF;strokeColor=none;dashed=0;verticalLabelPosition=bottom;verticalAlign=top;align=center;html=1;fontSize=12;fontStyle=0;aspect=fixed;pointerEvents=1;shape=mxgraph.aws4.gear;rounded=1;" vertex="1" parent="fItwUCg7H84Hvmo-fhJK-306">
          <mxGeometry x="238.31715210355986" y="11" width="14.46925566343042" height="14.46925566343042" as="geometry" />
        </mxCell>
        <mxCell id="fItwUCg7H84Hvmo-fhJK-309" value="Регистрация заявки на апелляцию" style="text;html=1;align=center;verticalAlign=middle;whiteSpace=wrap;rounded=1;fontSize=13;fontColor=#FFFFFF;strokeColor=none;" vertex="1" parent="fItwUCg7H84Hvmo-fhJK-306">
          <mxGeometry x="0.8511326860841424" y="4.5" width="193.2071197411003" height="30" as="geometry" />
        </mxCell>
        <mxCell id="fItwUCg7H84Hvmo-fhJK-310" value="" style="group" vertex="1" connectable="0" parent="fItwUCg7H84Hvmo-fhJK-287">
          <mxGeometry x="9" y="244" width="265" height="39" as="geometry" />
        </mxCell>
        <mxCell id="fItwUCg7H84Hvmo-fhJK-311" value="" style="rounded=1;whiteSpace=wrap;html=1;fillColor=#1C57CD;strokeColor=none;" vertex="1" parent="fItwUCg7H84Hvmo-fhJK-310">
          <mxGeometry width="265" height="39" as="geometry" />
        </mxCell>
        <mxCell id="fItwUCg7H84Hvmo-fhJK-312" value="" style="sketch=0;outlineConnect=0;fontColor=#232F3E;gradientColor=none;fillColor=#FFFFFF;strokeColor=none;dashed=0;verticalLabelPosition=bottom;verticalAlign=top;align=center;html=1;fontSize=12;fontStyle=0;aspect=fixed;pointerEvents=1;shape=mxgraph.aws4.gear;rounded=1;" vertex="1" parent="fItwUCg7H84Hvmo-fhJK-310">
          <mxGeometry x="240.12944983818772" y="11" width="14.579288025889968" height="14.579288025889968" as="geometry" />
        </mxCell>
        <mxCell id="fItwUCg7H84Hvmo-fhJK-313" value="Обновить статус заявки на апелляцию" style="text;html=1;align=center;verticalAlign=middle;whiteSpace=wrap;rounded=1;fontSize=13;fontColor=#FFFFFF;strokeColor=none;" vertex="1" parent="fItwUCg7H84Hvmo-fhJK-310">
          <mxGeometry x="2.5728155339805827" y="4.5" width="214.4012944983819" height="30" as="geometry" />
        </mxCell>
        <mxCell id="fItwUCg7H84Hvmo-fhJK-314" value="" style="strokeWidth=2;html=1;shape=mxgraph.flowchart.database;whiteSpace=wrap;rounded=1;movable=1;resizable=1;rotatable=1;deletable=1;editable=1;locked=0;connectable=1;container=1;" vertex="1" parent="fItwUCg7H84Hvmo-fhJK-287">
          <mxGeometry x="314" y="65" width="124" height="159" as="geometry" />
        </mxCell>
        <mxCell id="fItwUCg7H84Hvmo-fhJK-315" value="" style="group" vertex="1" connectable="0" parent="fItwUCg7H84Hvmo-fhJK-314">
          <mxGeometry x="14.51046677935249" y="6.710065418452514" width="93.8262904693798" height="33.35664335664337" as="geometry" />
        </mxCell>
        <mxCell id="fItwUCg7H84Hvmo-fhJK-316" value="&lt;p style=&quot;margin: 0px 0px 0px 13px; text-indent: -13px; font-variant-numeric: normal; font-variant-east-asian: normal; font-variant-alternates: normal; font-kerning: auto; font-optical-sizing: auto; font-feature-settings: normal; font-variation-settings: normal; font-variant-position: normal; font-stretch: normal; font-size: 14px; line-height: normal; color: rgb(14, 14, 14); text-align: start;&quot; class=&quot;p1&quot;&gt;&lt;br&gt;&lt;/p&gt;" style="rounded=1;whiteSpace=wrap;html=1;fillColor=#FF77BF;strokeColor=none;arcSize=50;" vertex="1" parent="fItwUCg7H84Hvmo-fhJK-315">
          <mxGeometry y="6.126730412444699" width="93.82629046937981" height="22.4646781789639" as="geometry" />
        </mxCell>
        <mxCell id="fItwUCg7H84Hvmo-fhJK-317" value="&lt;font style=&quot;font-size: 18px;&quot;&gt;&lt;i&gt;PostgreSQL&lt;/i&gt;&lt;/font&gt;" style="text;html=1;align=center;verticalAlign=middle;whiteSpace=wrap;rounded=1;shadow=0;fontSize=23;fontStyle=1" vertex="1" parent="fItwUCg7H84Hvmo-fhJK-315">
          <mxGeometry x="19.262351023515055" width="55.301588422349674" height="33.35664335664337" as="geometry" />
        </mxCell>
        <mxCell id="fItwUCg7H84Hvmo-fhJK-318" style="edgeStyle=orthogonalEdgeStyle;rounded=0;orthogonalLoop=1;jettySize=auto;html=1;exitX=0.5;exitY=1;exitDx=0;exitDy=0;" edge="1" parent="fItwUCg7H84Hvmo-fhJK-314">
          <mxGeometry relative="1" as="geometry">
            <mxPoint x="61.83474190612399" y="73.4075443607197" as="sourcePoint" />
            <mxPoint x="61.83474190612399" y="73.4075443607197" as="targetPoint" />
          </mxGeometry>
        </mxCell>
        <mxCell id="fItwUCg7H84Hvmo-fhJK-319" style="edgeStyle=orthogonalEdgeStyle;rounded=0;orthogonalLoop=1;jettySize=auto;html=1;exitX=0.5;exitY=1;exitDx=0;exitDy=0;" edge="1" parent="fItwUCg7H84Hvmo-fhJK-314">
          <mxGeometry relative="1" as="geometry">
            <mxPoint x="51.66129241971138" y="87.28042963053008" as="sourcePoint" />
            <mxPoint x="51.66129241971138" y="87.28042963053008" as="targetPoint" />
          </mxGeometry>
        </mxCell>
        <mxCell id="fItwUCg7H84Hvmo-fhJK-320" value="&lt;p style=&quot;margin: 0px 0px 0px 13px; text-indent: -13px; font-variant-numeric: normal; font-variant-east-asian: normal; font-variant-alternates: normal; font-kerning: auto; font-optical-sizing: auto; font-feature-settings: normal; font-variation-settings: normal; font-variant-position: normal; font-stretch: normal; line-height: normal; color: rgb(14, 14, 14); text-align: start;&quot; class=&quot;p1&quot;&gt;&lt;span style=&quot;color: rgb(0, 117, 117); text-align: center; text-indent: 0px;&quot;&gt;[Заявка.ID]&lt;/span&gt;&lt;br&gt;&lt;/p&gt;" style="rounded=1;whiteSpace=wrap;html=1;fillColor=#b1ddf0;strokeColor=#FF4124;" vertex="1" parent="fItwUCg7H84Hvmo-fhJK-314">
          <mxGeometry x="8" y="59" width="89" height="23" as="geometry" />
        </mxCell>
        <mxCell id="fItwUCg7H84Hvmo-fhJK-321" value="&lt;p style=&quot;margin: 0px 0px 0px 13px; text-indent: -13px; font-variant-numeric: normal; font-variant-east-asian: normal; font-variant-alternates: normal; font-kerning: auto; font-optical-sizing: auto; font-feature-settings: normal; font-variation-settings: normal; font-variant-position: normal; font-stretch: normal; line-height: normal; color: rgb(14, 14, 14); text-align: start;&quot; class=&quot;p1&quot;&gt;&lt;span style=&quot;color: rgb(0, 117, 117); text-align: center; text-indent: 0px;&quot;&gt;[Пользователь.ID]&lt;/span&gt;&lt;br&gt;&lt;/p&gt;" style="rounded=1;whiteSpace=wrap;html=1;fillColor=#b1ddf0;strokeColor=#FF4124;" vertex="1" parent="fItwUCg7H84Hvmo-fhJK-314">
          <mxGeometry x="7" y="84" width="110" height="21" as="geometry" />
        </mxCell>
        <mxCell id="fItwUCg7H84Hvmo-fhJK-322" value="&lt;p style=&quot;margin: 0px 0px 0px 13px; text-indent: -13px; font-variant-numeric: normal; font-variant-east-asian: normal; font-variant-alternates: normal; font-kerning: auto; font-optical-sizing: auto; font-feature-settings: normal; font-variation-settings: normal; font-variant-position: normal; font-stretch: normal; line-height: normal; color: rgb(14, 14, 14); text-align: start;&quot; class=&quot;p1&quot;&gt;&lt;span style=&quot;color: rgb(0, 117, 117); text-align: center; text-indent: 0px;&quot;&gt;[Заявка.Статус&lt;/span&gt;&lt;span style=&quot;color: rgb(0, 117, 117); text-align: center; text-indent: 0px; background-color: initial;&quot;&gt;]&lt;/span&gt;&lt;/p&gt;" style="rounded=1;whiteSpace=wrap;html=1;fillColor=#b1ddf0;strokeColor=#FF4124;" vertex="1" parent="fItwUCg7H84Hvmo-fhJK-314">
          <mxGeometry x="7" y="110" width="96" height="21" as="geometry" />
        </mxCell>
        <mxCell id="fItwUCg7H84Hvmo-fhJK-323" value="" style="group;strokeColor=#FF4124;" vertex="1" connectable="0" parent="1">
          <mxGeometry x="2846" y="214" width="578" height="399" as="geometry" />
        </mxCell>
        <mxCell id="fItwUCg7H84Hvmo-fhJK-324" value="" style="rounded=1;whiteSpace=wrap;html=1;arcSize=5;fillColor=#f5f5f5;strokeColor=#FF4124;strokeWidth=3;" vertex="1" parent="fItwUCg7H84Hvmo-fhJK-323">
          <mxGeometry width="578" height="394.73262032085563" as="geometry" />
        </mxCell>
        <mxCell id="fItwUCg7H84Hvmo-fhJK-325" value="&lt;font style=&quot;font-size: 23px;&quot;&gt;Микросервис-платеж&lt;/font&gt;" style="text;html=1;align=center;verticalAlign=middle;whiteSpace=wrap;rounded=1;fontSize=13;" vertex="1" parent="fItwUCg7H84Hvmo-fhJK-323">
          <mxGeometry x="22.700906344410875" y="10.956521739130435" width="515.1359516616313" height="35.72739130434782" as="geometry" />
        </mxCell>
        <mxCell id="fItwUCg7H84Hvmo-fhJK-326" value="" style="group" vertex="1" connectable="0" parent="fItwUCg7H84Hvmo-fhJK-323">
          <mxGeometry x="21.029999999999745" y="52.99850267379679" width="348.54" height="38.34385026737967" as="geometry" />
        </mxCell>
        <mxCell id="fItwUCg7H84Hvmo-fhJK-327" value="" style="rounded=1;whiteSpace=wrap;html=1;fillColor=#1C57CD;strokeColor=none;" vertex="1" parent="fItwUCg7H84Hvmo-fhJK-326">
          <mxGeometry width="350.81061889250816" height="38.34385026737967" as="geometry" />
        </mxCell>
        <mxCell id="fItwUCg7H84Hvmo-fhJK-328" value="" style="sketch=0;outlineConnect=0;fontColor=#232F3E;gradientColor=none;fillColor=#FFFFFF;strokeColor=none;dashed=0;verticalLabelPosition=bottom;verticalAlign=top;align=center;html=1;fontSize=12;fontStyle=0;aspect=fixed;pointerEvents=1;shape=mxgraph.aws4.gear;rounded=1;" vertex="1" parent="fItwUCg7H84Hvmo-fhJK-326">
          <mxGeometry x="317.88664495114017" y="10.814932126696828" width="10.339393179597565" height="10.339393179597565" as="geometry" />
        </mxCell>
        <mxCell id="fItwUCg7H84Hvmo-fhJK-329" value="Инициировать платёжную операцию" style="text;html=1;align=center;verticalAlign=middle;whiteSpace=wrap;rounded=1;fontSize=13;fontColor=#FFFFFF;strokeColor=none;" vertex="1" parent="fItwUCg7H84Hvmo-fhJK-326">
          <mxGeometry x="5.676547231270359" y="4.424290415466885" width="196.4085342019544" height="29.4952694364459" as="geometry" />
        </mxCell>
        <mxCell id="fItwUCg7H84Hvmo-fhJK-330" value="" style="group" vertex="1" connectable="0" parent="fItwUCg7H84Hvmo-fhJK-323">
          <mxGeometry x="18.48999999999978" y="94.43850267379679" width="348.54" height="38.34385026737967" as="geometry" />
        </mxCell>
        <mxCell id="fItwUCg7H84Hvmo-fhJK-331" value="" style="rounded=1;whiteSpace=wrap;html=1;fillColor=#1C57CD;strokeColor=none;" vertex="1" parent="fItwUCg7H84Hvmo-fhJK-330">
          <mxGeometry width="350.81061889250816" height="38.34385026737967" as="geometry" />
        </mxCell>
        <mxCell id="fItwUCg7H84Hvmo-fhJK-332" value="" style="sketch=0;outlineConnect=0;fontColor=#232F3E;gradientColor=none;fillColor=#FFFFFF;strokeColor=none;dashed=0;verticalLabelPosition=bottom;verticalAlign=top;align=center;html=1;fontSize=12;fontStyle=0;aspect=fixed;pointerEvents=1;shape=mxgraph.aws4.gear;rounded=1;" vertex="1" parent="fItwUCg7H84Hvmo-fhJK-330">
          <mxGeometry x="317.88664495114017" y="10.814932126696828" width="10.339393179597565" height="10.339393179597565" as="geometry" />
        </mxCell>
        <mxCell id="fItwUCg7H84Hvmo-fhJK-333" value="Учёт платёжной операции" style="text;html=1;align=center;verticalAlign=middle;whiteSpace=wrap;rounded=1;fontSize=13;fontColor=#FFFFFF;strokeColor=none;" vertex="1" parent="fItwUCg7H84Hvmo-fhJK-330">
          <mxGeometry x="5.676547231270359" y="4.424290415466885" width="196.4085342019544" height="29.4952694364459" as="geometry" />
        </mxCell>
        <mxCell id="fItwUCg7H84Hvmo-fhJK-334" value="" style="group" vertex="1" connectable="0" parent="fItwUCg7H84Hvmo-fhJK-323">
          <mxGeometry x="15" y="135.2192513368984" width="354.03" height="38.34385026737967" as="geometry" />
        </mxCell>
        <mxCell id="fItwUCg7H84Hvmo-fhJK-335" value="" style="rounded=1;whiteSpace=wrap;html=1;fillColor=#1C57CD;strokeColor=none;" vertex="1" parent="fItwUCg7H84Hvmo-fhJK-334">
          <mxGeometry x="7.892388535031846" width="348.3925796178343" height="38.34385026737967" as="geometry" />
        </mxCell>
        <mxCell id="fItwUCg7H84Hvmo-fhJK-336" value="" style="sketch=0;outlineConnect=0;fontColor=#232F3E;gradientColor=none;fillColor=#FFFFFF;strokeColor=none;dashed=0;verticalLabelPosition=bottom;verticalAlign=top;align=center;html=1;fontSize=12;fontStyle=0;aspect=fixed;pointerEvents=1;shape=mxgraph.aws4.gear;rounded=1;" vertex="1" parent="fItwUCg7H84Hvmo-fhJK-334">
          <mxGeometry x="323.58792993630567" y="10.814932126696828" width="10.268126640222304" height="10.268126640222304" as="geometry" />
        </mxCell>
        <mxCell id="fItwUCg7H84Hvmo-fhJK-337" value="Авторизация платёжной операции" style="text;html=1;align=center;verticalAlign=middle;whiteSpace=wrap;rounded=1;fontSize=13;fontColor=#FFFFFF;strokeColor=none;" vertex="1" parent="fItwUCg7H84Hvmo-fhJK-334">
          <mxGeometry y="4.424290415466885" width="273.9786305732484" height="29.4952694364459" as="geometry" />
        </mxCell>
        <mxCell id="fItwUCg7H84Hvmo-fhJK-338" value="" style="group" vertex="1" connectable="0" parent="fItwUCg7H84Hvmo-fhJK-323">
          <mxGeometry x="21.980000000000018" y="176" width="348.05" height="38.34385026737967" as="geometry" />
        </mxCell>
        <mxCell id="fItwUCg7H84Hvmo-fhJK-339" value="" style="rounded=1;whiteSpace=wrap;html=1;fillColor=#1C57CD;strokeColor=none;" vertex="1" parent="fItwUCg7H84Hvmo-fhJK-338">
          <mxGeometry width="350.3174267100977" height="38.34385026737967" as="geometry" />
        </mxCell>
        <mxCell id="fItwUCg7H84Hvmo-fhJK-340" value="" style="sketch=0;outlineConnect=0;fontColor=#232F3E;gradientColor=none;fillColor=#FFFFFF;strokeColor=none;dashed=0;verticalLabelPosition=bottom;verticalAlign=top;align=center;html=1;fontSize=12;fontStyle=0;aspect=fixed;pointerEvents=1;shape=mxgraph.aws4.gear;rounded=1;" vertex="1" parent="fItwUCg7H84Hvmo-fhJK-338">
          <mxGeometry x="317.43973941368085" y="10.814932126696828" width="10.324857394155424" height="10.324857394155424" as="geometry" />
        </mxCell>
        <mxCell id="fItwUCg7H84Hvmo-fhJK-341" value="Предоставить список и статус операций" style="text;html=1;align=center;verticalAlign=middle;whiteSpace=wrap;rounded=1;fontSize=13;fontColor=#FFFFFF;strokeColor=none;" vertex="1" parent="fItwUCg7H84Hvmo-fhJK-338">
          <mxGeometry y="4.424290415466885" width="298.1666123778502" height="29.4952694364459" as="geometry" />
        </mxCell>
        <mxCell id="fItwUCg7H84Hvmo-fhJK-342" value="" style="group" vertex="1" connectable="0" parent="fItwUCg7H84Hvmo-fhJK-323">
          <mxGeometry x="23.730000000000018" y="217.7754010695187" width="345.3" height="38.34385026737967" as="geometry" />
        </mxCell>
        <mxCell id="fItwUCg7H84Hvmo-fhJK-343" value="" style="rounded=1;whiteSpace=wrap;html=1;fillColor=#1C57CD;strokeColor=none;" vertex="1" parent="fItwUCg7H84Hvmo-fhJK-342">
          <mxGeometry width="347.54951140065145" height="38.34385026737967" as="geometry" />
        </mxCell>
        <mxCell id="fItwUCg7H84Hvmo-fhJK-344" value="" style="sketch=0;outlineConnect=0;fontColor=#232F3E;gradientColor=none;fillColor=#FFFFFF;strokeColor=none;dashed=0;verticalLabelPosition=bottom;verticalAlign=top;align=center;html=1;fontSize=12;fontStyle=0;aspect=fixed;pointerEvents=1;shape=mxgraph.aws4.gear;rounded=1;" vertex="1" parent="fItwUCg7H84Hvmo-fhJK-342">
          <mxGeometry x="314.9315960912053" y="10.814932126696828" width="10.243279006469955" height="10.243279006469955" as="geometry" />
        </mxCell>
        <mxCell id="fItwUCg7H84Hvmo-fhJK-345" value="Инициировать отмену транзакции" style="text;html=1;align=center;verticalAlign=middle;whiteSpace=wrap;rounded=1;fontSize=13;fontColor=#FFFFFF;strokeColor=none;" vertex="1" parent="fItwUCg7H84Hvmo-fhJK-342">
          <mxGeometry x="2.249511400651466" y="3.9327025915261196" width="250.82052117263845" height="29.4952694364459" as="geometry" />
        </mxCell>
        <mxCell id="fItwUCg7H84Hvmo-fhJK-346" value="" style="group" vertex="1" connectable="0" parent="fItwUCg7H84Hvmo-fhJK-323">
          <mxGeometry x="20.23999999999978" y="258.5561497326203" width="348.79" height="38.34385026737967" as="geometry" />
        </mxCell>
        <mxCell id="fItwUCg7H84Hvmo-fhJK-347" value="" style="rounded=1;whiteSpace=wrap;html=1;fillColor=#1C57CD;strokeColor=none;" vertex="1" parent="fItwUCg7H84Hvmo-fhJK-346">
          <mxGeometry width="351.0622475570033" height="38.34385026737967" as="geometry" />
        </mxCell>
        <mxCell id="fItwUCg7H84Hvmo-fhJK-348" value="" style="sketch=0;outlineConnect=0;fontColor=#232F3E;gradientColor=none;fillColor=#FFFFFF;strokeColor=none;dashed=0;verticalLabelPosition=bottom;verticalAlign=top;align=center;html=1;fontSize=12;fontStyle=0;aspect=fixed;pointerEvents=1;shape=mxgraph.aws4.gear;rounded=1;" vertex="1" parent="fItwUCg7H84Hvmo-fhJK-346">
          <mxGeometry x="318.11465798045606" y="10.814932126696828" width="10.346809396659879" height="10.346809396659879" as="geometry" />
        </mxCell>
        <mxCell id="fItwUCg7H84Hvmo-fhJK-349" value="Запросить статус операции" style="text;html=1;align=center;verticalAlign=middle;whiteSpace=wrap;rounded=1;fontSize=13;fontColor=#FFFFFF;strokeColor=none;" vertex="1" parent="fItwUCg7H84Hvmo-fhJK-346">
          <mxGeometry x="3.4083713355048864" y="5.899053887289181" width="203.36615635179152" height="29.4952694364459" as="geometry" />
        </mxCell>
        <mxCell id="fItwUCg7H84Hvmo-fhJK-350" value="" style="group" vertex="1" connectable="0" parent="fItwUCg7H84Hvmo-fhJK-323">
          <mxGeometry x="20.23999999999978" y="300.331550802139" width="349.79" height="38.34385026737967" as="geometry" />
        </mxCell>
        <mxCell id="fItwUCg7H84Hvmo-fhJK-351" value="" style="rounded=1;whiteSpace=wrap;html=1;fillColor=#1C57CD;strokeColor=none;" vertex="1" parent="fItwUCg7H84Hvmo-fhJK-350">
          <mxGeometry width="352.06876221498374" height="38.34385026737967" as="geometry" />
        </mxCell>
        <mxCell id="fItwUCg7H84Hvmo-fhJK-352" value="" style="sketch=0;outlineConnect=0;fontColor=#232F3E;gradientColor=none;fillColor=#FFFFFF;strokeColor=none;dashed=0;verticalLabelPosition=bottom;verticalAlign=top;align=center;html=1;fontSize=12;fontStyle=0;aspect=fixed;pointerEvents=1;shape=mxgraph.aws4.gear;rounded=1;" vertex="1" parent="fItwUCg7H84Hvmo-fhJK-350">
          <mxGeometry x="319.02671009771996" y="10.814932126696828" width="10.37647426490914" height="10.37647426490914" as="geometry" />
        </mxCell>
        <mxCell id="fItwUCg7H84Hvmo-fhJK-353" value="Предоставить статус операции" style="text;html=1;align=center;verticalAlign=middle;whiteSpace=wrap;rounded=1;fontSize=13;fontColor=#FFFFFF;strokeColor=none;" vertex="1" parent="fItwUCg7H84Hvmo-fhJK-350">
          <mxGeometry y="4.424290415466885" width="235.85188925081437" height="29.4952694364459" as="geometry" />
        </mxCell>
        <mxCell id="fItwUCg7H84Hvmo-fhJK-354" value="" style="group" vertex="1" connectable="0" parent="fItwUCg7H84Hvmo-fhJK-323">
          <mxGeometry x="19.36999999999989" y="341.11229946524065" width="351.66" height="38.34385026737967" as="geometry" />
        </mxCell>
        <mxCell id="fItwUCg7H84Hvmo-fhJK-355" value="" style="rounded=1;whiteSpace=wrap;html=1;fillColor=#1C57CD;strokeColor=none;" vertex="1" parent="fItwUCg7H84Hvmo-fhJK-354">
          <mxGeometry width="353.9509446254072" height="38.34385026737967" as="geometry" />
        </mxCell>
        <mxCell id="fItwUCg7H84Hvmo-fhJK-356" value="" style="sketch=0;outlineConnect=0;fontColor=#232F3E;gradientColor=none;fillColor=#FFFFFF;strokeColor=none;dashed=0;verticalLabelPosition=bottom;verticalAlign=top;align=center;html=1;fontSize=12;fontStyle=0;aspect=fixed;pointerEvents=1;shape=mxgraph.aws4.gear;rounded=1;" vertex="1" parent="fItwUCg7H84Hvmo-fhJK-354">
          <mxGeometry x="327.60508143322477" y="10.814932126696828" width="10.431947568535259" height="10.431947568535259" as="geometry" />
        </mxCell>
        <mxCell id="fItwUCg7H84Hvmo-fhJK-357" value="Определить способ оплаты" style="text;html=1;align=center;verticalAlign=middle;whiteSpace=wrap;rounded=1;fontSize=13;fontColor=#FFFFFF;strokeColor=none;" vertex="1" parent="fItwUCg7H84Hvmo-fhJK-354">
          <mxGeometry x="8.018306188925083" y="4.424290415466885" width="198.16671009771989" height="29.4952694364459" as="geometry" />
        </mxCell>
        <mxCell id="fItwUCg7H84Hvmo-fhJK-358" value="" style="strokeWidth=2;html=1;shape=mxgraph.flowchart.database;whiteSpace=wrap;rounded=1;movable=1;resizable=1;rotatable=1;deletable=1;editable=1;locked=0;connectable=1;container=1;" vertex="1" parent="fItwUCg7H84Hvmo-fhJK-323">
          <mxGeometry x="395" y="52" width="153.82" height="264" as="geometry" />
        </mxCell>
        <mxCell id="fItwUCg7H84Hvmo-fhJK-359" value="" style="group" vertex="1" connectable="0" parent="fItwUCg7H84Hvmo-fhJK-358">
          <mxGeometry x="18" y="11.14124069478908" width="116.39" height="55.384615384615394" as="geometry" />
        </mxCell>
        <mxCell id="fItwUCg7H84Hvmo-fhJK-360" value="&lt;p style=&quot;margin: 0px 0px 0px 13px; text-indent: -13px; font-variant-numeric: normal; font-variant-east-asian: normal; font-variant-alternates: normal; font-kerning: auto; font-optical-sizing: auto; font-feature-settings: normal; font-variation-settings: normal; font-variant-position: normal; font-stretch: normal; font-size: 14px; line-height: normal; color: rgb(14, 14, 14); text-align: start;&quot; class=&quot;p1&quot;&gt;&lt;br&gt;&lt;/p&gt;" style="rounded=1;whiteSpace=wrap;html=1;fillColor=#FF77BF;strokeColor=none;arcSize=50;" vertex="1" parent="fItwUCg7H84Hvmo-fhJK-359">
          <mxGeometry y="10.172684458398743" width="116.39000000000001" height="37.29984301412873" as="geometry" />
        </mxCell>
        <mxCell id="fItwUCg7H84Hvmo-fhJK-361" value="&lt;font style=&quot;font-size: 18px;&quot;&gt;&lt;i&gt;PostgreSQL&lt;/i&gt;&lt;/font&gt;" style="text;html=1;align=center;verticalAlign=middle;whiteSpace=wrap;rounded=1;shadow=0;fontSize=23;fontStyle=1" vertex="1" parent="fItwUCg7H84Hvmo-fhJK-359">
          <mxGeometry x="23.894635761589406" width="68.60072847682119" height="55.384615384615394" as="geometry" />
        </mxCell>
        <mxCell id="fItwUCg7H84Hvmo-fhJK-362" value="&lt;p style=&quot;margin: 0px 0px 0px 13px; text-indent: -13px; font-variant-numeric: normal; font-variant-east-asian: normal; font-variant-alternates: normal; font-kerning: auto; font-optical-sizing: auto; font-feature-settings: normal; font-variation-settings: normal; font-variant-position: normal; font-stretch: normal; line-height: normal; text-align: start;&quot; class=&quot;p1&quot;&gt;&lt;span style=&quot;text-align: center; text-indent: 0px;&quot;&gt;&lt;font style=&quot;font-size: 14px;&quot; face=&quot;Times New Roman&quot;&gt;[Транзакция.Статус]&lt;/font&gt;&lt;/span&gt;&lt;br&gt;&lt;/p&gt;" style="rounded=1;whiteSpace=wrap;html=1;fillColor=#B8B8B8;strokeColor=#FFD966;container=1;" vertex="1" parent="fItwUCg7H84Hvmo-fhJK-358">
          <mxGeometry x="6" y="100.99652406417113" width="141.41" height="20.887700534759357" as="geometry" />
        </mxCell>
        <mxCell id="fItwUCg7H84Hvmo-fhJK-363" style="edgeStyle=orthogonalEdgeStyle;rounded=0;orthogonalLoop=1;jettySize=auto;html=1;exitX=0.5;exitY=1;exitDx=0;exitDy=0;" edge="1" parent="fItwUCg7H84Hvmo-fhJK-358" source="fItwUCg7H84Hvmo-fhJK-362" target="fItwUCg7H84Hvmo-fhJK-362">
          <mxGeometry relative="1" as="geometry" />
        </mxCell>
        <mxCell id="fItwUCg7H84Hvmo-fhJK-364" value="&lt;p style=&quot;margin: 0px 0px 0px 13px; text-indent: -13px; font-variant-numeric: normal; font-variant-east-asian: normal; font-variant-alternates: normal; font-kerning: auto; font-optical-sizing: auto; font-feature-settings: normal; font-variation-settings: normal; font-variant-position: normal; font-stretch: normal; line-height: normal; text-align: start;&quot; class=&quot;p1&quot;&gt;&lt;span style=&quot;text-align: center; text-indent: 0px;&quot;&gt;&lt;font style=&quot;font-size: 14px;&quot; face=&quot;Times New Roman&quot;&gt;[Транзакция.ID]&lt;/font&gt;&lt;/span&gt;&lt;br&gt;&lt;/p&gt;" style="rounded=1;whiteSpace=wrap;html=1;fillColor=#B8B8B8;strokeColor=#FFD966;arcSize=50;container=1;" vertex="1" parent="fItwUCg7H84Hvmo-fhJK-358">
          <mxGeometry x="7" y="129.99866310160428" width="114.17" height="14.919786096256685" as="geometry" />
        </mxCell>
        <mxCell id="fItwUCg7H84Hvmo-fhJK-365" style="edgeStyle=orthogonalEdgeStyle;rounded=0;orthogonalLoop=1;jettySize=auto;html=1;exitX=0.5;exitY=1;exitDx=0;exitDy=0;" edge="1" parent="fItwUCg7H84Hvmo-fhJK-358" source="fItwUCg7H84Hvmo-fhJK-364" target="fItwUCg7H84Hvmo-fhJK-364">
          <mxGeometry relative="1" as="geometry" />
        </mxCell>
        <mxCell id="fItwUCg7H84Hvmo-fhJK-366" value="&lt;p style=&quot;margin: 0px 0px 0px 13px; text-indent: -13px; font-variant-numeric: normal; font-variant-east-asian: normal; font-variant-alternates: normal; font-kerning: auto; font-optical-sizing: auto; font-feature-settings: normal; font-variation-settings: normal; font-variant-position: normal; font-stretch: normal; line-height: normal; color: rgb(14, 14, 14); text-align: start;&quot; class=&quot;p1&quot;&gt;&lt;span style=&quot;color: rgb(0, 117, 117); text-align: center; text-indent: 0px;&quot;&gt;[Заказ.ID]&lt;/span&gt;&lt;br&gt;&lt;/p&gt;" style="rounded=1;whiteSpace=wrap;html=1;fillColor=#b1ddf0;strokeColor=#10739e;" vertex="1" parent="fItwUCg7H84Hvmo-fhJK-358">
          <mxGeometry x="9" y="152" width="73" height="21" as="geometry" />
        </mxCell>
        <mxCell id="fItwUCg7H84Hvmo-fhJK-367" value="&lt;p style=&quot;margin: 0px 0px 0px 13px; text-indent: -13px; font-variant-numeric: normal; font-variant-east-asian: normal; font-variant-alternates: normal; font-kerning: auto; font-optical-sizing: auto; font-feature-settings: normal; font-variation-settings: normal; font-variant-position: normal; font-stretch: normal; line-height: normal; color: rgb(14, 14, 14); text-align: start;&quot; class=&quot;p1&quot;&gt;&lt;span style=&quot;color: rgb(0, 117, 117); text-align: center; text-indent: 0px;&quot;&gt;[Заказ.Сумма]&lt;/span&gt;&lt;br&gt;&lt;/p&gt;" style="rounded=1;whiteSpace=wrap;html=1;fillColor=#b1ddf0;strokeColor=#10739e;" vertex="1" parent="fItwUCg7H84Hvmo-fhJK-358">
          <mxGeometry x="9" y="178" width="94" height="21" as="geometry" />
        </mxCell>
        <mxCell id="fItwUCg7H84Hvmo-fhJK-368" value="&lt;p style=&quot;margin: 0px 0px 0px 13px; text-indent: -13px; font-variant-numeric: normal; font-variant-east-asian: normal; font-variant-alternates: normal; font-kerning: auto; font-optical-sizing: auto; font-feature-settings: normal; font-variation-settings: normal; font-variant-position: normal; font-stretch: normal; line-height: normal; color: rgb(14, 14, 14); text-align: start;&quot; class=&quot;p1&quot;&gt;&lt;span style=&quot;color: rgb(0, 117, 117); text-align: center; text-indent: 0px;&quot;&gt;[Пользователь.ID]&lt;/span&gt;&lt;br&gt;&lt;/p&gt;" style="rounded=1;whiteSpace=wrap;html=1;fillColor=#b1ddf0;strokeColor=#10739e;" vertex="1" parent="fItwUCg7H84Hvmo-fhJK-358">
          <mxGeometry x="10" y="203" width="110" height="21" as="geometry" />
        </mxCell>
        <mxCell id="fItwUCg7H84Hvmo-fhJK-369" value="" style="group" vertex="1" connectable="0" parent="1">
          <mxGeometry x="1877" y="916" width="484" height="243" as="geometry" />
        </mxCell>
        <mxCell id="fItwUCg7H84Hvmo-fhJK-370" value="" style="rounded=1;whiteSpace=wrap;html=1;arcSize=5;fillColor=#f5f5f5;strokeColor=#FF4124;strokeWidth=3;" vertex="1" parent="fItwUCg7H84Hvmo-fhJK-369">
          <mxGeometry x="1.0001323251417769" y="-1.3945760617760616" width="484" height="230.6020408163265" as="geometry" />
        </mxCell>
        <mxCell id="fItwUCg7H84Hvmo-fhJK-371" value="&lt;font style=&quot;font-size: 23px;&quot;&gt;Микросервис-услуга&lt;/font&gt;" style="text;html=1;align=center;verticalAlign=middle;whiteSpace=wrap;rounded=1;fontSize=13;" vertex="1" parent="fItwUCg7H84Hvmo-fhJK-369">
          <mxGeometry x="13.724007561436673" y="11.25868725868726" width="270.28060491493386" height="33.203745173745176" as="geometry" />
        </mxCell>
        <mxCell id="fItwUCg7H84Hvmo-fhJK-414" value="" style="group" vertex="1" connectable="0" parent="fItwUCg7H84Hvmo-fhJK-369">
          <mxGeometry x="9" y="168" width="278" height="39" as="geometry" />
        </mxCell>
        <mxCell id="fItwUCg7H84Hvmo-fhJK-415" value="" style="rounded=1;whiteSpace=wrap;html=1;fillColor=#1C57CD;strokeColor=none;" vertex="1" parent="fItwUCg7H84Hvmo-fhJK-414">
          <mxGeometry width="278" height="39" as="geometry" />
        </mxCell>
        <mxCell id="fItwUCg7H84Hvmo-fhJK-416" value="" style="sketch=0;outlineConnect=0;fontColor=#232F3E;gradientColor=none;fillColor=#FFFFFF;strokeColor=none;dashed=0;verticalLabelPosition=bottom;verticalAlign=top;align=center;html=1;fontSize=12;fontStyle=0;aspect=fixed;pointerEvents=1;shape=mxgraph.aws4.gear;rounded=1;" vertex="1" parent="fItwUCg7H84Hvmo-fhJK-414">
          <mxGeometry x="257.3074433656958" y="11" width="15.294498381877021" height="15.294498381877021" as="geometry" />
        </mxCell>
        <mxCell id="fItwUCg7H84Hvmo-fhJK-417" value="Поиск услуг" style="text;html=1;align=center;verticalAlign=middle;whiteSpace=wrap;rounded=1;fontSize=13;fontColor=#FFFFFF;strokeColor=none;" vertex="1" parent="fItwUCg7H84Hvmo-fhJK-414">
          <mxGeometry x="3.6" y="4" width="98.4" height="30" as="geometry" />
        </mxCell>
        <mxCell id="fItwUCg7H84Hvmo-fhJK-384" value="" style="strokeWidth=2;html=1;shape=mxgraph.flowchart.database;whiteSpace=wrap;rounded=1;movable=1;resizable=1;rotatable=1;deletable=1;editable=1;locked=0;connectable=1;container=1;" vertex="1" parent="fItwUCg7H84Hvmo-fhJK-369">
          <mxGeometry x="310" y="55" width="153.82" height="155" as="geometry" />
        </mxCell>
        <mxCell id="fItwUCg7H84Hvmo-fhJK-385" value="" style="group" vertex="1" connectable="0" parent="fItwUCg7H84Hvmo-fhJK-384">
          <mxGeometry x="18" y="6.54125874125874" width="116.39" height="32.51748251748252" as="geometry" />
        </mxCell>
        <mxCell id="fItwUCg7H84Hvmo-fhJK-386" value="&lt;p style=&quot;margin: 0px 0px 0px 13px; text-indent: -13px; font-variant-numeric: normal; font-variant-east-asian: normal; font-variant-alternates: normal; font-kerning: auto; font-optical-sizing: auto; font-feature-settings: normal; font-variation-settings: normal; font-variant-position: normal; font-stretch: normal; font-size: 14px; line-height: normal; color: rgb(14, 14, 14); text-align: start;&quot; class=&quot;p1&quot;&gt;&lt;br&gt;&lt;/p&gt;" style="rounded=1;whiteSpace=wrap;html=1;fillColor=#FF77BF;strokeColor=none;arcSize=50;" vertex="1" parent="fItwUCg7H84Hvmo-fhJK-385">
          <mxGeometry y="5.972598829741685" width="116.39000000000001" height="21.89952904238618" as="geometry" />
        </mxCell>
        <mxCell id="fItwUCg7H84Hvmo-fhJK-387" value="&lt;font style=&quot;font-size: 18px;&quot;&gt;&lt;i&gt;PostgreSQL&lt;/i&gt;&lt;/font&gt;" style="text;html=1;align=center;verticalAlign=middle;whiteSpace=wrap;rounded=1;shadow=0;fontSize=23;fontStyle=1" vertex="1" parent="fItwUCg7H84Hvmo-fhJK-385">
          <mxGeometry x="23.894635761589406" width="68.60072847682119" height="32.51748251748252" as="geometry" />
        </mxCell>
        <mxCell id="fItwUCg7H84Hvmo-fhJK-388" style="edgeStyle=orthogonalEdgeStyle;rounded=0;orthogonalLoop=1;jettySize=auto;html=1;exitX=0.5;exitY=1;exitDx=0;exitDy=0;" edge="1" parent="fItwUCg7H84Hvmo-fhJK-384">
          <mxGeometry relative="1" as="geometry">
            <mxPoint x="76.70499999999993" y="71.56081368497831" as="sourcePoint" />
            <mxPoint x="76.70499999999993" y="71.56081368497831" as="targetPoint" />
          </mxGeometry>
        </mxCell>
        <mxCell id="fItwUCg7H84Hvmo-fhJK-389" style="edgeStyle=orthogonalEdgeStyle;rounded=0;orthogonalLoop=1;jettySize=auto;html=1;exitX=0.5;exitY=1;exitDx=0;exitDy=0;" edge="1" parent="fItwUCg7H84Hvmo-fhJK-384">
          <mxGeometry relative="1" as="geometry">
            <mxPoint x="64.08500000000004" y="85.0846955517746" as="sourcePoint" />
            <mxPoint x="64.08500000000004" y="85.0846955517746" as="targetPoint" />
          </mxGeometry>
        </mxCell>
        <mxCell id="fItwUCg7H84Hvmo-fhJK-390" value="&lt;p style=&quot;margin: 0px 0px 0px 13px; text-indent: -13px; font-variant-numeric: normal; font-variant-east-asian: normal; font-variant-alternates: normal; font-kerning: auto; font-optical-sizing: auto; font-feature-settings: normal; font-variation-settings: normal; font-variant-position: normal; font-stretch: normal; font-size: 14px; line-height: normal; color: rgb(14, 14, 14); text-align: start;&quot; class=&quot;p1&quot;&gt;&lt;font face=&quot;Times New Roman&quot;&gt;Услуга.ID&lt;/font&gt;&lt;/p&gt;" style="rounded=1;whiteSpace=wrap;html=1;fillColor=#b1ddf0;strokeColor=#10739e;" vertex="1" parent="fItwUCg7H84Hvmo-fhJK-384">
          <mxGeometry x="17" y="59" width="87" height="21" as="geometry" />
        </mxCell>
        <mxCell id="fItwUCg7H84Hvmo-fhJK-391" value="&lt;p style=&quot;margin: 0px 0px 0px 13px; text-indent: -13px; font-variant-numeric: normal; font-variant-east-asian: normal; font-variant-alternates: normal; font-kerning: auto; font-optical-sizing: auto; font-feature-settings: normal; font-variation-settings: normal; font-variant-position: normal; font-stretch: normal; font-size: 14px; line-height: normal; color: rgb(14, 14, 14); text-align: start;&quot; class=&quot;p1&quot;&gt;&lt;font face=&quot;Times New Roman&quot;&gt;Услуга.Название&lt;/font&gt;&lt;/p&gt;" style="rounded=1;whiteSpace=wrap;html=1;fillColor=#b1ddf0;strokeColor=#10739e;" vertex="1" parent="fItwUCg7H84Hvmo-fhJK-384">
          <mxGeometry x="18" y="84" width="110" height="21" as="geometry" />
        </mxCell>
        <mxCell id="fItwUCg7H84Hvmo-fhJK-392" value="&lt;p style=&quot;margin: 0px 0px 0px 13px; text-indent: -13px; font-variant-numeric: normal; font-variant-east-asian: normal; font-variant-alternates: normal; font-kerning: auto; font-optical-sizing: auto; font-feature-settings: normal; font-variation-settings: normal; font-variant-position: normal; font-stretch: normal; font-size: 14px; line-height: normal; color: rgb(14, 14, 14); text-align: start;&quot; class=&quot;p1&quot;&gt;&lt;font face=&quot;Times New Roman&quot;&gt;Услуга. Описание&lt;/font&gt;&lt;/p&gt;" style="rounded=1;whiteSpace=wrap;html=1;fillColor=#b1ddf0;strokeColor=#10739e;" vertex="1" parent="fItwUCg7H84Hvmo-fhJK-384">
          <mxGeometry x="18" y="110" width="112" height="21" as="geometry" />
        </mxCell>
        <mxCell id="fItwUCg7H84Hvmo-fhJK-393" style="edgeStyle=orthogonalEdgeStyle;rounded=0;orthogonalLoop=1;jettySize=auto;html=1;exitX=0.5;exitY=1;exitDx=0;exitDy=0;exitPerimeter=0;" edge="1" parent="fItwUCg7H84Hvmo-fhJK-369" source="fItwUCg7H84Hvmo-fhJK-384" target="fItwUCg7H84Hvmo-fhJK-384">
          <mxGeometry relative="1" as="geometry" />
        </mxCell>
        <mxCell id="fItwUCg7H84Hvmo-fhJK-394" value="" style="group" vertex="1" connectable="0" parent="1">
          <mxGeometry x="2815" y="730" width="544" height="390" as="geometry" />
        </mxCell>
        <mxCell id="fItwUCg7H84Hvmo-fhJK-395" value="" style="rounded=1;whiteSpace=wrap;html=1;arcSize=5;fillColor=#f5f5f5;strokeColor=#FF4124;strokeWidth=3;" vertex="1" parent="fItwUCg7H84Hvmo-fhJK-394">
          <mxGeometry x="3.4760383386581473" y="1.3356164383561644" width="535.3099041533546" height="388.66438356164383" as="geometry" />
        </mxCell>
        <mxCell id="fItwUCg7H84Hvmo-fhJK-396" value="&lt;font style=&quot;font-size: 23px;&quot;&gt;Микросервис-авторизация&lt;/font&gt;" style="text;html=1;align=center;verticalAlign=middle;whiteSpace=wrap;rounded=1;fontSize=13;" vertex="1" parent="fItwUCg7H84Hvmo-fhJK-394">
          <mxGeometry x="17.38" y="8.01" width="283.62" height="55.99" as="geometry" />
        </mxCell>
        <mxCell id="fItwUCg7H84Hvmo-fhJK-397" value="" style="group" vertex="1" connectable="0" parent="fItwUCg7H84Hvmo-fhJK-394">
          <mxGeometry x="16" y="73" width="273" height="39" as="geometry" />
        </mxCell>
        <mxCell id="fItwUCg7H84Hvmo-fhJK-398" value="" style="group" vertex="1" connectable="0" parent="fItwUCg7H84Hvmo-fhJK-397">
          <mxGeometry width="273" height="39" as="geometry" />
        </mxCell>
        <mxCell id="fItwUCg7H84Hvmo-fhJK-399" value="" style="rounded=1;whiteSpace=wrap;html=1;gradientColor=none;fillColor=#1C57CD;strokeColor=none;movable=1;resizable=1;rotatable=1;deletable=1;editable=1;locked=0;connectable=1;" vertex="1" parent="fItwUCg7H84Hvmo-fhJK-398">
          <mxGeometry width="273" height="39" as="geometry" />
        </mxCell>
        <mxCell id="fItwUCg7H84Hvmo-fhJK-400" value="" style="sketch=0;outlineConnect=0;dashed=0;verticalLabelPosition=bottom;verticalAlign=top;align=center;html=1;fontSize=12;fontStyle=0;aspect=fixed;pointerEvents=1;shape=mxgraph.aws4.gear;rounded=1;strokeColor=none;fillColor=default;" vertex="1" parent="fItwUCg7H84Hvmo-fhJK-398">
          <mxGeometry x="247.37864077669906" y="11" width="15.019417475728156" height="15.019417475728156" as="geometry" />
        </mxCell>
        <mxCell id="fItwUCg7H84Hvmo-fhJK-401" value="Регистрация пользователя" style="text;html=1;align=center;verticalAlign=middle;whiteSpace=wrap;rounded=1;fontSize=13;fontColor=#FFFFFF;strokeColor=none;movable=1;resizable=1;rotatable=1;deletable=1;editable=1;locked=0;connectable=1;" vertex="1" parent="fItwUCg7H84Hvmo-fhJK-398">
          <mxGeometry x="2.65" y="4.5" width="194.35" height="30" as="geometry" />
        </mxCell>
        <mxCell id="fItwUCg7H84Hvmo-fhJK-402" value="" style="group" vertex="1" connectable="0" parent="fItwUCg7H84Hvmo-fhJK-394">
          <mxGeometry x="15" y="115" width="276" height="39" as="geometry" />
        </mxCell>
        <mxCell id="fItwUCg7H84Hvmo-fhJK-403" value="" style="rounded=1;whiteSpace=wrap;html=1;fillColor=#1C57CD;strokeColor=none;" vertex="1" parent="fItwUCg7H84Hvmo-fhJK-402">
          <mxGeometry width="276" height="39" as="geometry" />
        </mxCell>
        <mxCell id="fItwUCg7H84Hvmo-fhJK-404" value="" style="sketch=0;outlineConnect=0;fontColor=#232F3E;gradientColor=none;fillColor=default;strokeColor=none;dashed=0;verticalLabelPosition=bottom;verticalAlign=top;align=center;html=1;fontSize=12;fontStyle=0;aspect=fixed;pointerEvents=1;shape=mxgraph.aws4.gear;rounded=1;" vertex="1" parent="fItwUCg7H84Hvmo-fhJK-402">
          <mxGeometry x="250.0970873786408" y="11" width="15.184466019417476" height="15.184466019417476" as="geometry" />
        </mxCell>
        <mxCell id="fItwUCg7H84Hvmo-fhJK-405" value="Нотификация нового пользователя" style="text;html=1;align=center;verticalAlign=middle;whiteSpace=wrap;rounded=1;fontSize=13;fontColor=#FFFFFF;strokeColor=none;" vertex="1" parent="fItwUCg7H84Hvmo-fhJK-402">
          <mxGeometry x="2.68" y="4.5" width="234.32" height="30" as="geometry" />
        </mxCell>
        <mxCell id="fItwUCg7H84Hvmo-fhJK-406" value="" style="group" vertex="1" connectable="0" parent="fItwUCg7H84Hvmo-fhJK-394">
          <mxGeometry x="18" y="160" width="273" height="39" as="geometry" />
        </mxCell>
        <mxCell id="fItwUCg7H84Hvmo-fhJK-407" value="" style="rounded=1;whiteSpace=wrap;html=1;fillColor=#1C57CD;strokeColor=none;" vertex="1" parent="fItwUCg7H84Hvmo-fhJK-406">
          <mxGeometry width="273" height="39" as="geometry" />
        </mxCell>
        <mxCell id="fItwUCg7H84Hvmo-fhJK-408" value="" style="sketch=0;outlineConnect=0;fontColor=#232F3E;gradientColor=none;fillColor=default;strokeColor=none;dashed=0;verticalLabelPosition=bottom;verticalAlign=top;align=center;html=1;fontSize=12;fontStyle=0;aspect=fixed;pointerEvents=1;shape=mxgraph.aws4.gear;rounded=1;" vertex="1" parent="fItwUCg7H84Hvmo-fhJK-406">
          <mxGeometry x="247.37864077669906" y="11" width="15.019417475728156" height="15.019417475728156" as="geometry" />
        </mxCell>
        <mxCell id="fItwUCg7H84Hvmo-fhJK-409" value="Аутентификация" style="text;html=1;align=center;verticalAlign=middle;whiteSpace=wrap;rounded=1;fontSize=13;fontColor=#FFFFFF;strokeColor=none;" vertex="1" parent="fItwUCg7H84Hvmo-fhJK-406">
          <mxGeometry x="1.77" y="4.5" width="115.23" height="30" as="geometry" />
        </mxCell>
        <mxCell id="fItwUCg7H84Hvmo-fhJK-410" value="" style="group" vertex="1" connectable="0" parent="fItwUCg7H84Hvmo-fhJK-394">
          <mxGeometry x="15" y="203" width="278" height="39" as="geometry" />
        </mxCell>
        <mxCell id="fItwUCg7H84Hvmo-fhJK-411" value="" style="rounded=1;whiteSpace=wrap;html=1;fillColor=#1C57CD;strokeColor=none;" vertex="1" parent="fItwUCg7H84Hvmo-fhJK-410">
          <mxGeometry width="278" height="39" as="geometry" />
        </mxCell>
        <mxCell id="fItwUCg7H84Hvmo-fhJK-412" value="" style="sketch=0;outlineConnect=0;fontColor=#232F3E;gradientColor=none;fillColor=default;strokeColor=none;dashed=0;verticalLabelPosition=bottom;verticalAlign=top;align=center;html=1;fontSize=12;fontStyle=0;aspect=fixed;pointerEvents=1;shape=mxgraph.aws4.gear;rounded=1;" vertex="1" parent="fItwUCg7H84Hvmo-fhJK-410">
          <mxGeometry x="251.9093851132686" y="11" width="15.294498381877021" height="15.294498381877021" as="geometry" />
        </mxCell>
        <mxCell id="fItwUCg7H84Hvmo-fhJK-413" value="Валидация токена безопасности" style="text;html=1;align=center;verticalAlign=middle;whiteSpace=wrap;rounded=1;fontSize=13;fontColor=#FFFFFF;strokeColor=none;" vertex="1" parent="fItwUCg7H84Hvmo-fhJK-410">
          <mxGeometry x="2.7" y="4.5" width="216.3" height="30" as="geometry" />
        </mxCell>
        <mxCell id="fItwUCg7H84Hvmo-fhJK-422" value="" style="strokeWidth=2;html=1;shape=mxgraph.flowchart.database;whiteSpace=wrap;rounded=1;movable=1;resizable=1;rotatable=1;deletable=1;editable=1;locked=0;connectable=1;container=1;" vertex="1" parent="fItwUCg7H84Hvmo-fhJK-394">
          <mxGeometry x="311" y="13" width="225" height="372" as="geometry" />
        </mxCell>
        <mxCell id="fItwUCg7H84Hvmo-fhJK-423" value="" style="group" vertex="1" connectable="0" parent="fItwUCg7H84Hvmo-fhJK-422">
          <mxGeometry x="25.978416330776234" y="15.699020979020975" width="167.97932648550255" height="78.04195804195807" as="geometry" />
        </mxCell>
        <mxCell id="fItwUCg7H84Hvmo-fhJK-424" value="&lt;p style=&quot;margin: 0px 0px 0px 13px; text-indent: -13px; font-variant-numeric: normal; font-variant-east-asian: normal; font-variant-alternates: normal; font-kerning: auto; font-optical-sizing: auto; font-feature-settings: normal; font-variation-settings: normal; font-variant-position: normal; font-stretch: normal; font-size: 14px; line-height: normal; color: rgb(14, 14, 14); text-align: start;&quot; class=&quot;p1&quot;&gt;&lt;br&gt;&lt;/p&gt;" style="rounded=1;whiteSpace=wrap;html=1;fillColor=#FF77BF;strokeColor=none;arcSize=50;" vertex="1" parent="fItwUCg7H84Hvmo-fhJK-423">
          <mxGeometry y="14.334237191380048" width="167.97932648550258" height="52.558869701726856" as="geometry" />
        </mxCell>
        <mxCell id="fItwUCg7H84Hvmo-fhJK-425" value="&lt;font style=&quot;font-size: 18px;&quot;&gt;&lt;i&gt;PostgreSQL&lt;/i&gt;&lt;/font&gt;" style="text;html=1;align=center;verticalAlign=middle;whiteSpace=wrap;rounded=1;shadow=0;fontSize=23;fontStyle=1" vertex="1" parent="fItwUCg7H84Hvmo-fhJK-423">
          <mxGeometry x="34.48582199371245" width="99.00768249807766" height="78.04195804195807" as="geometry" />
        </mxCell>
        <mxCell id="fItwUCg7H84Hvmo-fhJK-426" style="edgeStyle=orthogonalEdgeStyle;rounded=0;orthogonalLoop=1;jettySize=auto;html=1;exitX=0.5;exitY=1;exitDx=0;exitDy=0;" edge="1" parent="fItwUCg7H84Hvmo-fhJK-422">
          <mxGeometry relative="1" as="geometry">
            <mxPoint x="110.7041347028994" y="171.74595284394795" as="sourcePoint" />
            <mxPoint x="110.7041347028994" y="171.74595284394795" as="targetPoint" />
          </mxGeometry>
        </mxCell>
        <mxCell id="fItwUCg7H84Hvmo-fhJK-427" style="edgeStyle=orthogonalEdgeStyle;rounded=0;orthogonalLoop=1;jettySize=auto;html=1;exitX=0.5;exitY=1;exitDx=0;exitDy=0;" edge="1" parent="fItwUCg7H84Hvmo-fhJK-422">
          <mxGeometry relative="1" as="geometry">
            <mxPoint x="92.490378364322" y="204.20326932425905" as="sourcePoint" />
            <mxPoint x="92.490378364322" y="204.20326932425905" as="targetPoint" />
          </mxGeometry>
        </mxCell>
        <mxCell id="fItwUCg7H84Hvmo-fhJK-428" value="&lt;p style=&quot;margin: 0px 0px 0px 13px; text-indent: -13px; font-variant-numeric: normal; font-variant-east-asian: normal; font-variant-alternates: normal; font-kerning: auto; font-optical-sizing: auto; font-feature-settings: normal; font-variation-settings: normal; font-variant-position: normal; font-stretch: normal; font-size: 14px; line-height: normal; color: rgb(14, 14, 14); text-align: start;&quot; class=&quot;p1&quot;&gt;&lt;font face=&quot;Times New Roman&quot;&gt;Пользователь.ID&lt;/font&gt;&lt;/p&gt;" style="rounded=1;whiteSpace=wrap;html=1;fillColor=#b1ddf0;strokeColor=#10739e;" vertex="1" parent="fItwUCg7H84Hvmo-fhJK-422">
          <mxGeometry x="58" y="343" width="104" height="21" as="geometry" />
        </mxCell>
        <mxCell id="fItwUCg7H84Hvmo-fhJK-429" value="&lt;p style=&quot;margin: 0px 0px 0px 13px; text-indent: -13px; font-variant-numeric: normal; font-variant-east-asian: normal; font-variant-alternates: normal; font-kerning: auto; font-optical-sizing: auto; font-feature-settings: normal; font-variation-settings: normal; font-variant-position: normal; font-stretch: normal; font-size: 14px; line-height: normal; color: rgb(14, 14, 14); text-align: start;&quot; class=&quot;p1&quot;&gt;&lt;font face=&quot;Times New Roman&quot;&gt;Пользователь.Статус&lt;/font&gt;&lt;/p&gt;" style="rounded=1;whiteSpace=wrap;html=1;fillColor=#b1ddf0;strokeColor=#10739e;" vertex="1" parent="fItwUCg7H84Hvmo-fhJK-422">
          <mxGeometry x="8" y="151" width="136" height="21" as="geometry" />
        </mxCell>
        <mxCell id="fItwUCg7H84Hvmo-fhJK-430" value="&lt;p style=&quot;margin: 0px 0px 0px 13px; text-indent: -13px; font-variant-numeric: normal; font-variant-east-asian: normal; font-variant-alternates: normal; font-kerning: auto; font-optical-sizing: auto; font-feature-settings: normal; font-variation-settings: normal; font-variant-position: normal; font-stretch: normal; font-size: 14px; line-height: normal; color: rgb(14, 14, 14); text-align: start;&quot; class=&quot;p1&quot;&gt;&lt;font face=&quot;Times New Roman&quot;&gt;Пользователь.Дата регистрации&lt;/font&gt;&lt;/p&gt;" style="rounded=1;whiteSpace=wrap;html=1;fillColor=#b1ddf0;strokeColor=#10739e;" vertex="1" parent="fItwUCg7H84Hvmo-fhJK-422">
          <mxGeometry x="9" y="175" width="199" height="21" as="geometry" />
        </mxCell>
        <mxCell id="fItwUCg7H84Hvmo-fhJK-431" value="&lt;p style=&quot;margin: 0px 0px 0px 13px; text-indent: -13px; font-variant-numeric: normal; font-variant-east-asian: normal; font-variant-alternates: normal; font-kerning: auto; font-optical-sizing: auto; font-feature-settings: normal; font-variation-settings: normal; font-variant-position: normal; font-stretch: normal; font-size: 14px; line-height: normal; color: rgb(14, 14, 14); text-align: start;&quot; class=&quot;p1&quot;&gt;&lt;font face=&quot;Times New Roman&quot;&gt;Пользователь.Активен&lt;/font&gt;&lt;/p&gt;" style="rounded=1;whiteSpace=wrap;html=1;fillColor=#b1ddf0;strokeColor=#10739e;" vertex="1" parent="fItwUCg7H84Hvmo-fhJK-422">
          <mxGeometry x="10" y="199" width="147" height="21" as="geometry" />
        </mxCell>
        <mxCell id="fItwUCg7H84Hvmo-fhJK-432" value="&lt;p style=&quot;margin: 0px 0px 0px 13px; text-indent: -13px; font-variant-numeric: normal; font-variant-east-asian: normal; font-variant-alternates: normal; font-kerning: auto; font-optical-sizing: auto; font-feature-settings: normal; font-variation-settings: normal; font-variant-position: normal; font-stretch: normal; font-size: 14px; line-height: normal; color: rgb(14, 14, 14); text-align: start;&quot; class=&quot;p1&quot;&gt;&lt;font face=&quot;Times New Roman&quot;&gt;Пользователь.Номер телефона&lt;/font&gt;&lt;/p&gt;" style="rounded=1;whiteSpace=wrap;html=1;fillColor=#b1ddf0;strokeColor=#10739e;" vertex="1" parent="fItwUCg7H84Hvmo-fhJK-422">
          <mxGeometry x="12" y="223" width="190" height="21" as="geometry" />
        </mxCell>
        <mxCell id="fItwUCg7H84Hvmo-fhJK-433" value="&lt;p style=&quot;margin: 0px 0px 0px 13px; text-indent: -13px; font-variant-numeric: normal; font-variant-east-asian: normal; font-variant-alternates: normal; font-kerning: auto; font-optical-sizing: auto; font-feature-settings: normal; font-variation-settings: normal; font-variant-position: normal; font-stretch: normal; font-size: 14px; line-height: normal; color: rgb(14, 14, 14); text-align: start;&quot; class=&quot;p1&quot;&gt;&lt;font face=&quot;Times New Roman&quot;&gt;Пользователь.Электронная почта&lt;/font&gt;&lt;/p&gt;" style="rounded=1;whiteSpace=wrap;html=1;fillColor=#b1ddf0;strokeColor=#10739e;" vertex="1" parent="fItwUCg7H84Hvmo-fhJK-422">
          <mxGeometry x="13" y="248" width="209" height="21" as="geometry" />
        </mxCell>
        <mxCell id="fItwUCg7H84Hvmo-fhJK-434" value="&lt;p style=&quot;margin: 0px 0px 0px 13px; text-indent: -13px; font-variant-numeric: normal; font-variant-east-asian: normal; font-variant-alternates: normal; font-kerning: auto; font-optical-sizing: auto; font-feature-settings: normal; font-variation-settings: normal; font-variant-position: normal; font-stretch: normal; font-size: 14px; line-height: normal; color: rgb(14, 14, 14); text-align: start;&quot; class=&quot;p1&quot;&gt;&lt;font face=&quot;Times New Roman&quot;&gt;Пользователь.Роль&lt;/font&gt;&lt;/p&gt;" style="rounded=1;whiteSpace=wrap;html=1;fillColor=#b1ddf0;strokeColor=#10739e;" vertex="1" parent="fItwUCg7H84Hvmo-fhJK-422">
          <mxGeometry x="14" y="272" width="122" height="21" as="geometry" />
        </mxCell>
        <mxCell id="fItwUCg7H84Hvmo-fhJK-435" value="&lt;p style=&quot;margin: 0px 0px 0px 13px; text-indent: -13px; font-variant-numeric: normal; font-variant-east-asian: normal; font-variant-alternates: normal; font-kerning: auto; font-optical-sizing: auto; font-feature-settings: normal; font-variation-settings: normal; font-variant-position: normal; font-stretch: normal; font-size: 14px; line-height: normal; color: rgb(14, 14, 14); text-align: start;&quot; class=&quot;p1&quot;&gt;&lt;font face=&quot;Times New Roman&quot;&gt;Пользователь.Фамилия&lt;/font&gt;&lt;/p&gt;" style="rounded=1;whiteSpace=wrap;html=1;fillColor=#b1ddf0;strokeColor=#10739e;" vertex="1" parent="fItwUCg7H84Hvmo-fhJK-422">
          <mxGeometry x="17" y="320" width="151" height="21" as="geometry" />
        </mxCell>
        <mxCell id="fItwUCg7H84Hvmo-fhJK-436" value="&lt;p style=&quot;margin: 0px 0px 0px 13px; text-indent: -13px; font-variant-numeric: normal; font-variant-east-asian: normal; font-variant-alternates: normal; font-kerning: auto; font-optical-sizing: auto; font-feature-settings: normal; font-variation-settings: normal; font-variant-position: normal; font-stretch: normal; font-size: 14px; line-height: normal; color: rgb(14, 14, 14); text-align: start;&quot; class=&quot;p1&quot;&gt;&lt;font face=&quot;Times New Roman&quot;&gt;Пользователь.Имя&lt;/font&gt;&lt;/p&gt;" style="rounded=1;whiteSpace=wrap;html=1;fillColor=#b1ddf0;strokeColor=#10739e;" vertex="1" parent="fItwUCg7H84Hvmo-fhJK-422">
          <mxGeometry x="10" y="127" width="119" height="21" as="geometry" />
        </mxCell>
        <mxCell id="fItwUCg7H84Hvmo-fhJK-437" value="&lt;p style=&quot;margin: 0px 0px 0px 13px; text-indent: -13px; font-variant-numeric: normal; font-variant-east-asian: normal; font-variant-alternates: normal; font-kerning: auto; font-optical-sizing: auto; font-feature-settings: normal; font-variation-settings: normal; font-variant-position: normal; font-stretch: normal; font-size: 14px; line-height: normal; color: rgb(14, 14, 14); text-align: start;&quot; class=&quot;p1&quot;&gt;&lt;font face=&quot;Times New Roman&quot;&gt;Пользователь.Адрес&lt;/font&gt;&lt;/p&gt;" style="rounded=1;whiteSpace=wrap;html=1;fillColor=#b1ddf0;strokeColor=#10739e;" vertex="1" parent="fItwUCg7H84Hvmo-fhJK-422">
          <mxGeometry x="16" y="296" width="130" height="21" as="geometry" />
        </mxCell>
        <mxCell id="fItwUCg7H84Hvmo-fhJK-438" value="&lt;p style=&quot;margin: 0px 0px 0px 13px; text-indent: -13px; font-variant-numeric: normal; font-variant-east-asian: normal; font-variant-alternates: normal; font-kerning: auto; font-optical-sizing: auto; font-feature-settings: normal; font-variation-settings: normal; font-variant-position: normal; font-stretch: normal; line-height: normal; color: rgb(14, 14, 14); text-align: start;&quot; class=&quot;p1&quot;&gt;&lt;font face=&quot;Times New Roman&quot;&gt;&lt;span style=&quot;font-size: 14px;&quot;&gt;JWT&lt;/span&gt;&lt;/font&gt;&lt;/p&gt;" style="rounded=1;whiteSpace=wrap;html=1;fillColor=#b1ddf0;strokeColor=#10739e;" vertex="1" parent="fItwUCg7H84Hvmo-fhJK-422">
          <mxGeometry x="161" y="128" width="49" height="21" as="geometry" />
        </mxCell>
        <mxCell id="fItwUCg7H84Hvmo-fhJK-439" value="" style="group;strokeColor=#FF4124;" vertex="1" connectable="0" parent="1">
          <mxGeometry x="2084" y="220" width="512" height="370" as="geometry" />
        </mxCell>
        <mxCell id="fItwUCg7H84Hvmo-fhJK-440" value="" style="rounded=1;whiteSpace=wrap;html=1;arcSize=5;fillColor=#f5f5f5;strokeColor=#FF4124;strokeWidth=3;" vertex="1" parent="fItwUCg7H84Hvmo-fhJK-439">
          <mxGeometry x="-6.2950819672131155" y="-0.8651741293532338" width="512" height="366.263184079602" as="geometry" />
        </mxCell>
        <mxCell id="fItwUCg7H84Hvmo-fhJK-441" value="&lt;font style=&quot;font-size: 23px;&quot;&gt;Микросервис-заказ&lt;/font&gt;" style="text;html=1;align=center;verticalAlign=middle;whiteSpace=wrap;rounded=1;fontSize=13;" vertex="1" parent="fItwUCg7H84Hvmo-fhJK-439">
          <mxGeometry x="10.491803278688526" y="4.318138424821003" width="461.6393442622952" height="23.05656324582339" as="geometry" />
        </mxCell>
        <mxCell id="fItwUCg7H84Hvmo-fhJK-442" value="" style="strokeWidth=2;html=1;shape=mxgraph.flowchart.database;whiteSpace=wrap;rounded=1;movable=1;resizable=1;rotatable=1;deletable=1;editable=1;locked=0;connectable=1;container=1;" vertex="1" parent="fItwUCg7H84Hvmo-fhJK-439">
          <mxGeometry x="292" y="103" width="202" height="247" as="geometry" />
        </mxCell>
        <mxCell id="fItwUCg7H84Hvmo-fhJK-443" value="" style="group" vertex="1" connectable="0" parent="fItwUCg7H84Hvmo-fhJK-442">
          <mxGeometry x="23.638018463138735" y="10.42381231671554" width="152.84605382915097" height="51.81818181818183" as="geometry" />
        </mxCell>
        <mxCell id="fItwUCg7H84Hvmo-fhJK-444" value="&lt;p style=&quot;margin: 0px 0px 0px 13px; text-indent: -13px; font-variant-numeric: normal; font-variant-east-asian: normal; font-variant-alternates: normal; font-kerning: auto; font-optical-sizing: auto; font-feature-settings: normal; font-variation-settings: normal; font-variant-position: normal; font-stretch: normal; font-size: 14px; line-height: normal; color: rgb(14, 14, 14); text-align: start;&quot; class=&quot;p1&quot;&gt;&lt;br&gt;&lt;/p&gt;" style="rounded=1;whiteSpace=wrap;html=1;fillColor=#FF77BF;strokeColor=none;arcSize=50;" vertex="1" parent="fItwUCg7H84Hvmo-fhJK-443">
          <mxGeometry y="9.517625231910943" width="152.84605382915097" height="34.897959183673485" as="geometry" />
        </mxCell>
        <mxCell id="fItwUCg7H84Hvmo-fhJK-445" value="&lt;font style=&quot;font-size: 18px;&quot;&gt;&lt;i&gt;PostgreSQL&lt;/i&gt;&lt;/font&gt;" style="text;html=1;align=center;verticalAlign=middle;whiteSpace=wrap;rounded=1;shadow=0;fontSize=23;fontStyle=1" vertex="1" parent="fItwUCg7H84Hvmo-fhJK-443">
          <mxGeometry x="31.37899118346808" width="90.0880714622148" height="51.81818181818183" as="geometry" />
        </mxCell>
        <mxCell id="fItwUCg7H84Hvmo-fhJK-446" style="edgeStyle=orthogonalEdgeStyle;rounded=0;orthogonalLoop=1;jettySize=auto;html=1;exitX=0.5;exitY=1;exitDx=0;exitDy=0;" edge="1" parent="fItwUCg7H84Hvmo-fhJK-442">
          <mxGeometry relative="1" as="geometry">
            <mxPoint x="100.73078923416972" y="114.03561922702997" as="sourcePoint" />
            <mxPoint x="100.73078923416972" y="114.03561922702997" as="targetPoint" />
          </mxGeometry>
        </mxCell>
        <mxCell id="fItwUCg7H84Hvmo-fhJK-447" style="edgeStyle=orthogonalEdgeStyle;rounded=0;orthogonalLoop=1;jettySize=auto;html=1;exitX=0.5;exitY=1;exitDx=0;exitDy=0;" edge="1" parent="fItwUCg7H84Hvmo-fhJK-442">
          <mxGeometry relative="1" as="geometry">
            <mxPoint x="84.1579118450137" y="135.5865793631505" as="sourcePoint" />
            <mxPoint x="84.1579118450137" y="135.5865793631505" as="targetPoint" />
          </mxGeometry>
        </mxCell>
        <mxCell id="fItwUCg7H84Hvmo-fhJK-448" value="&lt;p style=&quot;margin: 0px 0px 0px 13px; text-indent: -13px; font-variant-numeric: normal; font-variant-east-asian: normal; font-variant-alternates: normal; font-kerning: auto; font-optical-sizing: auto; font-feature-settings: normal; font-variation-settings: normal; font-variant-position: normal; font-stretch: normal; font-size: 14px; line-height: normal; color: rgb(14, 14, 14); text-align: start;&quot; class=&quot;p1&quot;&gt;&lt;font face=&quot;Times New Roman&quot;&gt;Товар.ID&lt;/font&gt;&lt;/p&gt;" style="rounded=1;whiteSpace=wrap;html=1;fillColor=#b1ddf0;strokeColor=#10739e;" vertex="1" parent="fItwUCg7H84Hvmo-fhJK-442">
          <mxGeometry x="24" y="85" width="78" height="21" as="geometry" />
        </mxCell>
        <mxCell id="fItwUCg7H84Hvmo-fhJK-449" value="&lt;p style=&quot;margin: 0px 0px 0px 13px; text-indent: -13px; font-variant-numeric: normal; font-variant-east-asian: normal; font-variant-alternates: normal; font-kerning: auto; font-optical-sizing: auto; font-feature-settings: normal; font-variation-settings: normal; font-variant-position: normal; font-stretch: normal; font-size: 14px; line-height: normal; color: rgb(14, 14, 14); text-align: start;&quot; class=&quot;p1&quot;&gt;&lt;font face=&quot;Times New Roman&quot;&gt;Товар.Название&lt;/font&gt;&lt;/p&gt;" style="rounded=1;whiteSpace=wrap;html=1;fillColor=#b1ddf0;strokeColor=#10739e;" vertex="1" parent="fItwUCg7H84Hvmo-fhJK-442">
          <mxGeometry x="26" y="134" width="111" height="21" as="geometry" />
        </mxCell>
        <mxCell id="fItwUCg7H84Hvmo-fhJK-450" value="&lt;p style=&quot;margin: 0px 0px 0px 13px; text-indent: -13px; font-variant-numeric: normal; font-variant-east-asian: normal; font-variant-alternates: normal; font-kerning: auto; font-optical-sizing: auto; font-feature-settings: normal; font-variation-settings: normal; font-variant-position: normal; font-stretch: normal; font-size: 14px; line-height: normal; color: rgb(14, 14, 14); text-align: start;&quot; class=&quot;p1&quot;&gt;&lt;font face=&quot;Times New Roman&quot;&gt;Торговая площадка.Наименование&lt;/font&gt;&lt;/p&gt;" style="rounded=1;whiteSpace=wrap;html=1;fillColor=#b1ddf0;strokeColor=#10739e;" vertex="1" parent="fItwUCg7H84Hvmo-fhJK-442">
          <mxGeometry x="24" y="160" width="167" height="46" as="geometry" />
        </mxCell>
        <mxCell id="fItwUCg7H84Hvmo-fhJK-451" value="&lt;p style=&quot;margin: 0px 0px 0px 13px; text-indent: -13px; font-variant-numeric: normal; font-variant-east-asian: normal; font-variant-alternates: normal; font-kerning: auto; font-optical-sizing: auto; font-feature-settings: normal; font-variation-settings: normal; font-variant-position: normal; font-stretch: normal; font-size: 14px; line-height: normal; color: rgb(14, 14, 14); text-align: start;&quot; class=&quot;p1&quot;&gt;&lt;font face=&quot;Times New Roman&quot;&gt;Торговая площадка.ID&lt;/font&gt;&lt;/p&gt;" style="rounded=1;whiteSpace=wrap;html=1;fillColor=#b1ddf0;strokeColor=#10739e;" vertex="1" parent="fItwUCg7H84Hvmo-fhJK-442">
          <mxGeometry x="26" y="210" width="144.5" height="21" as="geometry" />
        </mxCell>
        <mxCell id="fItwUCg7H84Hvmo-fhJK-452" value="&lt;p style=&quot;margin: 0px 0px 0px 13px; text-indent: -13px; font-variant-numeric: normal; font-variant-east-asian: normal; font-variant-alternates: normal; font-kerning: auto; font-optical-sizing: auto; font-feature-settings: normal; font-variation-settings: normal; font-variant-position: normal; font-stretch: normal; font-size: 14px; line-height: normal; color: rgb(14, 14, 14); text-align: start;&quot; class=&quot;p1&quot;&gt;&lt;span style=&quot;font-family: &amp;quot;Times New Roman&amp;quot;;&quot;&gt;Товар.Описание&lt;/span&gt;&lt;br&gt;&lt;/p&gt;" style="rounded=1;whiteSpace=wrap;html=1;fillColor=#b1ddf0;strokeColor=#10739e;" vertex="1" parent="fItwUCg7H84Hvmo-fhJK-442">
          <mxGeometry x="24" y="109" width="112" height="22" as="geometry" />
        </mxCell>
        <mxCell id="fItwUCg7H84Hvmo-fhJK-453" value="" style="group" vertex="1" connectable="0" parent="fItwUCg7H84Hvmo-fhJK-439">
          <mxGeometry x="15" y="31.997289719626224" width="215.84" height="38.179906542056074" as="geometry" />
        </mxCell>
        <mxCell id="fItwUCg7H84Hvmo-fhJK-454" value="" style="rounded=1;whiteSpace=wrap;html=1;fillColor=#1C57CD;strokeColor=none;" vertex="1" parent="fItwUCg7H84Hvmo-fhJK-453">
          <mxGeometry width="215.83999999999997" height="38.179906542056074" as="geometry" />
        </mxCell>
        <mxCell id="fItwUCg7H84Hvmo-fhJK-455" value="" style="sketch=0;outlineConnect=0;fontColor=#232F3E;gradientColor=none;fillColor=default;strokeColor=none;dashed=0;verticalLabelPosition=bottom;verticalAlign=top;align=center;html=1;fontSize=12;fontStyle=0;aspect=fixed;pointerEvents=1;shape=mxgraph.aws4.gear;rounded=1;" vertex="1" parent="fItwUCg7H84Hvmo-fhJK-453">
          <mxGeometry x="190.89931683505617" y="11.74766355140187" width="8.903159584371862" height="8.903159584371862" as="geometry" />
        </mxCell>
        <mxCell id="fItwUCg7H84Hvmo-fhJK-456" value="Создание заказа" style="text;html=1;align=center;verticalAlign=middle;whiteSpace=wrap;rounded=1;fontSize=13;fontColor=#FFFFFF;strokeColor=none;" vertex="1" parent="fItwUCg7H84Hvmo-fhJK-453">
          <mxGeometry x="2.99" y="4.41" width="121.01" height="29.37" as="geometry" />
        </mxCell>
        <mxCell id="fItwUCg7H84Hvmo-fhJK-457" value="" style="group" vertex="1" connectable="0" parent="fItwUCg7H84Hvmo-fhJK-439">
          <mxGeometry x="15" y="73.00308411214951" width="218.61" height="38.179906542056074" as="geometry" />
        </mxCell>
        <mxCell id="fItwUCg7H84Hvmo-fhJK-458" value="" style="rounded=1;whiteSpace=wrap;html=1;fillColor=#1C57CD;strokeColor=none;" vertex="1" parent="fItwUCg7H84Hvmo-fhJK-457">
          <mxGeometry width="218.61000000000004" height="38.179906542056074" as="geometry" />
        </mxCell>
        <mxCell id="fItwUCg7H84Hvmo-fhJK-459" value="" style="sketch=0;outlineConnect=0;fontColor=#232F3E;gradientColor=none;fillColor=default;strokeColor=none;dashed=0;verticalLabelPosition=bottom;verticalAlign=top;align=center;html=1;fontSize=12;fontStyle=0;aspect=fixed;pointerEvents=1;shape=mxgraph.aws4.gear;rounded=1;" vertex="1" parent="fItwUCg7H84Hvmo-fhJK-457">
          <mxGeometry x="199.50815533980588" y="10.768691588785046" width="10.35922008903878" height="10.35922008903878" as="geometry" />
        </mxCell>
        <mxCell id="fItwUCg7H84Hvmo-fhJK-460" value="Редактирование заказа" style="text;html=1;align=center;verticalAlign=middle;whiteSpace=wrap;rounded=1;fontSize=13;fontColor=#FFFFFF;strokeColor=none;" vertex="1" parent="fItwUCg7H84Hvmo-fhJK-457">
          <mxGeometry x="2.1248892" y="4.405373831775701" width="145.6554708" height="29.36915887850467" as="geometry" />
        </mxCell>
        <mxCell id="fItwUCg7H84Hvmo-fhJK-461" value="" style="group" vertex="1" connectable="0" parent="fItwUCg7H84Hvmo-fhJK-439">
          <mxGeometry x="16.999999999999545" y="113.9968224299065" width="216.54" height="38.179906542056074" as="geometry" />
        </mxCell>
        <mxCell id="fItwUCg7H84Hvmo-fhJK-462" value="" style="rounded=1;whiteSpace=wrap;html=1;fillColor=#1C57CD;strokeColor=none;" vertex="1" parent="fItwUCg7H84Hvmo-fhJK-461">
          <mxGeometry width="216.54000000000002" height="38.179906542056074" as="geometry" />
        </mxCell>
        <mxCell id="fItwUCg7H84Hvmo-fhJK-463" value="" style="sketch=0;outlineConnect=0;fontColor=#232F3E;gradientColor=none;fillColor=default;strokeColor=none;dashed=0;verticalLabelPosition=bottom;verticalAlign=top;align=center;html=1;fontSize=12;fontStyle=0;aspect=fixed;pointerEvents=1;shape=mxgraph.aws4.gear;rounded=1;" vertex="1" parent="fItwUCg7H84Hvmo-fhJK-461">
          <mxGeometry x="197.61902912621358" y="10.768691588785046" width="9.530482481915676" height="9.530482481915676" as="geometry" />
        </mxCell>
        <mxCell id="fItwUCg7H84Hvmo-fhJK-464" value="Сохранение заказа" style="text;html=1;align=center;verticalAlign=middle;whiteSpace=wrap;rounded=1;fontSize=13;fontColor=#FFFFFF;strokeColor=none;" vertex="1" parent="fItwUCg7H84Hvmo-fhJK-461">
          <mxGeometry x="2.8" y="3.92" width="135.2" height="29.37" as="geometry" />
        </mxCell>
        <mxCell id="fItwUCg7H84Hvmo-fhJK-465" value="" style="group" vertex="1" connectable="0" parent="fItwUCg7H84Hvmo-fhJK-439">
          <mxGeometry x="18" y="155.00056074766349" width="216.77" height="38.179906542056074" as="geometry" />
        </mxCell>
        <mxCell id="fItwUCg7H84Hvmo-fhJK-466" value="" style="rounded=1;whiteSpace=wrap;html=1;fillColor=#1C57CD;strokeColor=none;" vertex="1" parent="fItwUCg7H84Hvmo-fhJK-465">
          <mxGeometry width="216.77" height="38.179906542056074" as="geometry" />
        </mxCell>
        <mxCell id="fItwUCg7H84Hvmo-fhJK-467" value="" style="sketch=0;outlineConnect=0;fontColor=#232F3E;gradientColor=none;fillColor=default;strokeColor=none;dashed=0;verticalLabelPosition=bottom;verticalAlign=top;align=center;html=1;fontSize=12;fontStyle=0;aspect=fixed;pointerEvents=1;shape=mxgraph.aws4.gear;rounded=1;" vertex="1" parent="fItwUCg7H84Hvmo-fhJK-465">
          <mxGeometry x="197.47817152103556" y="10.768691588785046" width="9.571919362271831" height="9.571919362271831" as="geometry" />
        </mxCell>
        <mxCell id="fItwUCg7H84Hvmo-fhJK-468" value="Подтверждение заказа" style="text;html=1;align=center;verticalAlign=middle;whiteSpace=wrap;rounded=1;fontSize=13;fontColor=#FFFFFF;strokeColor=none;" vertex="1" parent="fItwUCg7H84Hvmo-fhJK-465">
          <mxGeometry x="2.81" y="4.41" width="162.19" height="29.37" as="geometry" />
        </mxCell>
        <mxCell id="fItwUCg7H84Hvmo-fhJK-469" value="" style="group" vertex="1" connectable="0" parent="fItwUCg7H84Hvmo-fhJK-439">
          <mxGeometry x="20.06999999999971" y="236.3711214953271" width="220.54" height="38.179906542056074" as="geometry" />
        </mxCell>
        <mxCell id="fItwUCg7H84Hvmo-fhJK-470" value="" style="rounded=1;whiteSpace=wrap;html=1;fillColor=#1C57CD;strokeColor=none;" vertex="1" parent="fItwUCg7H84Hvmo-fhJK-469">
          <mxGeometry width="220.54" height="38.179906542056074" as="geometry" />
        </mxCell>
        <mxCell id="fItwUCg7H84Hvmo-fhJK-471" value="" style="sketch=0;outlineConnect=0;fontColor=#232F3E;gradientColor=none;fillColor=default;strokeColor=none;dashed=0;verticalLabelPosition=bottom;verticalAlign=top;align=center;html=1;fontSize=12;fontStyle=0;aspect=fixed;pointerEvents=1;shape=mxgraph.aws4.gear;rounded=1;" vertex="1" parent="fItwUCg7H84Hvmo-fhJK-469">
          <mxGeometry x="200.91265372168283" y="10.768691588785046" width="9.447608721203368" height="9.447608721203368" as="geometry" />
        </mxCell>
        <mxCell id="fItwUCg7H84Hvmo-fhJK-472" value="Отобразить все заказы" style="text;html=1;align=center;verticalAlign=middle;whiteSpace=wrap;rounded=1;fontSize=13;fontColor=#FFFFFF;strokeColor=none;" vertex="1" parent="fItwUCg7H84Hvmo-fhJK-469">
          <mxGeometry x="2.14" y="4.41" width="154.86" height="29.37" as="geometry" />
        </mxCell>
        <mxCell id="fItwUCg7H84Hvmo-fhJK-473" value="" style="group" vertex="1" connectable="0" parent="fItwUCg7H84Hvmo-fhJK-439">
          <mxGeometry x="18.999999999999545" y="195.996355140187" width="218.54" height="38.179906542056074" as="geometry" />
        </mxCell>
        <mxCell id="fItwUCg7H84Hvmo-fhJK-474" value="" style="rounded=1;whiteSpace=wrap;html=1;fillColor=#1C57CD;strokeColor=none;" vertex="1" parent="fItwUCg7H84Hvmo-fhJK-473">
          <mxGeometry width="218.54" height="38.179906542056074" as="geometry" />
        </mxCell>
        <mxCell id="fItwUCg7H84Hvmo-fhJK-475" value="" style="sketch=0;outlineConnect=0;fontColor=#232F3E;gradientColor=none;fillColor=default;strokeColor=none;dashed=0;verticalLabelPosition=bottom;verticalAlign=top;align=center;html=1;fontSize=12;fontStyle=0;aspect=fixed;pointerEvents=1;shape=mxgraph.aws4.gear;rounded=1;" vertex="1" parent="fItwUCg7H84Hvmo-fhJK-473">
          <mxGeometry x="199.09064724919094" y="10.768691588785046" width="9.530482481915676" height="9.530482481915676" as="geometry" />
        </mxCell>
        <mxCell id="fItwUCg7H84Hvmo-fhJK-476" value="Размещение заказа" style="text;html=1;align=center;verticalAlign=middle;whiteSpace=wrap;rounded=1;fontSize=13;fontColor=#FFFFFF;strokeColor=none;" vertex="1" parent="fItwUCg7H84Hvmo-fhJK-473">
          <mxGeometry x="2.12" y="4.41" width="140.88" height="29.37" as="geometry" />
        </mxCell>
        <mxCell id="fItwUCg7H84Hvmo-fhJK-477" value="" style="group" vertex="1" connectable="0" parent="fItwUCg7H84Hvmo-fhJK-439">
          <mxGeometry x="19.609999999999673" y="277.0048598130842" width="221" height="38.179906542056074" as="geometry" />
        </mxCell>
        <mxCell id="fItwUCg7H84Hvmo-fhJK-478" value="" style="rounded=1;whiteSpace=wrap;html=1;fillColor=#1C57CD;strokeColor=none;" vertex="1" parent="fItwUCg7H84Hvmo-fhJK-477">
          <mxGeometry width="221" height="38.179906542056074" as="geometry" />
        </mxCell>
        <mxCell id="fItwUCg7H84Hvmo-fhJK-479" value="" style="sketch=0;outlineConnect=0;fontColor=#232F3E;gradientColor=none;fillColor=default;strokeColor=none;dashed=0;verticalLabelPosition=bottom;verticalAlign=top;align=center;html=1;fontSize=12;fontStyle=0;aspect=fixed;pointerEvents=1;shape=mxgraph.aws4.gear;rounded=1;" vertex="1" parent="fItwUCg7H84Hvmo-fhJK-477">
          <mxGeometry x="201.6893203883495" y="10.768691588785046" width="11.902905060036899" height="11.902905060036899" as="geometry" />
        </mxCell>
        <mxCell id="fItwUCg7H84Hvmo-fhJK-480" value="Отобразить детали заказа" style="text;html=1;align=center;verticalAlign=middle;whiteSpace=wrap;rounded=1;fontSize=13;fontColor=#FFFFFF;strokeColor=none;" vertex="1" parent="fItwUCg7H84Hvmo-fhJK-477">
          <mxGeometry x="3.58" y="4.89" width="172.42" height="29.37" as="geometry" />
        </mxCell>
        <mxCell id="fItwUCg7H84Hvmo-fhJK-481" value="" style="group" vertex="1" connectable="0" parent="fItwUCg7H84Hvmo-fhJK-439">
          <mxGeometry x="20.609999999999673" y="318.0006542056075" width="218" height="38.179906542056074" as="geometry" />
        </mxCell>
        <mxCell id="fItwUCg7H84Hvmo-fhJK-482" value="" style="rounded=1;whiteSpace=wrap;html=1;fillColor=#1C57CD;strokeColor=none;" vertex="1" parent="fItwUCg7H84Hvmo-fhJK-481">
          <mxGeometry width="218" height="38.179906542056074" as="geometry" />
        </mxCell>
        <mxCell id="fItwUCg7H84Hvmo-fhJK-483" value="" style="sketch=0;outlineConnect=0;fontColor=#232F3E;gradientColor=none;fillColor=default;strokeColor=none;dashed=0;verticalLabelPosition=bottom;verticalAlign=top;align=center;html=1;fontSize=12;fontStyle=0;aspect=fixed;pointerEvents=1;shape=mxgraph.aws4.gear;rounded=1;" vertex="1" parent="fItwUCg7H84Hvmo-fhJK-481">
          <mxGeometry x="198.95145631067962" y="10.768691588785046" width="11.741327163294317" height="11.741327163294317" as="geometry" />
        </mxCell>
        <mxCell id="fItwUCg7H84Hvmo-fhJK-484" value="Нотификация об изменении состояния заказа" style="text;html=1;align=center;verticalAlign=middle;whiteSpace=wrap;rounded=1;fontSize=13;fontColor=#FFFFFF;strokeColor=none;" vertex="1" parent="fItwUCg7H84Hvmo-fhJK-481">
          <mxGeometry x="4.233009708737865" y="4.405373831775701" width="174.25889967637542" height="29.36915887850467" as="geometry" />
        </mxCell>
        <mxCell id="fItwUCg7H84Hvmo-fhJK-485" value="" style="group" vertex="1" connectable="0" parent="1">
          <mxGeometry x="1921" y="614" width="515" height="296" as="geometry" />
        </mxCell>
        <mxCell id="fItwUCg7H84Hvmo-fhJK-486" value="" style="rounded=1;whiteSpace=wrap;html=1;arcSize=5;fillColor=#f5f5f5;strokeColor=#FF4124;strokeWidth=3;" vertex="1" parent="fItwUCg7H84Hvmo-fhJK-485">
          <mxGeometry width="515" height="284.50485436893206" as="geometry" />
        </mxCell>
        <mxCell id="fItwUCg7H84Hvmo-fhJK-487" value="&lt;font style=&quot;font-size: 23px;&quot;&gt;Микросервис-товар&lt;/font&gt;" style="text;html=1;align=center;verticalAlign=middle;whiteSpace=wrap;rounded=1;fontSize=13;" vertex="1" parent="fItwUCg7H84Hvmo-fhJK-485">
          <mxGeometry x="9.34" y="10.06" width="256.66" height="32.13" as="geometry" />
        </mxCell>
        <mxCell id="fItwUCg7H84Hvmo-fhJK-488" value="" style="strokeWidth=2;html=1;shape=mxgraph.flowchart.database;whiteSpace=wrap;rounded=1;movable=1;resizable=1;rotatable=1;deletable=1;editable=1;locked=0;connectable=1;container=1;" vertex="1" parent="fItwUCg7H84Hvmo-fhJK-485">
          <mxGeometry x="303" y="30" width="202" height="247" as="geometry" />
        </mxCell>
        <mxCell id="fItwUCg7H84Hvmo-fhJK-489" value="" style="group" vertex="1" connectable="0" parent="fItwUCg7H84Hvmo-fhJK-488">
          <mxGeometry x="23.638018463138735" y="10.42381231671554" width="152.84605382915097" height="51.81818181818183" as="geometry" />
        </mxCell>
        <mxCell id="fItwUCg7H84Hvmo-fhJK-490" value="&lt;p style=&quot;margin: 0px 0px 0px 13px; text-indent: -13px; font-variant-numeric: normal; font-variant-east-asian: normal; font-variant-alternates: normal; font-kerning: auto; font-optical-sizing: auto; font-feature-settings: normal; font-variation-settings: normal; font-variant-position: normal; font-stretch: normal; font-size: 14px; line-height: normal; color: rgb(14, 14, 14); text-align: start;&quot; class=&quot;p1&quot;&gt;&lt;br&gt;&lt;/p&gt;" style="rounded=1;whiteSpace=wrap;html=1;fillColor=#FF77BF;strokeColor=none;arcSize=50;" vertex="1" parent="fItwUCg7H84Hvmo-fhJK-489">
          <mxGeometry y="9.517625231910943" width="152.84605382915097" height="34.897959183673485" as="geometry" />
        </mxCell>
        <mxCell id="fItwUCg7H84Hvmo-fhJK-491" value="&lt;font style=&quot;font-size: 18px;&quot;&gt;&lt;i&gt;PostgreSQL&lt;/i&gt;&lt;/font&gt;" style="text;html=1;align=center;verticalAlign=middle;whiteSpace=wrap;rounded=1;shadow=0;fontSize=23;fontStyle=1" vertex="1" parent="fItwUCg7H84Hvmo-fhJK-489">
          <mxGeometry x="31.37899118346808" width="90.0880714622148" height="51.81818181818183" as="geometry" />
        </mxCell>
        <mxCell id="fItwUCg7H84Hvmo-fhJK-492" style="edgeStyle=orthogonalEdgeStyle;rounded=0;orthogonalLoop=1;jettySize=auto;html=1;exitX=0.5;exitY=1;exitDx=0;exitDy=0;" edge="1" parent="fItwUCg7H84Hvmo-fhJK-488">
          <mxGeometry relative="1" as="geometry">
            <mxPoint x="100.73078923416972" y="114.03561922702997" as="sourcePoint" />
            <mxPoint x="100.73078923416972" y="114.03561922702997" as="targetPoint" />
          </mxGeometry>
        </mxCell>
        <mxCell id="fItwUCg7H84Hvmo-fhJK-493" style="edgeStyle=orthogonalEdgeStyle;rounded=0;orthogonalLoop=1;jettySize=auto;html=1;exitX=0.5;exitY=1;exitDx=0;exitDy=0;" edge="1" parent="fItwUCg7H84Hvmo-fhJK-488">
          <mxGeometry relative="1" as="geometry">
            <mxPoint x="84.1579118450137" y="135.5865793631505" as="sourcePoint" />
            <mxPoint x="84.1579118450137" y="135.5865793631505" as="targetPoint" />
          </mxGeometry>
        </mxCell>
        <mxCell id="fItwUCg7H84Hvmo-fhJK-494" value="&lt;p style=&quot;margin: 0px 0px 0px 13px; text-indent: -13px; font-variant-numeric: normal; font-variant-east-asian: normal; font-variant-alternates: normal; font-kerning: auto; font-optical-sizing: auto; font-feature-settings: normal; font-variation-settings: normal; font-variant-position: normal; font-stretch: normal; font-size: 14px; line-height: normal; color: rgb(14, 14, 14); text-align: start;&quot; class=&quot;p1&quot;&gt;&lt;font face=&quot;Times New Roman&quot;&gt;Товар.ID&lt;/font&gt;&lt;/p&gt;" style="rounded=1;whiteSpace=wrap;html=1;fillColor=#b1ddf0;strokeColor=#10739e;" vertex="1" parent="fItwUCg7H84Hvmo-fhJK-488">
          <mxGeometry x="24" y="85" width="78" height="21" as="geometry" />
        </mxCell>
        <mxCell id="fItwUCg7H84Hvmo-fhJK-495" value="&lt;p style=&quot;margin: 0px 0px 0px 13px; text-indent: -13px; font-variant-numeric: normal; font-variant-east-asian: normal; font-variant-alternates: normal; font-kerning: auto; font-optical-sizing: auto; font-feature-settings: normal; font-variation-settings: normal; font-variant-position: normal; font-stretch: normal; font-size: 14px; line-height: normal; color: rgb(14, 14, 14); text-align: start;&quot; class=&quot;p1&quot;&gt;&lt;font face=&quot;Times New Roman&quot;&gt;Товар.Название&lt;/font&gt;&lt;/p&gt;" style="rounded=1;whiteSpace=wrap;html=1;fillColor=#b1ddf0;strokeColor=#10739e;" vertex="1" parent="fItwUCg7H84Hvmo-fhJK-488">
          <mxGeometry x="26" y="134" width="111" height="21" as="geometry" />
        </mxCell>
        <mxCell id="fItwUCg7H84Hvmo-fhJK-496" value="&lt;p style=&quot;margin: 0px 0px 0px 13px; text-indent: -13px; font-variant-numeric: normal; font-variant-east-asian: normal; font-variant-alternates: normal; font-kerning: auto; font-optical-sizing: auto; font-feature-settings: normal; font-variation-settings: normal; font-variant-position: normal; font-stretch: normal; font-size: 14px; line-height: normal; color: rgb(14, 14, 14); text-align: start;&quot; class=&quot;p1&quot;&gt;&lt;font face=&quot;Times New Roman&quot;&gt;Торговая площадка.Наименование&lt;/font&gt;&lt;/p&gt;" style="rounded=1;whiteSpace=wrap;html=1;fillColor=#b1ddf0;strokeColor=#10739e;" vertex="1" parent="fItwUCg7H84Hvmo-fhJK-488">
          <mxGeometry x="24" y="160" width="167" height="46" as="geometry" />
        </mxCell>
        <mxCell id="fItwUCg7H84Hvmo-fhJK-497" value="&lt;p style=&quot;margin: 0px 0px 0px 13px; text-indent: -13px; font-variant-numeric: normal; font-variant-east-asian: normal; font-variant-alternates: normal; font-kerning: auto; font-optical-sizing: auto; font-feature-settings: normal; font-variation-settings: normal; font-variant-position: normal; font-stretch: normal; font-size: 14px; line-height: normal; color: rgb(14, 14, 14); text-align: start;&quot; class=&quot;p1&quot;&gt;&lt;font face=&quot;Times New Roman&quot;&gt;Торговая площадка.ID&lt;/font&gt;&lt;/p&gt;" style="rounded=1;whiteSpace=wrap;html=1;fillColor=#b1ddf0;strokeColor=#10739e;" vertex="1" parent="fItwUCg7H84Hvmo-fhJK-488">
          <mxGeometry x="26" y="210" width="144.5" height="21" as="geometry" />
        </mxCell>
        <mxCell id="fItwUCg7H84Hvmo-fhJK-498" value="&lt;p style=&quot;margin: 0px 0px 0px 13px; text-indent: -13px; font-variant-numeric: normal; font-variant-east-asian: normal; font-variant-alternates: normal; font-kerning: auto; font-optical-sizing: auto; font-feature-settings: normal; font-variation-settings: normal; font-variant-position: normal; font-stretch: normal; font-size: 14px; line-height: normal; color: rgb(14, 14, 14); text-align: start;&quot; class=&quot;p1&quot;&gt;&lt;span style=&quot;font-family: &amp;quot;Times New Roman&amp;quot;;&quot;&gt;Товар.Описание&lt;/span&gt;&lt;br&gt;&lt;/p&gt;" style="rounded=1;whiteSpace=wrap;html=1;fillColor=#b1ddf0;strokeColor=#10739e;" vertex="1" parent="fItwUCg7H84Hvmo-fhJK-488">
          <mxGeometry x="24" y="109" width="112" height="22" as="geometry" />
        </mxCell>
        <mxCell id="fItwUCg7H84Hvmo-fhJK-499" value="" style="group" vertex="1" connectable="0" parent="fItwUCg7H84Hvmo-fhJK-485">
          <mxGeometry x="11" y="104" width="278" height="39" as="geometry" />
        </mxCell>
        <mxCell id="fItwUCg7H84Hvmo-fhJK-500" value="" style="rounded=1;whiteSpace=wrap;html=1;fillColor=#1C57CD;strokeColor=none;" vertex="1" parent="fItwUCg7H84Hvmo-fhJK-499">
          <mxGeometry width="278" height="39" as="geometry" />
        </mxCell>
        <mxCell id="fItwUCg7H84Hvmo-fhJK-501" value="" style="sketch=0;outlineConnect=0;fontColor=#232F3E;gradientColor=none;fillColor=#FFFFFF;strokeColor=none;dashed=0;verticalLabelPosition=bottom;verticalAlign=top;align=center;html=1;fontSize=12;fontStyle=0;aspect=fixed;pointerEvents=1;shape=mxgraph.aws4.gear;rounded=1;" vertex="1" parent="fItwUCg7H84Hvmo-fhJK-499">
          <mxGeometry x="257.3074433656958" y="11" width="15.294498381877021" height="15.294498381877021" as="geometry" />
        </mxCell>
        <mxCell id="fItwUCg7H84Hvmo-fhJK-502" value="Изменить товар пользователя" style="text;html=1;align=center;verticalAlign=middle;whiteSpace=wrap;rounded=1;fontSize=13;fontColor=#FFFFFF;strokeColor=none;" vertex="1" parent="fItwUCg7H84Hvmo-fhJK-499">
          <mxGeometry x="6.297734627831715" y="3" width="175.4368932038835" height="30" as="geometry" />
        </mxCell>
        <mxCell id="fItwUCg7H84Hvmo-fhJK-503" value="" style="group" vertex="1" connectable="0" parent="fItwUCg7H84Hvmo-fhJK-485">
          <mxGeometry x="11" y="147" width="278" height="39" as="geometry" />
        </mxCell>
        <mxCell id="fItwUCg7H84Hvmo-fhJK-504" value="" style="rounded=1;whiteSpace=wrap;html=1;fillColor=#1C57CD;strokeColor=none;" vertex="1" parent="fItwUCg7H84Hvmo-fhJK-503">
          <mxGeometry width="278" height="39" as="geometry" />
        </mxCell>
        <mxCell id="fItwUCg7H84Hvmo-fhJK-505" value="" style="sketch=0;outlineConnect=0;fontColor=#232F3E;gradientColor=none;fillColor=default;strokeColor=none;dashed=0;verticalLabelPosition=bottom;verticalAlign=top;align=center;html=1;fontSize=12;fontStyle=0;aspect=fixed;pointerEvents=1;shape=mxgraph.aws4.gear;rounded=1;" vertex="1" parent="fItwUCg7H84Hvmo-fhJK-503">
          <mxGeometry x="253.70873786407765" y="11" width="15.294498381877021" height="15.294498381877021" as="geometry" />
        </mxCell>
        <mxCell id="fItwUCg7H84Hvmo-fhJK-506" value="Удалить товар пользователя" style="text;html=1;align=center;verticalAlign=middle;whiteSpace=wrap;rounded=1;fontSize=13;fontColor=#FFFFFF;strokeColor=none;" vertex="1" parent="fItwUCg7H84Hvmo-fhJK-503">
          <mxGeometry x="1.7993527508090614" y="4.5" width="169.13915857605178" height="30" as="geometry" />
        </mxCell>
        <mxCell id="fItwUCg7H84Hvmo-fhJK-507" value="" style="group" vertex="1" connectable="0" parent="fItwUCg7H84Hvmo-fhJK-485">
          <mxGeometry x="11" y="189" width="278" height="39" as="geometry" />
        </mxCell>
        <mxCell id="fItwUCg7H84Hvmo-fhJK-508" value="" style="rounded=1;whiteSpace=wrap;html=1;fillColor=#1C57CD;strokeColor=none;" vertex="1" parent="fItwUCg7H84Hvmo-fhJK-507">
          <mxGeometry width="278" height="39" as="geometry" />
        </mxCell>
        <mxCell id="fItwUCg7H84Hvmo-fhJK-509" value="" style="sketch=0;outlineConnect=0;fontColor=#232F3E;gradientColor=none;fillColor=#FFFFFF;strokeColor=none;dashed=0;verticalLabelPosition=bottom;verticalAlign=top;align=center;html=1;fontSize=12;fontStyle=0;aspect=fixed;pointerEvents=1;shape=mxgraph.aws4.gear;rounded=1;" vertex="1" parent="fItwUCg7H84Hvmo-fhJK-507">
          <mxGeometry x="257.3074433656958" y="11" width="11.988913247729407" height="11.988913247729407" as="geometry" />
        </mxCell>
        <mxCell id="fItwUCg7H84Hvmo-fhJK-510" value="Поиск товаров" style="text;html=1;align=center;verticalAlign=middle;whiteSpace=wrap;rounded=1;fontSize=13;fontColor=#FFFFFF;strokeColor=none;" vertex="1" parent="fItwUCg7H84Hvmo-fhJK-507">
          <mxGeometry x="2.699029126213592" y="4.5" width="89.06796116504853" height="30" as="geometry" />
        </mxCell>
        <mxCell id="fItwUCg7H84Hvmo-fhJK-511" value="" style="group" vertex="1" connectable="0" parent="fItwUCg7H84Hvmo-fhJK-485">
          <mxGeometry x="11" y="61" width="278" height="39" as="geometry" />
        </mxCell>
        <mxCell id="fItwUCg7H84Hvmo-fhJK-512" value="" style="rounded=1;whiteSpace=wrap;html=1;fillColor=#1C57CD;strokeColor=none;" vertex="1" parent="fItwUCg7H84Hvmo-fhJK-511">
          <mxGeometry width="278" height="39" as="geometry" />
        </mxCell>
        <mxCell id="fItwUCg7H84Hvmo-fhJK-513" value="" style="sketch=0;outlineConnect=0;fontColor=#232F3E;gradientColor=none;fillColor=#FFFFFF;strokeColor=none;dashed=0;verticalLabelPosition=bottom;verticalAlign=top;align=center;html=1;fontSize=12;fontStyle=0;aspect=fixed;pointerEvents=1;shape=mxgraph.aws4.gear;rounded=1;" vertex="1" parent="fItwUCg7H84Hvmo-fhJK-511">
          <mxGeometry x="257.3074433656958" y="11" width="15.294498381877021" height="15.294498381877021" as="geometry" />
        </mxCell>
        <mxCell id="fItwUCg7H84Hvmo-fhJK-514" value="Добавить товар в профиль пользователя" style="text;html=1;align=center;verticalAlign=middle;whiteSpace=wrap;rounded=1;fontSize=13;fontColor=#FFFFFF;strokeColor=none;" vertex="1" parent="fItwUCg7H84Hvmo-fhJK-511">
          <mxGeometry x="7.197411003236246" y="4" width="235.71521035598704" height="30" as="geometry" />
        </mxCell>
        <mxCell id="fItwUCg7H84Hvmo-fhJK-418" value="" style="group" vertex="1" connectable="0" parent="fItwUCg7H84Hvmo-fhJK-485">
          <mxGeometry x="11" y="231" width="279" height="39" as="geometry" />
        </mxCell>
        <mxCell id="fItwUCg7H84Hvmo-fhJK-419" value="" style="rounded=1;whiteSpace=wrap;html=1;fillColor=#1C57CD;strokeColor=none;" vertex="1" parent="fItwUCg7H84Hvmo-fhJK-418">
          <mxGeometry width="279" height="39" as="geometry" />
        </mxCell>
        <mxCell id="fItwUCg7H84Hvmo-fhJK-420" value="" style="sketch=0;outlineConnect=0;fontColor=#232F3E;gradientColor=none;fillColor=#FFFFFF;strokeColor=none;dashed=0;verticalLabelPosition=bottom;verticalAlign=top;align=center;html=1;fontSize=12;fontStyle=0;aspect=fixed;pointerEvents=1;shape=mxgraph.aws4.gear;rounded=1;" vertex="1" parent="fItwUCg7H84Hvmo-fhJK-418">
          <mxGeometry x="258.2330097087379" y="11" width="15.349514563106798" height="15.349514563106798" as="geometry" />
        </mxCell>
        <mxCell id="fItwUCg7H84Hvmo-fhJK-421" value="Фильтрация и сортировка результатов" style="text;html=1;align=center;verticalAlign=middle;whiteSpace=wrap;rounded=1;fontSize=13;fontColor=#FFFFFF;strokeColor=none;" vertex="1" parent="fItwUCg7H84Hvmo-fhJK-418">
          <mxGeometry x="4.51" y="4.5" width="236.49" height="30" as="geometry" />
        </mxCell>
        <mxCell id="fItwUCg7H84Hvmo-fhJK-516" value="" style="group;strokeColor=#FF4124;" vertex="1" connectable="0" parent="1">
          <mxGeometry x="1381" y="897" width="477" height="265" as="geometry" />
        </mxCell>
        <mxCell id="fItwUCg7H84Hvmo-fhJK-517" value="" style="rounded=1;whiteSpace=wrap;html=1;arcSize=5;fillColor=#f5f5f5;strokeColor=#FF4124;strokeWidth=3;" vertex="1" parent="fItwUCg7H84Hvmo-fhJK-516">
          <mxGeometry y="1.432200647249191" width="477" height="255.8493527508091" as="geometry" />
        </mxCell>
        <mxCell id="fItwUCg7H84Hvmo-fhJK-518" value="&lt;font style=&quot;font-size: 23px;&quot;&gt;Микрос&lt;/font&gt;&lt;span style=&quot;font-size: 23px; background-color: initial;&quot;&gt;ервис-аукцион&lt;/span&gt;" style="text;html=1;align=center;verticalAlign=middle;whiteSpace=wrap;rounded=1;fontSize=13;" vertex="1" parent="fItwUCg7H84Hvmo-fhJK-516">
          <mxGeometry x="216" y="7" width="255.66" height="17.49" as="geometry" />
        </mxCell>
        <mxCell id="fItwUCg7H84Hvmo-fhJK-519" value="" style="group" vertex="1" connectable="0" parent="fItwUCg7H84Hvmo-fhJK-516">
          <mxGeometry x="11" y="24.00243902439024" width="243" height="35.670731707317074" as="geometry" />
        </mxCell>
        <mxCell id="fItwUCg7H84Hvmo-fhJK-520" value="" style="rounded=1;whiteSpace=wrap;html=1;fillColor=#1C57CD;strokeColor=none;" vertex="1" parent="fItwUCg7H84Hvmo-fhJK-519">
          <mxGeometry width="243" height="35.670731707317074" as="geometry" />
        </mxCell>
        <mxCell id="fItwUCg7H84Hvmo-fhJK-521" value="" style="sketch=0;outlineConnect=0;fontColor=#232F3E;gradientColor=none;fillColor=#FFFFFF;strokeColor=none;dashed=0;verticalLabelPosition=bottom;verticalAlign=top;align=center;html=1;fontSize=12;fontStyle=0;aspect=fixed;pointerEvents=1;shape=mxgraph.aws4.gear;rounded=1;" vertex="1" parent="fItwUCg7H84Hvmo-fhJK-519">
          <mxGeometry x="224.9126213592233" y="10.060975609756097" width="12.227681742836845" height="12.227681742836845" as="geometry" />
        </mxCell>
        <mxCell id="fItwUCg7H84Hvmo-fhJK-522" value="Создать аукцион" style="text;html=1;align=center;verticalAlign=middle;whiteSpace=wrap;rounded=1;fontSize=13;fontColor=#FFFFFF;strokeColor=none;" vertex="1" parent="fItwUCg7H84Hvmo-fhJK-519">
          <mxGeometry x="2.3592233009708736" y="4.115853658536586" width="88.86407766990291" height="27.439024390243905" as="geometry" />
        </mxCell>
        <mxCell id="fItwUCg7H84Hvmo-fhJK-523" value="" style="group" vertex="1" connectable="0" parent="fItwUCg7H84Hvmo-fhJK-516">
          <mxGeometry x="10" y="62.995609756097565" width="244" height="35.670731707317074" as="geometry" />
        </mxCell>
        <mxCell id="fItwUCg7H84Hvmo-fhJK-524" value="" style="rounded=1;whiteSpace=wrap;html=1;fillColor=#1C57CD;strokeColor=none;" vertex="1" parent="fItwUCg7H84Hvmo-fhJK-523">
          <mxGeometry width="243.99999999999997" height="35.670731707317074" as="geometry" />
        </mxCell>
        <mxCell id="fItwUCg7H84Hvmo-fhJK-525" value="" style="sketch=0;outlineConnect=0;fontColor=#232F3E;gradientColor=none;fillColor=#FFFFFF;strokeColor=none;dashed=0;verticalLabelPosition=bottom;verticalAlign=top;align=center;html=1;fontSize=12;fontStyle=0;aspect=fixed;pointerEvents=1;shape=mxgraph.aws4.gear;rounded=1;" vertex="1" parent="fItwUCg7H84Hvmo-fhJK-523">
          <mxGeometry x="225.83818770226534" y="10.060975609756097" width="12.278001420790906" height="12.278001420790906" as="geometry" />
        </mxCell>
        <mxCell id="fItwUCg7H84Hvmo-fhJK-526" value="Редактировать аукцион" style="text;html=1;align=center;verticalAlign=middle;whiteSpace=wrap;rounded=1;fontSize=13;fontColor=#FFFFFF;strokeColor=none;" vertex="1" parent="fItwUCg7H84Hvmo-fhJK-523">
          <mxGeometry x="2.3689320388349513" y="4.115853658536586" width="126.3430420711974" height="27.439024390243905" as="geometry" />
        </mxCell>
        <mxCell id="fItwUCg7H84Hvmo-fhJK-527" value="" style="group" vertex="1" connectable="0" parent="fItwUCg7H84Hvmo-fhJK-516">
          <mxGeometry x="11" y="101.14878048780497" width="244" height="35.670731707317074" as="geometry" />
        </mxCell>
        <mxCell id="fItwUCg7H84Hvmo-fhJK-528" value="" style="rounded=1;whiteSpace=wrap;html=1;fillColor=#1C57CD;strokeColor=none;" vertex="1" parent="fItwUCg7H84Hvmo-fhJK-527">
          <mxGeometry width="243.99999999999997" height="35.670731707317074" as="geometry" />
        </mxCell>
        <mxCell id="fItwUCg7H84Hvmo-fhJK-529" value="" style="sketch=0;outlineConnect=0;fontColor=#232F3E;gradientColor=none;fillColor=#FFFFFF;strokeColor=none;dashed=0;verticalLabelPosition=bottom;verticalAlign=top;align=center;html=1;fontSize=12;fontStyle=0;aspect=fixed;pointerEvents=1;shape=mxgraph.aws4.gear;rounded=1;" vertex="1" parent="fItwUCg7H84Hvmo-fhJK-527">
          <mxGeometry x="225.83818770226534" y="10.060975609756097" width="12.278001420790906" height="12.278001420790906" as="geometry" />
        </mxCell>
        <mxCell id="fItwUCg7H84Hvmo-fhJK-530" value="Обновление ставок аукциона" style="text;html=1;align=center;verticalAlign=middle;whiteSpace=wrap;rounded=1;fontSize=13;fontColor=#FFFFFF;strokeColor=none;" vertex="1" parent="fItwUCg7H84Hvmo-fhJK-527">
          <mxGeometry x="3.158576051779935" y="4.115853658536586" width="149.24271844660194" height="27.439024390243905" as="geometry" />
        </mxCell>
        <mxCell id="fItwUCg7H84Hvmo-fhJK-531" value="" style="group" vertex="1" connectable="0" parent="fItwUCg7H84Hvmo-fhJK-516">
          <mxGeometry x="10" y="139.0019512195122" width="244" height="35.670731707317074" as="geometry" />
        </mxCell>
        <mxCell id="fItwUCg7H84Hvmo-fhJK-532" value="" style="rounded=1;whiteSpace=wrap;html=1;fillColor=#1C57CD;strokeColor=none;" vertex="1" parent="fItwUCg7H84Hvmo-fhJK-531">
          <mxGeometry width="243.99999999999997" height="35.670731707317074" as="geometry" />
        </mxCell>
        <mxCell id="fItwUCg7H84Hvmo-fhJK-533" value="" style="sketch=0;outlineConnect=0;fontColor=#232F3E;gradientColor=none;fillColor=#FFFFFF;strokeColor=none;dashed=0;verticalLabelPosition=bottom;verticalAlign=top;align=center;html=1;fontSize=12;fontStyle=0;aspect=fixed;pointerEvents=1;shape=mxgraph.aws4.gear;rounded=1;" vertex="1" parent="fItwUCg7H84Hvmo-fhJK-531">
          <mxGeometry x="225.83818770226534" y="10.060975609756097" width="12.278001420790906" height="12.278001420790906" as="geometry" />
        </mxCell>
        <mxCell id="fItwUCg7H84Hvmo-fhJK-534" value="Нотификация участника аукциона" style="text;html=1;align=center;verticalAlign=middle;whiteSpace=wrap;rounded=1;fontSize=13;fontColor=#FFFFFF;strokeColor=none;" vertex="1" parent="fItwUCg7H84Hvmo-fhJK-531">
          <mxGeometry x="2.3689320388349513" y="4.115853658536586" width="172.14239482200645" height="27.439024390243905" as="geometry" />
        </mxCell>
        <mxCell id="fItwUCg7H84Hvmo-fhJK-535" value="" style="group" vertex="1" connectable="0" parent="fItwUCg7H84Hvmo-fhJK-516">
          <mxGeometry x="13" y="177.00048780487805" width="241" height="35.670731707317074" as="geometry" />
        </mxCell>
        <mxCell id="fItwUCg7H84Hvmo-fhJK-536" value="" style="rounded=1;whiteSpace=wrap;html=1;fillColor=#1C57CD;strokeColor=none;" vertex="1" parent="fItwUCg7H84Hvmo-fhJK-535">
          <mxGeometry width="240.99999999999997" height="35.670731707317074" as="geometry" />
        </mxCell>
        <mxCell id="fItwUCg7H84Hvmo-fhJK-537" value="" style="sketch=0;outlineConnect=0;fontColor=#232F3E;gradientColor=none;fillColor=#FFFFFF;strokeColor=none;dashed=0;verticalLabelPosition=bottom;verticalAlign=top;align=center;html=1;fontSize=12;fontStyle=0;aspect=fixed;pointerEvents=1;shape=mxgraph.aws4.gear;rounded=1;" vertex="1" parent="fItwUCg7H84Hvmo-fhJK-535">
          <mxGeometry x="218.3818770226537" y="10.060975609756097" width="12.127042386928723" height="12.127042386928723" as="geometry" />
        </mxCell>
        <mxCell id="fItwUCg7H84Hvmo-fhJK-538" value="Обновление статуса аукциона" style="text;html=1;align=center;verticalAlign=middle;whiteSpace=wrap;rounded=1;fontSize=13;fontColor=#FFFFFF;strokeColor=none;" vertex="1" parent="fItwUCg7H84Hvmo-fhJK-535">
          <mxGeometry y="4.115853658536586" width="157.54692556634302" height="27.439024390243905" as="geometry" />
        </mxCell>
        <mxCell id="fItwUCg7H84Hvmo-fhJK-539" value="" style="group" vertex="1" connectable="0" parent="fItwUCg7H84Hvmo-fhJK-516">
          <mxGeometry x="13" y="215" width="240" height="39" as="geometry" />
        </mxCell>
        <mxCell id="fItwUCg7H84Hvmo-fhJK-540" value="" style="rounded=1;whiteSpace=wrap;html=1;fillColor=#1C57CD;strokeColor=none;" vertex="1" parent="fItwUCg7H84Hvmo-fhJK-539">
          <mxGeometry width="240" height="39" as="geometry" />
        </mxCell>
        <mxCell id="fItwUCg7H84Hvmo-fhJK-541" value="" style="sketch=0;outlineConnect=0;fontColor=#232F3E;gradientColor=none;fillColor=#FFFFFF;strokeColor=none;dashed=0;verticalLabelPosition=bottom;verticalAlign=top;align=center;html=1;fontSize=12;fontStyle=0;aspect=fixed;pointerEvents=1;shape=mxgraph.aws4.gear;rounded=1;" vertex="1" parent="fItwUCg7H84Hvmo-fhJK-539">
          <mxGeometry x="222.13592233009712" y="11" width="13.203883495145632" height="13.203883495145632" as="geometry" />
        </mxCell>
        <mxCell id="fItwUCg7H84Hvmo-fhJK-542" value="Обработать новую заявку на аукцион" style="text;html=1;align=center;verticalAlign=middle;whiteSpace=wrap;rounded=1;fontSize=13;fontColor=#FFFFFF;strokeColor=none;" vertex="1" parent="fItwUCg7H84Hvmo-fhJK-539">
          <mxGeometry x="2.3300970873786406" y="4.5" width="187.1844660194175" height="30" as="geometry" />
        </mxCell>
        <mxCell id="fItwUCg7H84Hvmo-fhJK-543" value="" style="strokeWidth=2;html=1;shape=mxgraph.flowchart.database;whiteSpace=wrap;rounded=1;movable=1;resizable=1;rotatable=1;deletable=1;editable=1;locked=0;connectable=1;container=1;" vertex="1" parent="fItwUCg7H84Hvmo-fhJK-516">
          <mxGeometry x="298" y="55" width="153.82" height="155" as="geometry" />
        </mxCell>
        <mxCell id="fItwUCg7H84Hvmo-fhJK-544" value="" style="group" vertex="1" connectable="0" parent="fItwUCg7H84Hvmo-fhJK-543">
          <mxGeometry x="18" y="6.54125874125874" width="116.39" height="32.51748251748252" as="geometry" />
        </mxCell>
        <mxCell id="fItwUCg7H84Hvmo-fhJK-545" value="&lt;p style=&quot;margin: 0px 0px 0px 13px; text-indent: -13px; font-variant-numeric: normal; font-variant-east-asian: normal; font-variant-alternates: normal; font-kerning: auto; font-optical-sizing: auto; font-feature-settings: normal; font-variation-settings: normal; font-variant-position: normal; font-stretch: normal; font-size: 14px; line-height: normal; color: rgb(14, 14, 14); text-align: start;&quot; class=&quot;p1&quot;&gt;&lt;br&gt;&lt;/p&gt;" style="rounded=1;whiteSpace=wrap;html=1;fillColor=#FF77BF;strokeColor=none;arcSize=50;" vertex="1" parent="fItwUCg7H84Hvmo-fhJK-544">
          <mxGeometry y="5.972598829741685" width="116.39000000000001" height="21.89952904238618" as="geometry" />
        </mxCell>
        <mxCell id="fItwUCg7H84Hvmo-fhJK-546" value="&lt;font style=&quot;font-size: 18px;&quot;&gt;&lt;i&gt;PostgreSQL&lt;/i&gt;&lt;/font&gt;" style="text;html=1;align=center;verticalAlign=middle;whiteSpace=wrap;rounded=1;shadow=0;fontSize=23;fontStyle=1" vertex="1" parent="fItwUCg7H84Hvmo-fhJK-544">
          <mxGeometry x="23.894635761589406" width="68.60072847682119" height="32.51748251748252" as="geometry" />
        </mxCell>
        <mxCell id="fItwUCg7H84Hvmo-fhJK-547" style="edgeStyle=orthogonalEdgeStyle;rounded=0;orthogonalLoop=1;jettySize=auto;html=1;exitX=0.5;exitY=1;exitDx=0;exitDy=0;" edge="1" parent="fItwUCg7H84Hvmo-fhJK-543">
          <mxGeometry relative="1" as="geometry">
            <mxPoint x="76.70499999999993" y="71.56081368497831" as="sourcePoint" />
            <mxPoint x="76.70499999999993" y="71.56081368497831" as="targetPoint" />
          </mxGeometry>
        </mxCell>
        <mxCell id="fItwUCg7H84Hvmo-fhJK-548" style="edgeStyle=orthogonalEdgeStyle;rounded=0;orthogonalLoop=1;jettySize=auto;html=1;exitX=0.5;exitY=1;exitDx=0;exitDy=0;" edge="1" parent="fItwUCg7H84Hvmo-fhJK-543">
          <mxGeometry relative="1" as="geometry">
            <mxPoint x="64.08500000000004" y="85.0846955517746" as="sourcePoint" />
            <mxPoint x="64.08500000000004" y="85.0846955517746" as="targetPoint" />
          </mxGeometry>
        </mxCell>
        <mxCell id="fItwUCg7H84Hvmo-fhJK-549" value="&lt;p style=&quot;margin: 0px 0px 0px 13px; text-indent: -13px; font-variant-numeric: normal; font-variant-east-asian: normal; font-variant-alternates: normal; font-kerning: auto; font-optical-sizing: auto; font-feature-settings: normal; font-variation-settings: normal; font-variant-position: normal; font-stretch: normal; font-size: 14px; line-height: normal; color: rgb(14, 14, 14); text-align: start;&quot; class=&quot;p1&quot;&gt;&lt;font face=&quot;Times New Roman&quot;&gt;Заявка на аукцион.ID&lt;/font&gt;&lt;/p&gt;" style="rounded=1;whiteSpace=wrap;html=1;fillColor=#b1ddf0;strokeColor=#10739e;" vertex="1" parent="fItwUCg7H84Hvmo-fhJK-543">
          <mxGeometry x="10" y="60" width="136" height="21" as="geometry" />
        </mxCell>
        <mxCell id="fItwUCg7H84Hvmo-fhJK-550" value="&lt;p style=&quot;margin: 0px 0px 0px 13px; text-indent: -13px; font-variant-numeric: normal; font-variant-east-asian: normal; font-variant-alternates: normal; font-kerning: auto; font-optical-sizing: auto; font-feature-settings: normal; font-variation-settings: normal; font-variant-position: normal; font-stretch: normal; line-height: normal; color: rgb(14, 14, 14); text-align: start;&quot; class=&quot;p1&quot;&gt;&lt;font style=&quot;font-size: 14px;&quot; face=&quot;Times New Roman&quot;&gt;Заявка на регистрацию&lt;/font&gt;&lt;/p&gt;" style="rounded=1;whiteSpace=wrap;html=1;fillColor=#b1ddf0;strokeColor=#10739e;" vertex="1" parent="fItwUCg7H84Hvmo-fhJK-543">
          <mxGeometry x="4" y="84" width="145" height="21" as="geometry" />
        </mxCell>
        <mxCell id="fItwUCg7H84Hvmo-fhJK-552" value="" style="endArrow=classic;html=1;rounded=1;dashed=1;entryX=0.002;entryY=0.418;entryDx=0;entryDy=0;entryPerimeter=0;" edge="1" parent="1" target="fItwUCg7H84Hvmo-fhJK-288">
          <mxGeometry width="50" height="50" relative="1" as="geometry">
            <mxPoint x="1070" y="670.4343434343436" as="sourcePoint" />
            <mxPoint x="1302" y="707" as="targetPoint" />
            <Array as="points" />
          </mxGeometry>
        </mxCell>
        <mxCell id="fItwUCg7H84Hvmo-fhJK-553" value="Редактировать аукцион&lt;div&gt;Валидировать заявку&lt;/div&gt;" style="text;html=1;align=center;verticalAlign=middle;whiteSpace=wrap;rounded=1;fontSize=13;arcSize=50;" vertex="1" parent="1">
          <mxGeometry x="1070" y="415" width="193" height="58" as="geometry" />
        </mxCell>
        <mxCell id="fItwUCg7H84Hvmo-fhJK-554" value="" style="endArrow=classic;html=1;rounded=1;dashed=1;entryX=0;entryY=0.5;entryDx=0;entryDy=0;" edge="1" parent="1" target="fItwUCg7H84Hvmo-fhJK-265">
          <mxGeometry width="50" height="50" relative="1" as="geometry">
            <mxPoint x="1065" y="446" as="sourcePoint" />
            <mxPoint x="1335" y="412" as="targetPoint" />
            <Array as="points" />
          </mxGeometry>
        </mxCell>
        <mxCell id="fItwUCg7H84Hvmo-fhJK-556" value="4" style="ellipse;whiteSpace=wrap;html=1;aspect=fixed;rounded=1;fillColor=#FF77BF;" vertex="1" parent="1">
          <mxGeometry x="3267" y="190" width="23" height="23" as="geometry" />
        </mxCell>
        <mxCell id="fItwUCg7H84Hvmo-fhJK-558" value="" style="endArrow=classic;html=1;rounded=1;exitX=0.5;exitY=0;exitDx=0;exitDy=0;curved=0;entryX=0.837;entryY=1.005;entryDx=0;entryDy=0;entryPerimeter=0;" edge="1" parent="1">
          <mxGeometry width="50" height="50" relative="1" as="geometry">
            <mxPoint x="3278.5" y="190" as="sourcePoint" />
            <mxPoint x="3280" y="-215" as="targetPoint" />
            <Array as="points">
              <mxPoint x="3280" y="-75" />
            </Array>
          </mxGeometry>
        </mxCell>
        <mxCell id="fItwUCg7H84Hvmo-fhJK-559" value="&lt;font style=&quot;font-size: 12px;&quot;&gt;Запросить статус платежа&lt;/font&gt;" style="edgeLabel;html=1;align=center;verticalAlign=middle;resizable=0;points=[];rounded=1;" vertex="1" connectable="0" parent="fItwUCg7H84Hvmo-fhJK-558">
          <mxGeometry x="-0.4407" y="-1" relative="1" as="geometry">
            <mxPoint x="-75" y="28" as="offset" />
          </mxGeometry>
        </mxCell>
        <mxCell id="fItwUCg7H84Hvmo-fhJK-560" value="" style="endArrow=classic;html=1;rounded=1;curved=0;entryX=0.893;entryY=0.005;entryDx=0;entryDy=0;entryPerimeter=0;" edge="1" parent="1" target="fItwUCg7H84Hvmo-fhJK-324">
          <mxGeometry width="50" height="50" relative="1" as="geometry">
            <mxPoint x="3360" y="-210" as="sourcePoint" />
            <mxPoint x="3358" y="218" as="targetPoint" />
            <Array as="points" />
          </mxGeometry>
        </mxCell>
        <mxCell id="fItwUCg7H84Hvmo-fhJK-561" value="&lt;font style=&quot;font-size: 12px;&quot;&gt;Подтверждение отмены&amp;nbsp;&lt;/font&gt;&lt;div&gt;&lt;font style=&quot;font-size: 12px;&quot;&gt;платежа&lt;/font&gt;&lt;/div&gt;" style="edgeLabel;html=1;align=center;verticalAlign=middle;resizable=0;points=[];rounded=1;" vertex="1" connectable="0" parent="fItwUCg7H84Hvmo-fhJK-560">
          <mxGeometry x="0.1936" y="1" relative="1" as="geometry">
            <mxPoint x="8" y="65" as="offset" />
          </mxGeometry>
        </mxCell>
        <mxCell id="fItwUCg7H84Hvmo-fhJK-562" value="" style="endArrow=classic;html=1;rounded=1;curved=0;entryX=0.68;entryY=1.001;entryDx=0;entryDy=0;entryPerimeter=0;exitX=0.5;exitY=0;exitDx=0;exitDy=0;" edge="1" parent="1">
          <mxGeometry width="50" height="50" relative="1" as="geometry">
            <mxPoint x="3208" y="183" as="sourcePoint" />
            <mxPoint x="3203.9200000000005" y="-216.9960000000001" as="targetPoint" />
            <Array as="points" />
          </mxGeometry>
        </mxCell>
        <mxCell id="fItwUCg7H84Hvmo-fhJK-563" value="&lt;font style=&quot;font-size: 12px;&quot;&gt;Предоставить статус платежа&lt;/font&gt;" style="edgeLabel;html=1;align=center;verticalAlign=middle;resizable=0;points=[];rounded=1;" vertex="1" connectable="0" parent="fItwUCg7H84Hvmo-fhJK-562">
          <mxGeometry x="0.1936" y="1" relative="1" as="geometry">
            <mxPoint x="86" y="217" as="offset" />
          </mxGeometry>
        </mxCell>
        <mxCell id="fItwUCg7H84Hvmo-fhJK-564" value="" style="endArrow=classic;html=1;rounded=1;curved=0;entryX=0.477;entryY=0.002;entryDx=0;entryDy=0;entryPerimeter=0;" edge="1" parent="1" target="fItwUCg7H84Hvmo-fhJK-324">
          <mxGeometry width="50" height="50" relative="1" as="geometry">
            <mxPoint x="3120" y="-210" as="sourcePoint" />
            <mxPoint x="3120" y="216" as="targetPoint" />
            <Array as="points">
              <mxPoint x="3123" y="-89" />
            </Array>
          </mxGeometry>
        </mxCell>
        <mxCell id="fItwUCg7H84Hvmo-fhJK-565" value="&lt;p style=&quot;margin: 0px 0px 0px 21px; text-indent: -21px; font-variant-numeric: normal; font-variant-east-asian: normal; font-variant-alternates: normal; font-kerning: auto; font-optical-sizing: auto; font-feature-settings: normal; font-variation-settings: normal; font-variant-position: normal; font-stretch: normal; line-height: normal; color: rgb(14, 14, 14); text-align: start; text-wrap: wrap;&quot; class=&quot;p1&quot;&gt;&lt;font style=&quot;font-size: 12px;&quot; face=&quot;Helvetica&quot;&gt;Подтверждение платежа&lt;/font&gt;&lt;/p&gt;" style="edgeLabel;html=1;align=center;verticalAlign=middle;resizable=0;points=[];rounded=1;" vertex="1" connectable="0" parent="fItwUCg7H84Hvmo-fhJK-564">
          <mxGeometry x="0.1936" y="1" relative="1" as="geometry">
            <mxPoint x="-52" y="97" as="offset" />
          </mxGeometry>
        </mxCell>
        <mxCell id="fItwUCg7H84Hvmo-fhJK-567" value="" style="endArrow=classic;html=1;rounded=1;curved=0;entryX=0.214;entryY=1.007;entryDx=0;entryDy=0;entryPerimeter=0;exitX=0;exitY=0.5;exitDx=0;exitDy=0;" edge="1" parent="1">
          <mxGeometry width="50" height="50" relative="1" as="geometry">
            <mxPoint x="2958" y="184" as="sourcePoint" />
            <mxPoint x="2960" y="-214" as="targetPoint" />
            <Array as="points" />
          </mxGeometry>
        </mxCell>
        <mxCell id="fItwUCg7H84Hvmo-fhJK-568" value="&lt;span style=&quot;text-wrap: wrap;&quot;&gt;&lt;font style=&quot;font-size: 12px;&quot;&gt;Инициировать платёж&lt;/font&gt;&lt;/span&gt;" style="edgeLabel;html=1;align=center;verticalAlign=middle;resizable=0;points=[];rounded=1;" vertex="1" connectable="0" parent="fItwUCg7H84Hvmo-fhJK-567">
          <mxGeometry x="0.1936" y="1" relative="1" as="geometry">
            <mxPoint x="-46" y="184" as="offset" />
          </mxGeometry>
        </mxCell>
        <mxCell id="fItwUCg7H84Hvmo-fhJK-569" value="" style="html=1;shadow=0;dashed=0;align=center;verticalAlign=middle;shape=mxgraph.arrows2.arrow;dy=0.6;dx=40;direction=south;notch=0;" vertex="1" parent="1">
          <mxGeometry x="1683" y="47" width="70" height="100" as="geometry" />
        </mxCell>
        <mxCell id="fItwUCg7H84Hvmo-fhJK-571" value="" style="endArrow=classic;html=1;rounded=0;exitX=0.386;exitY=0.997;exitDx=0;exitDy=0;exitPerimeter=0;" edge="1" parent="1" source="fItwUCg7H84Hvmo-fhJK-114">
          <mxGeometry width="50" height="50" relative="1" as="geometry">
            <mxPoint x="2243" y="522" as="sourcePoint" />
            <mxPoint x="1658" y="546" as="targetPoint" />
          </mxGeometry>
        </mxCell>
        <mxCell id="fItwUCg7H84Hvmo-fhJK-572" value="" style="endArrow=classic;html=1;rounded=0;exitX=0.5;exitY=1;exitDx=0;exitDy=0;entryX=0.75;entryY=0;entryDx=0;entryDy=0;" edge="1" parent="1" source="fItwUCg7H84Hvmo-fhJK-114" target="fItwUCg7H84Hvmo-fhJK-518">
          <mxGeometry width="50" height="50" relative="1" as="geometry">
            <mxPoint x="2243" y="522" as="sourcePoint" />
            <mxPoint x="2293" y="472" as="targetPoint" />
          </mxGeometry>
        </mxCell>
        <mxCell id="fItwUCg7H84Hvmo-fhJK-573" value="" style="group" vertex="1" connectable="0" parent="1">
          <mxGeometry x="2558" y="765" width="224" height="175" as="geometry" />
        </mxCell>
        <mxCell id="fItwUCg7H84Hvmo-fhJK-574" value="" style="rounded=1;whiteSpace=wrap;html=1;arcSize=5;fillColor=#f5f5f5;strokeColor=#FF4124;strokeWidth=3;" vertex="1" parent="fItwUCg7H84Hvmo-fhJK-573">
          <mxGeometry x="0.46287115874330165" y="-1.0043243243243243" width="224" height="166.07142857142856" as="geometry" />
        </mxCell>
        <mxCell id="fItwUCg7H84Hvmo-fhJK-575" value="&lt;font style=&quot;font-size: 23px;&quot;&gt;Брокер сообщений&lt;/font&gt;" style="text;html=1;align=center;verticalAlign=middle;whiteSpace=wrap;rounded=1;fontSize=13;" vertex="1" parent="fItwUCg7H84Hvmo-fhJK-573">
          <mxGeometry x="46.76094276094276" y="50" width="125.08552188552189" height="50.89" as="geometry" />
        </mxCell>
        <mxCell id="fItwUCg7H84Hvmo-fhJK-597" style="edgeStyle=orthogonalEdgeStyle;rounded=0;orthogonalLoop=1;jettySize=auto;html=1;exitX=0.5;exitY=1;exitDx=0;exitDy=0;exitPerimeter=0;" edge="1" parent="fItwUCg7H84Hvmo-fhJK-573">
          <mxGeometry relative="1" as="geometry">
            <mxPoint x="180.45421487603298" y="162" as="sourcePoint" />
            <mxPoint x="180.45421487603298" y="162" as="targetPoint" />
          </mxGeometry>
        </mxCell>
        <mxCell id="fItwUCg7H84Hvmo-fhJK-599" value="" style="endArrow=classic;html=1;rounded=0;exitX=0.5;exitY=0;exitDx=0;exitDy=0;entryX=0;entryY=0.5;entryDx=0;entryDy=0;" edge="1" parent="1" source="fItwUCg7H84Hvmo-fhJK-574" target="fItwUCg7H84Hvmo-fhJK-324">
          <mxGeometry width="50" height="50" relative="1" as="geometry">
            <mxPoint x="2243" y="530" as="sourcePoint" />
            <mxPoint x="2293" y="480" as="targetPoint" />
          </mxGeometry>
        </mxCell>
        <mxCell id="fItwUCg7H84Hvmo-fhJK-600" value="" style="endArrow=classic;html=1;rounded=0;entryX=0.75;entryY=0;entryDx=0;entryDy=0;exitX=0.008;exitY=0.781;exitDx=0;exitDy=0;exitPerimeter=0;" edge="1" parent="1" source="fItwUCg7H84Hvmo-fhJK-324" target="fItwUCg7H84Hvmo-fhJK-574">
          <mxGeometry width="50" height="50" relative="1" as="geometry">
            <mxPoint x="3206" y="613" as="sourcePoint" />
            <mxPoint x="3140" y="620" as="targetPoint" />
          </mxGeometry>
        </mxCell>
        <mxCell id="fItwUCg7H84Hvmo-fhJK-601" value="" style="endArrow=classic;html=1;rounded=0;exitX=0.593;exitY=1;exitDx=0;exitDy=0;entryX=0.064;entryY=0.017;entryDx=0;entryDy=0;exitPerimeter=0;entryPerimeter=0;" edge="1" parent="1" source="fItwUCg7H84Hvmo-fhJK-114" target="fItwUCg7H84Hvmo-fhJK-370">
          <mxGeometry width="50" height="50" relative="1" as="geometry">
            <mxPoint x="1901" y="196" as="sourcePoint" />
            <mxPoint x="2123" y="495" as="targetPoint" />
          </mxGeometry>
        </mxCell>
        <mxCell id="fItwUCg7H84Hvmo-fhJK-602" value="" style="endArrow=classic;html=1;rounded=0;exitX=0.197;exitY=0.977;exitDx=0;exitDy=0;exitPerimeter=0;entryX=0.455;entryY=0.006;entryDx=0;entryDy=0;entryPerimeter=0;" edge="1" parent="1" source="fItwUCg7H84Hvmo-fhJK-114" target="fItwUCg7H84Hvmo-fhJK-265">
          <mxGeometry width="50" height="50" relative="1" as="geometry">
            <mxPoint x="1515" y="190" as="sourcePoint" />
            <mxPoint x="1485" y="531" as="targetPoint" />
          </mxGeometry>
        </mxCell>
        <mxCell id="fItwUCg7H84Hvmo-fhJK-604" value="" style="endArrow=classic;html=1;rounded=0;exitX=0.64;exitY=1.023;exitDx=0;exitDy=0;entryX=0.282;entryY=0;entryDx=0;entryDy=0;exitPerimeter=0;entryPerimeter=0;" edge="1" parent="1" source="fItwUCg7H84Hvmo-fhJK-114" target="fItwUCg7H84Hvmo-fhJK-486">
          <mxGeometry width="50" height="50" relative="1" as="geometry">
            <mxPoint x="1905" y="200" as="sourcePoint" />
            <mxPoint x="1900" y="969" as="targetPoint" />
          </mxGeometry>
        </mxCell>
        <mxCell id="fItwUCg7H84Hvmo-fhJK-605" value="" style="endArrow=classic;html=1;rounded=0;exitX=0.73;exitY=1;exitDx=0;exitDy=0;entryX=0;entryY=0.5;entryDx=0;entryDy=0;exitPerimeter=0;" edge="1" parent="1" source="fItwUCg7H84Hvmo-fhJK-114" target="fItwUCg7H84Hvmo-fhJK-440">
          <mxGeometry width="50" height="50" relative="1" as="geometry">
            <mxPoint x="2056" y="190" as="sourcePoint" />
            <mxPoint x="2181" y="613" as="targetPoint" />
          </mxGeometry>
        </mxCell>
        <mxCell id="fItwUCg7H84Hvmo-fhJK-609" value="" style="endArrow=classic;startArrow=classic;html=1;rounded=0;entryX=0.002;entryY=0.152;entryDx=0;entryDy=0;entryPerimeter=0;exitX=0.828;exitY=1;exitDx=0;exitDy=0;exitPerimeter=0;" edge="1" parent="1" source="fItwUCg7H84Hvmo-fhJK-440" target="fItwUCg7H84Hvmo-fhJK-574">
          <mxGeometry width="50" height="50" relative="1" as="geometry">
            <mxPoint x="2551" y="729" as="sourcePoint" />
            <mxPoint x="2601" y="679" as="targetPoint" />
          </mxGeometry>
        </mxCell>
        <mxCell id="fItwUCg7H84Hvmo-fhJK-610" value="" style="endArrow=classic;startArrow=classic;html=1;rounded=0;entryX=0.998;entryY=0.381;entryDx=0;entryDy=0;entryPerimeter=0;exitX=-0.002;exitY=0.334;exitDx=0;exitDy=0;exitPerimeter=0;" edge="1" parent="1" source="fItwUCg7H84Hvmo-fhJK-574" target="fItwUCg7H84Hvmo-fhJK-486">
          <mxGeometry width="50" height="50" relative="1" as="geometry">
            <mxPoint x="2568" y="579" as="sourcePoint" />
            <mxPoint x="2614" y="629" as="targetPoint" />
          </mxGeometry>
        </mxCell>
        <mxCell id="fItwUCg7H84Hvmo-fhJK-611" value="" style="endArrow=classic;startArrow=classic;html=1;rounded=0;entryX=1;entryY=0.5;entryDx=0;entryDy=0;exitX=-0.002;exitY=0.591;exitDx=0;exitDy=0;exitPerimeter=0;" edge="1" parent="1" source="fItwUCg7H84Hvmo-fhJK-574" target="fItwUCg7H84Hvmo-fhJK-370">
          <mxGeometry width="50" height="50" relative="1" as="geometry">
            <mxPoint x="2613" y="659" as="sourcePoint" />
            <mxPoint x="2445" y="732" as="targetPoint" />
          </mxGeometry>
        </mxCell>
        <mxCell id="fItwUCg7H84Hvmo-fhJK-372" value="" style="group" vertex="1" connectable="0" parent="1">
          <mxGeometry x="1888" y="959" width="274" height="39" as="geometry" />
        </mxCell>
        <mxCell id="fItwUCg7H84Hvmo-fhJK-373" value="" style="rounded=1;whiteSpace=wrap;html=1;fillColor=#1C57CD;strokeColor=none;" vertex="1" parent="fItwUCg7H84Hvmo-fhJK-372">
          <mxGeometry width="274" height="39" as="geometry" />
        </mxCell>
        <mxCell id="fItwUCg7H84Hvmo-fhJK-374" value="" style="sketch=0;outlineConnect=0;fontColor=#232F3E;gradientColor=none;fillColor=#FFFFFF;strokeColor=none;dashed=0;verticalLabelPosition=bottom;verticalAlign=top;align=center;html=1;fontSize=12;fontStyle=0;aspect=fixed;pointerEvents=1;shape=mxgraph.aws4.gear;rounded=1;" vertex="1" parent="fItwUCg7H84Hvmo-fhJK-372">
          <mxGeometry x="253.60517799352752" y="10" width="15.074433656957929" height="15.074433656957929" as="geometry" />
        </mxCell>
        <mxCell id="fItwUCg7H84Hvmo-fhJK-375" value="Добавить услугу в профиль пользователя" style="text;html=1;align=center;verticalAlign=middle;whiteSpace=wrap;rounded=1;fontSize=13;fontColor=#FFFFFF;strokeColor=none;" vertex="1" parent="fItwUCg7H84Hvmo-fhJK-372">
          <mxGeometry x="1.773462783171521" y="5" width="242.07766990291262" height="30" as="geometry" />
        </mxCell>
        <mxCell id="fItwUCg7H84Hvmo-fhJK-376" value="" style="group" vertex="1" connectable="0" parent="1">
          <mxGeometry x="1887" y="1001" width="274" height="39" as="geometry" />
        </mxCell>
        <mxCell id="fItwUCg7H84Hvmo-fhJK-377" value="" style="rounded=1;whiteSpace=wrap;html=1;fillColor=#1C57CD;strokeColor=none;" vertex="1" parent="fItwUCg7H84Hvmo-fhJK-376">
          <mxGeometry width="274" height="39" as="geometry" />
        </mxCell>
        <mxCell id="fItwUCg7H84Hvmo-fhJK-378" value="" style="sketch=0;outlineConnect=0;fontColor=#232F3E;gradientColor=none;fillColor=#FFFFFF;strokeColor=none;dashed=0;verticalLabelPosition=bottom;verticalAlign=top;align=center;html=1;fontSize=12;fontStyle=0;aspect=fixed;pointerEvents=1;shape=mxgraph.aws4.gear;rounded=1;" vertex="1" parent="fItwUCg7H84Hvmo-fhJK-376">
          <mxGeometry x="253.60517799352752" y="11" width="15.074433656957929" height="15.074433656957929" as="geometry" />
        </mxCell>
        <mxCell id="fItwUCg7H84Hvmo-fhJK-379" value="Изменить услугу пользователя" style="text;html=1;align=center;verticalAlign=middle;whiteSpace=wrap;rounded=1;fontSize=13;fontColor=#FFFFFF;strokeColor=none;" vertex="1" parent="fItwUCg7H84Hvmo-fhJK-376">
          <mxGeometry x="3.546925566343042" y="4.5" width="172.9126213592233" height="30" as="geometry" />
        </mxCell>
        <mxCell id="fItwUCg7H84Hvmo-fhJK-380" value="" style="group" vertex="1" connectable="0" parent="1">
          <mxGeometry x="1885" y="1043" width="275" height="39" as="geometry" />
        </mxCell>
        <mxCell id="fItwUCg7H84Hvmo-fhJK-381" value="" style="rounded=1;whiteSpace=wrap;html=1;fillColor=#1C57CD;strokeColor=none;" vertex="1" parent="fItwUCg7H84Hvmo-fhJK-380">
          <mxGeometry width="275" height="39" as="geometry" />
        </mxCell>
        <mxCell id="fItwUCg7H84Hvmo-fhJK-382" value="" style="sketch=0;outlineConnect=0;fontColor=#232F3E;gradientColor=none;fillColor=default;strokeColor=none;dashed=0;verticalLabelPosition=bottom;verticalAlign=top;align=center;html=1;fontSize=12;fontStyle=0;aspect=fixed;pointerEvents=1;shape=mxgraph.aws4.gear;rounded=1;" vertex="1" parent="fItwUCg7H84Hvmo-fhJK-380">
          <mxGeometry x="250.97087378640776" y="11" width="15.129449838187702" height="15.129449838187702" as="geometry" />
        </mxCell>
        <mxCell id="fItwUCg7H84Hvmo-fhJK-383" value="Удалить услугу пользователя" style="text;html=1;align=center;verticalAlign=middle;whiteSpace=wrap;rounded=1;fontSize=13;fontColor=#FFFFFF;strokeColor=none;" vertex="1" parent="fItwUCg7H84Hvmo-fhJK-380">
          <mxGeometry x="2.6699029126213594" y="4.5" width="168.20388349514562" height="30" as="geometry" />
        </mxCell>
        <mxCell id="fItwUCg7H84Hvmo-fhJK-612" value="" style="endArrow=classic;startArrow=classic;html=1;rounded=0;exitX=1;exitY=0.5;exitDx=0;exitDy=0;entryX=0.02;entryY=0.012;entryDx=0;entryDy=0;entryPerimeter=0;" edge="1" parent="1" source="fItwUCg7H84Hvmo-fhJK-114" target="fItwUCg7H84Hvmo-fhJK-395">
          <mxGeometry width="50" height="50" relative="1" as="geometry">
            <mxPoint x="2362" y="176" as="sourcePoint" />
            <mxPoint x="2412" y="126" as="targetPoint" />
            <Array as="points">
              <mxPoint x="2691" y="165" />
            </Array>
          </mxGeometry>
        </mxCell>
        <mxCell id="fItwUCg7H84Hvmo-fhJK-614" value="&lt;h1 style=&quot;margin-top: 0px;&quot;&gt;&lt;p class=&quot;p1&quot; style=&quot;margin: 0px 0px 0px 21px; text-indent: -21px; font-variant-numeric: normal; font-variant-east-asian: normal; font-variant-alternates: normal; font-kerning: auto; font-optical-sizing: auto; font-feature-settings: normal; font-variation-settings: normal; font-variant-position: normal; font-stretch: normal; line-height: normal;&quot;&gt;&lt;font face=&quot;Times New Roman&quot; color=&quot;#0e0e0e&quot;&gt;&lt;span style=&quot;font-size: 15px; font-weight: 400;&quot;&gt;Весь трафик из портала поступает в систему управления через API Gateway, где вызывается микросервис с функциями аутентификация и авторизации,&amp;nbsp;&lt;/span&gt;&lt;/font&gt;&lt;/p&gt;&lt;p class=&quot;p1&quot; style=&quot;margin: 0px 0px 0px 21px; text-indent: -21px; font-variant-numeric: normal; font-variant-east-asian: normal; font-variant-alternates: normal; font-kerning: auto; font-optical-sizing: auto; font-feature-settings: normal; font-variation-settings: normal; font-variant-position: normal; font-stretch: normal; line-height: normal;&quot;&gt;&lt;font face=&quot;Times New Roman&quot; color=&quot;#0e0e0e&quot;&gt;&lt;span style=&quot;font-size: 15px; font-weight: 400;&quot;&gt;который предоставляет JWT, используемый в работе остальных микросервисов.&lt;/span&gt;&lt;/font&gt;&lt;/p&gt;&lt;p class=&quot;p1&quot; style=&quot;margin: 0px 0px 0px 21px; text-indent: -21px; font-variant-numeric: normal; font-variant-east-asian: normal; font-variant-alternates: normal; font-kerning: auto; font-optical-sizing: auto; font-feature-settings: normal; font-variation-settings: normal; font-variant-position: normal; font-stretch: normal; line-height: normal;&quot;&gt;&lt;font face=&quot;Times New Roman&quot; color=&quot;#0e0e0e&quot;&gt;&lt;span style=&quot;font-size: 15px; font-weight: 400;&quot;&gt;Сервисы заказов, услуг и товаров, требующие оплаты, работают с внешней системой приема платежей через Брокер сообщений (RabbitMQ/Kafka).&lt;/span&gt;&lt;/font&gt;&lt;/p&gt;&lt;/h1&gt;" style="text;html=1;whiteSpace=wrap;overflow=hidden;rounded=0;fontSize=15;" vertex="1" parent="1">
          <mxGeometry x="2485" y="1267" width="993" height="115" as="geometry" />
        </mxCell>
        <mxCell id="fItwUCg7H84Hvmo-fhJK-616" value="&lt;font style=&quot;font-size: 20px;&quot;&gt;Пояснения к схеме&lt;/font&gt;" style="text;html=1;align=center;verticalAlign=middle;whiteSpace=wrap;rounded=0;" vertex="1" parent="1">
          <mxGeometry x="2493" y="1220" width="310" height="47" as="geometry" />
        </mxCell>
        <mxCell id="fItwUCg7H84Hvmo-fhJK-617" value="&lt;h1 style=&quot;margin-top: 0px;&quot;&gt;&lt;p class=&quot;p1&quot; style=&quot;margin: 0px 0px 0px 21px; text-indent: -21px; font-variant-numeric: normal; font-variant-east-asian: normal; font-variant-alternates: normal; font-kerning: auto; font-optical-sizing: auto; font-feature-settings: normal; font-variation-settings: normal; font-variant-position: normal; font-stretch: normal; line-height: normal;&quot;&gt;&lt;font face=&quot;Times New Roman&quot; color=&quot;#0e0e0e&quot;&gt;&lt;span style=&quot;font-size: 15px; font-weight: 400;&quot;&gt;Категории пользователей&lt;/span&gt;&lt;/font&gt;&lt;/p&gt;&lt;p class=&quot;p1&quot; style=&quot;margin: 0px 0px 0px 21px; text-indent: -21px; font-variant-numeric: normal; font-variant-east-asian: normal; font-variant-alternates: normal; font-kerning: auto; font-optical-sizing: auto; font-feature-settings: normal; font-variation-settings: normal; font-variant-position: normal; font-stretch: normal; line-height: normal;&quot;&gt;&lt;font face=&quot;Times New Roman&quot; color=&quot;#0e0e0e&quot;&gt;&lt;span style=&quot;font-size: 15px; font-weight: 400;&quot;&gt;Продавец, Покупатель, Администратор, Специалист поддержки&lt;/span&gt;&lt;/font&gt;&lt;/p&gt;&lt;p class=&quot;p1&quot; style=&quot;margin: 0px 0px 0px 21px; text-indent: -21px; font-variant-numeric: normal; font-variant-east-asian: normal; font-variant-alternates: normal; font-kerning: auto; font-optical-sizing: auto; font-feature-settings: normal; font-variation-settings: normal; font-variant-position: normal; font-stretch: normal; line-height: normal;&quot;&gt;&lt;font face=&quot;Times New Roman&quot; color=&quot;#0e0e0e&quot;&gt;&lt;span style=&quot;font-size: 15px; font-weight: 400;&quot;&gt;&lt;br&gt;&lt;/span&gt;&lt;/font&gt;&lt;/p&gt;&lt;p class=&quot;p1&quot; style=&quot;margin: 0px 0px 0px 21px; text-indent: -21px; font-variant-numeric: normal; font-variant-east-asian: normal; font-variant-alternates: normal; font-kerning: auto; font-optical-sizing: auto; font-feature-settings: normal; font-variation-settings: normal; font-variant-position: normal; font-stretch: normal; line-height: normal;&quot;&gt;&lt;font face=&quot;Times New Roman&quot; color=&quot;#0e0e0e&quot;&gt;&lt;span style=&quot;font-size: 15px; font-weight: 400;&quot;&gt;Продавец&lt;/span&gt;&lt;/font&gt;&lt;/p&gt;&lt;p class=&quot;p1&quot; style=&quot;margin: 0px 0px 0px 21px; text-indent: -21px; font-variant-numeric: normal; font-variant-east-asian: normal; font-variant-alternates: normal; font-kerning: auto; font-optical-sizing: auto; font-feature-settings: normal; font-variation-settings: normal; font-variant-position: normal; font-stretch: normal; line-height: normal;&quot;&gt;&lt;font face=&quot;Times New Roman&quot; color=&quot;#0e0e0e&quot;&gt;&lt;span style=&quot;font-size: 15px; font-weight: 400;&quot;&gt;Добавляет, удаляет, редактирует свои товары и услуги в каталоге, подает заявку на участие в аукционе, обращается в службу поддержки, получает уведомления об аукционах&lt;/span&gt;&lt;/font&gt;&lt;/p&gt;&lt;p class=&quot;p1&quot; style=&quot;margin: 0px 0px 0px 21px; text-indent: -21px; font-variant-numeric: normal; font-variant-east-asian: normal; font-variant-alternates: normal; font-kerning: auto; font-optical-sizing: auto; font-feature-settings: normal; font-variation-settings: normal; font-variant-position: normal; font-stretch: normal; line-height: normal;&quot;&gt;&lt;font face=&quot;Times New Roman&quot; color=&quot;#0e0e0e&quot;&gt;&lt;span style=&quot;font-size: 15px; font-weight: 400;&quot;&gt;&lt;br&gt;&lt;/span&gt;&lt;/font&gt;&lt;/p&gt;&lt;p class=&quot;p1&quot; style=&quot;margin: 0px 0px 0px 21px; text-indent: -21px; font-variant-numeric: normal; font-variant-east-asian: normal; font-variant-alternates: normal; font-kerning: auto; font-optical-sizing: auto; font-feature-settings: normal; font-variation-settings: normal; font-variant-position: normal; font-stretch: normal; line-height: normal;&quot;&gt;&lt;font face=&quot;Times New Roman&quot; color=&quot;#0e0e0e&quot;&gt;&lt;span style=&quot;font-size: 15px; font-weight: 400;&quot;&gt;Покупатель&lt;/span&gt;&lt;/font&gt;&lt;/p&gt;&lt;p class=&quot;p1&quot; style=&quot;margin: 0px 0px 0px 21px; text-indent: -21px; font-variant-numeric: normal; font-variant-east-asian: normal; font-variant-alternates: normal; font-kerning: auto; font-optical-sizing: auto; font-feature-settings: normal; font-variation-settings: normal; font-variant-position: normal; font-stretch: normal; line-height: normal;&quot;&gt;&lt;font face=&quot;Times New Roman&quot; color=&quot;#0e0e0e&quot;&gt;&lt;span style=&quot;font-size: 15px; font-weight: 400;&quot;&gt;Размещает заказ на покупку товара/услуги или создает заявку на участие в аукционе, в случае победы в аукционе – оплачивает товар через систему платежей, обращается в техподдержку при технических проблемах или для аппеляции по аукционам&lt;/span&gt;&lt;/font&gt;&lt;/p&gt;&lt;p class=&quot;p1&quot; style=&quot;margin: 0px 0px 0px 21px; text-indent: -21px; font-variant-numeric: normal; font-variant-east-asian: normal; font-variant-alternates: normal; font-kerning: auto; font-optical-sizing: auto; font-feature-settings: normal; font-variation-settings: normal; font-variant-position: normal; font-stretch: normal; line-height: normal;&quot;&gt;&lt;font face=&quot;Times New Roman&quot; color=&quot;#0e0e0e&quot;&gt;&lt;span style=&quot;font-size: 15px; font-weight: 400;&quot;&gt;&lt;br&gt;&lt;/span&gt;&lt;/font&gt;&lt;/p&gt;&lt;p class=&quot;p1&quot; style=&quot;margin: 0px 0px 0px 21px; text-indent: -21px; font-variant-numeric: normal; font-variant-east-asian: normal; font-variant-alternates: normal; font-kerning: auto; font-optical-sizing: auto; font-feature-settings: normal; font-variation-settings: normal; font-variant-position: normal; font-stretch: normal; line-height: normal;&quot;&gt;&lt;font face=&quot;Times New Roman&quot; color=&quot;#0e0e0e&quot;&gt;&lt;span style=&quot;font-size: 15px; font-weight: 400;&quot;&gt;Администратор&lt;/span&gt;&lt;/font&gt;&lt;/p&gt;&lt;p class=&quot;p1&quot; style=&quot;margin: 0px 0px 0px 21px; text-indent: -21px; font-variant-numeric: normal; font-variant-east-asian: normal; font-variant-alternates: normal; font-kerning: auto; font-optical-sizing: auto; font-feature-settings: normal; font-variation-settings: normal; font-variant-position: normal; font-stretch: normal; line-height: normal;&quot;&gt;&lt;font face=&quot;Times New Roman&quot; color=&quot;#0e0e0e&quot;&gt;&lt;span style=&quot;font-size: 15px; font-weight: 400;&quot;&gt;Назначает роли, редактирует и контролирует ход аукционов, валидирует заявки, специалист поддержки, принимает заявки в техподдержку, назначает исполнителя заявки, контролирует статус заявки&lt;/span&gt;&lt;/font&gt;&lt;/p&gt;&lt;div style=&quot;text-indent: -21px;&quot;&gt;&lt;br&gt;&lt;/div&gt;&lt;/h1&gt;" style="text;html=1;whiteSpace=wrap;overflow=hidden;rounded=0;fontSize=15;" vertex="1" parent="1">
          <mxGeometry x="2486" y="1395" width="982" height="499" as="geometry" />
        </mxCell>
      </root>
    </mxGraphModel>
  </diagram>
</mxfile>
